<?xml version="1.0" encoding="UTF-8" standalone="no"?>
<!DOCTYPE svg PUBLIC "-//W3C//DTD SVG 1.1//EN"
 "http://www.w3.org/Graphics/SVG/1.1/DTD/svg11.dtd">
<!-- Generated by graphviz version 2.43.0 (0)
 -->
<!-- Title: %3 Pages: 1 -->
<svg width="360pt" height="187pt"
 viewBox="0.00 0.00 359.50 187.00" xmlns="http://www.w3.org/2000/svg" xmlns:xlink="http://www.w3.org/1999/xlink">
<g id="graph0" class="graph" transform="scale(1 1) rotate(0) translate(4 183)">
<title>%3</title>
<polygon fill="white" stroke="transparent" points="-4,4 -4,-183 355.5,-183 355.5,4 -4,4"/>
<g id="clust1" class="cluster">
<title>cluster_patients</title>
<polygon fill="none" stroke="black" points="8,-96 8,-171 222,-171 222,-96 8,-96"/>
<text text-anchor="middle" x="192.5" y="-103.8" font-family="Times,serif" font-size="14.00">patients</text>
</g>
<g id="clust2" class="cluster">
<title>cluster_samples</title>
<polygon fill="none" stroke="black" points="80,-8 80,-83 150,-83 150,-8 80,-8"/>
<text text-anchor="middle" x="119.5" y="-15.8" font-family="Times,serif" font-size="14.00">samples</text>
</g>
<!-- α_p -->
<g id="node1" class="node">
<title>α_p</title>
<ellipse fill="white" stroke="black" cx="187" cy="-145" rx="27" ry="18"/>
<text text-anchor="middle" x="187" y="-141.3" font-family="Times,serif" font-size="14.00">α_p</text>
</g>
<!-- fvc -->
<g id="node4" class="node">
<title>fvc</title>
<ellipse fill="grey" stroke="black" cx="115" cy="-57" rx="27" ry="18"/>
<text text-anchor="middle" x="115" y="-53.3" font-family="Times,serif" font-size="14.00">fvc</text>
</g>
<!-- α_p&#45;&gt;fvc -->
<g id="edge1" class="edge">
<title>α_p&#45;&gt;fvc</title>
<path fill="none" stroke="black" d="M176.09,-128.52C169.16,-118.94 159.87,-106.51 151,-96 146.43,-90.59 141.31,-84.95 136.39,-79.72"/>
<polygon fill="black" stroke="black" points="138.86,-77.24 129.42,-72.44 133.81,-82.08 138.86,-77.24"/>
</g>
<!-- β_p -->
<g id="node2" class="node">
<title>β_p</title>
<ellipse fill="white" stroke="black" cx="115" cy="-145" rx="27" ry="18"/>
<text text-anchor="middle" x="115" y="-141.3" font-family="Times,serif" font-size="14.00">β_p</text>
</g>
<!-- β_p&#45;&gt;fvc -->
<g id="edge2" class="edge">
<title>β_p&#45;&gt;fvc</title>
<path fill="none" stroke="black" d="M115,-126.6C115,-114.75 115,-98.82 115,-85.29"/>
<polygon fill="black" stroke="black" points="118.5,-85.08 115,-75.08 111.5,-85.08 118.5,-85.08"/>
</g>
<!-- σ_p -->
<g id="node3" class="node">
<title>σ_p</title>
<ellipse fill="white" stroke="black" cx="43" cy="-145" rx="27" ry="18"/>
<text text-anchor="middle" x="43" y="-141.3" font-family="Times,serif" font-size="14.00">σ_p</text>
</g>
<!-- σ_p&#45;&gt;fvc -->
<g id="edge3" class="edge">
<title>σ_p&#45;&gt;fvc</title>
<path fill="none" stroke="black" d="M53.91,-128.52C60.84,-118.94 70.13,-106.51 79,-96 83.57,-90.59 88.69,-84.95 93.61,-79.72"/>
<polygon fill="black" stroke="black" points="96.19,-82.08 100.58,-72.44 91.14,-77.24 96.19,-82.08"/>
</g>
<!-- distribution_description_node -->
<g id="node5" class="node">
<title>distribution_description_node</title>
<text text-anchor="start" x="240.5" y="-163.8" font-family="Times,serif" font-size="14.00">α_p ~ Normal</text>
<text text-anchor="start" x="240.5" y="-148.8" font-family="Times,serif" font-size="14.00">β_p ~ Normal</text>
<text text-anchor="start" x="240.5" y="-133.8" font-family="Times,serif" font-size="14.00">σ_p ~ HalfNormal</text>
<text text-anchor="start" x="240.5" y="-118.8" font-family="Times,serif" font-size="14.00">fvc ~ Normal</text>
</g>
</g>
</svg>
