<?xml version="1.0" encoding="UTF-8" standalone="no"?>
<!DOCTYPE svg PUBLIC "-//W3C//DTD SVG 1.1//EN"
 "http://www.w3.org/Graphics/SVG/1.1/DTD/svg11.dtd">
<!-- Generated by graphviz version 2.43.0 (0)
 -->
<!-- Title: %3 Pages: 1 -->
<svg width="330pt" height="187pt"
 viewBox="0.00 0.00 329.50 187.00" xmlns="http://www.w3.org/2000/svg" xmlns:xlink="http://www.w3.org/1999/xlink">
<g id="graph0" class="graph" transform="scale(1 1) rotate(0) translate(4 183)">
<title>%3</title>
<polygon fill="white" stroke="transparent" points="-4,4 -4,-183 325.5,-183 325.5,4 -4,4"/>
<g id="clust1" class="cluster">
<title>cluster_patients</title>
<polygon fill="none" stroke="black" points="64,-96 64,-171 206,-171 206,-96 64,-96"/>
<text text-anchor="middle" x="176.5" y="-103.8" font-family="Times,serif" font-size="14.00">patients</text>
</g>
<g id="clust2" class="cluster">
<title>cluster_samples</title>
<polygon fill="none" stroke="black" points="64,-8 64,-83 134,-83 134,-8 64,-8"/>
<text text-anchor="middle" x="103.5" y="-15.8" font-family="Times,serif" font-size="14.00">samples</text>
</g>
<!-- σ -->
<g id="node1" class="node">
<title>σ</title>
<ellipse fill="white" stroke="black" cx="27" cy="-145" rx="27" ry="18"/>
<text text-anchor="middle" x="27" y="-141.3" font-family="Times,serif" font-size="14.00">σ</text>
</g>
<!-- fvc -->
<g id="node4" class="node">
<title>fvc</title>
<ellipse fill="grey" stroke="black" cx="99" cy="-57" rx="27" ry="18"/>
<text text-anchor="middle" x="99" y="-53.3" font-family="Times,serif" font-size="14.00">fvc</text>
</g>
<!-- σ&#45;&gt;fvc -->
<g id="edge1" class="edge">
<title>σ&#45;&gt;fvc</title>
<path fill="none" stroke="black" d="M36.96,-127.87C43.15,-118.27 51.53,-106.05 60,-96 64.94,-90.14 70.67,-84.17 76.19,-78.76"/>
<polygon fill="black" stroke="black" points="78.67,-81.23 83.49,-71.79 73.84,-76.16 78.67,-81.23"/>
</g>
<!-- α_p -->
<g id="node2" class="node">
<title>α_p</title>
<ellipse fill="white" stroke="black" cx="171" cy="-145" rx="27" ry="18"/>
<text text-anchor="middle" x="171" y="-141.3" font-family="Times,serif" font-size="14.00">α_p</text>
</g>
<!-- α_p&#45;&gt;fvc -->
<g id="edge2" class="edge">
<title>α_p&#45;&gt;fvc</title>
<path fill="none" stroke="black" d="M160.09,-128.52C153.16,-118.94 143.87,-106.51 135,-96 130.43,-90.59 125.31,-84.95 120.39,-79.72"/>
<polygon fill="black" stroke="black" points="122.86,-77.24 113.42,-72.44 117.81,-82.08 122.86,-77.24"/>
</g>
<!-- β_p -->
<g id="node3" class="node">
<title>β_p</title>
<ellipse fill="white" stroke="black" cx="99" cy="-145" rx="27" ry="18"/>
<text text-anchor="middle" x="99" y="-141.3" font-family="Times,serif" font-size="14.00">β_p</text>
</g>
<!-- β_p&#45;&gt;fvc -->
<g id="edge3" class="edge">
<title>β_p&#45;&gt;fvc</title>
<path fill="none" stroke="black" d="M99,-126.6C99,-114.75 99,-98.82 99,-85.29"/>
<polygon fill="black" stroke="black" points="102.5,-85.08 99,-75.08 95.5,-85.08 102.5,-85.08"/>
</g>
<!-- distribution_description_node -->
<g id="node5" class="node">
<title>distribution_description_node</title>
<text text-anchor="start" x="224.5" y="-163.8" font-family="Times,serif" font-size="14.00">σ ~ HalfNormal</text>
<text text-anchor="start" x="224.5" y="-148.8" font-family="Times,serif" font-size="14.00">α_p ~ Normal</text>
<text text-anchor="start" x="224.5" y="-133.8" font-family="Times,serif" font-size="14.00">β_p ~ Normal</text>
<text text-anchor="start" x="224.5" y="-118.8" font-family="Times,serif" font-size="14.00">fvc ~ Normal</text>
</g>
</g>
</svg>
