<?xml version="1.0" encoding="UTF-8" standalone="no"?>
<!DOCTYPE svg PUBLIC "-//W3C//DTD SVG 1.1//EN"
 "http://www.w3.org/Graphics/SVG/1.1/DTD/svg11.dtd">
<!-- Generated by graphviz version 2.43.0 (0)
 -->
<!-- Title: %3 Pages: 1 -->
<svg width="330pt" height="187pt"
 viewBox="0.00 0.00 329.50 187.00" xmlns="http://www.w3.org/2000/svg" xmlns:xlink="http://www.w3.org/1999/xlink">
<g id="graph0" class="graph" transform="scale(1 1) rotate(0) translate(4 183)">
<title>%3</title>
<polygon fill="white" stroke="transparent" points="-4,4 -4,-183 325.5,-183 325.5,4 -4,4"/>
<g id="clust1" class="cluster">
<title>cluster_samples</title>
<polygon fill="none" stroke="black" points="64,-8 64,-83 134,-83 134,-8 64,-8"/>
<text text-anchor="middle" x="103.5" y="-15.8" font-family="Times,serif" font-size="14.00">samples</text>
</g>
<!-- α -->
<g id="node1" class="node">
<title>α</title>
<ellipse fill="white" stroke="black" cx="27" cy="-145" rx="27" ry="18"/>
<text text-anchor="middle" x="27" y="-141.3" font-family="Times,serif" font-size="14.00">α</text>
</g>
<!-- fvc -->
<g id="node4" class="node">
<title>fvc</title>
<ellipse fill="grey" stroke="black" cx="99" cy="-57" rx="27" ry="18"/>
<text text-anchor="middle" x="99" y="-53.3" font-family="Times,serif" font-size="14.00">fvc</text>
</g>
<!-- α&#45;&gt;fvc -->
<g id="edge1" class="edge">
<title>α&#45;&gt;fvc</title>
<path fill="none" stroke="black" d="M39.54,-129.02C50.62,-115.78 66.96,-96.27 79.71,-81.05"/>
<polygon fill="black" stroke="black" points="82.62,-83.01 86.36,-73.1 77.26,-78.52 82.62,-83.01"/>
</g>
<!-- β -->
<g id="node2" class="node">
<title>β</title>
<ellipse fill="white" stroke="black" cx="99" cy="-145" rx="27" ry="18"/>
<text text-anchor="middle" x="99" y="-141.3" font-family="Times,serif" font-size="14.00">β</text>
</g>
<!-- β&#45;&gt;fvc -->
<g id="edge2" class="edge">
<title>β&#45;&gt;fvc</title>
<path fill="none" stroke="black" d="M99,-126.6C99,-114.75 99,-98.82 99,-85.29"/>
<polygon fill="black" stroke="black" points="102.5,-85.08 99,-75.08 95.5,-85.08 102.5,-85.08"/>
</g>
<!-- σ -->
<g id="node3" class="node">
<title>σ</title>
<ellipse fill="white" stroke="black" cx="171" cy="-145" rx="27" ry="18"/>
<text text-anchor="middle" x="171" y="-141.3" font-family="Times,serif" font-size="14.00">σ</text>
</g>
<!-- σ&#45;&gt;fvc -->
<g id="edge3" class="edge">
<title>σ&#45;&gt;fvc</title>
<path fill="none" stroke="black" d="M158.46,-129.02C147.38,-115.78 131.04,-96.27 118.29,-81.05"/>
<polygon fill="black" stroke="black" points="120.74,-78.52 111.64,-73.1 115.38,-83.01 120.74,-78.52"/>
</g>
<!-- distribution_description_node -->
<g id="node5" class="node">
<title>distribution_description_node</title>
<text text-anchor="start" x="224.5" y="-163.8" font-family="Times,serif" font-size="14.00">α ~ Normal</text>
<text text-anchor="start" x="224.5" y="-148.8" font-family="Times,serif" font-size="14.00">β ~ Normal</text>
<text text-anchor="start" x="224.5" y="-133.8" font-family="Times,serif" font-size="14.00">σ ~ HalfNormal</text>
<text text-anchor="start" x="224.5" y="-118.8" font-family="Times,serif" font-size="14.00">fvc ~ Normal</text>
</g>
</g>
</svg>
