<?xml version="1.0" encoding="UTF-8" standalone="no"?>
<!DOCTYPE svg PUBLIC "-//W3C//DTD SVG 1.1//EN"
 "http://www.w3.org/Graphics/SVG/1.1/DTD/svg11.dtd">
<!-- Generated by graphviz version 2.43.0 (0)
 -->
<!-- Title: %3 Pages: 1 -->
<svg width="416pt" height="330pt"
 viewBox="0.00 0.00 415.50 330.00" xmlns="http://www.w3.org/2000/svg" xmlns:xlink="http://www.w3.org/1999/xlink">
<g id="graph0" class="graph" transform="scale(1 1) rotate(0) translate(4 326)">
<title>%3</title>
<polygon fill="white" stroke="transparent" points="-4,4 -4,-326 411.5,-326 411.5,4 -4,4"/>
<g id="clust1" class="cluster">
<title>cluster_Participants</title>
<polygon fill="none" stroke="black" points="64,-91 64,-166 206,-166 206,-91 64,-91"/>
<text text-anchor="middle" x="166" y="-98.8" font-family="Times,serif" font-size="14.00">Participants</text>
</g>
<g id="clust2" class="cluster">
<title>cluster_data</title>
<polygon fill="none" stroke="black" points="136,-8 136,-83 206,-83 206,-8 136,-8"/>
<text text-anchor="middle" x="186.5" y="-15.8" font-family="Times,serif" font-size="14.00">data</text>
</g>
<!-- μ_α -->
<g id="node1" class="node">
<title>μ_α</title>
<ellipse fill="white" stroke="black" cx="27" cy="-258" rx="27" ry="18"/>
<text text-anchor="middle" x="27" y="-254.3" font-family="Times,serif" font-size="14.00">μ_α</text>
</g>
<!-- α -->
<g id="node6" class="node">
<title>α</title>
<ellipse fill="white" stroke="black" cx="99" cy="-140" rx="27" ry="18"/>
<text text-anchor="middle" x="99" y="-136.3" font-family="Times,serif" font-size="14.00">α</text>
</g>
<!-- μ_α&#45;&gt;α -->
<g id="edge1" class="edge">
<title>μ_α&#45;&gt;α</title>
<path fill="none" stroke="black" d="M35.83,-240.74C42.92,-227.9 53.26,-209.6 63,-194 69.01,-184.37 75.94,-174.01 82.11,-165.01"/>
<polygon fill="black" stroke="black" points="85.15,-166.77 87.96,-156.56 79.39,-162.79 85.15,-166.77"/>
</g>
<!-- σ_α -->
<g id="node2" class="node">
<title>σ_α</title>
<ellipse fill="white" stroke="black" cx="99" cy="-258" rx="27" ry="18"/>
<text text-anchor="middle" x="99" y="-254.3" font-family="Times,serif" font-size="14.00">σ_α</text>
</g>
<!-- σ_α&#45;&gt;α -->
<g id="edge2" class="edge">
<title>σ_α&#45;&gt;α</title>
<path fill="none" stroke="black" d="M99,-239.88C99,-221.04 99,-190.47 99,-168.3"/>
<polygon fill="black" stroke="black" points="102.5,-168.19 99,-158.19 95.5,-168.19 102.5,-168.19"/>
</g>
<!-- μ_β -->
<g id="node3" class="node">
<title>μ_β</title>
<ellipse fill="white" stroke="black" cx="171" cy="-258" rx="27" ry="18"/>
<text text-anchor="middle" x="171" y="-254.3" font-family="Times,serif" font-size="14.00">μ_β</text>
</g>
<!-- β -->
<g id="node7" class="node">
<title>β</title>
<ellipse fill="white" stroke="black" cx="171" cy="-140" rx="27" ry="18"/>
<text text-anchor="middle" x="171" y="-136.3" font-family="Times,serif" font-size="14.00">β</text>
</g>
<!-- μ_β&#45;&gt;β -->
<g id="edge3" class="edge">
<title>μ_β&#45;&gt;β</title>
<path fill="none" stroke="black" d="M171,-239.88C171,-221.04 171,-190.47 171,-168.3"/>
<polygon fill="black" stroke="black" points="174.5,-168.19 171,-158.19 167.5,-168.19 174.5,-168.19"/>
</g>
<!-- σ_β -->
<g id="node4" class="node">
<title>σ_β</title>
<ellipse fill="white" stroke="black" cx="243" cy="-258" rx="27" ry="18"/>
<text text-anchor="middle" x="243" y="-254.3" font-family="Times,serif" font-size="14.00">σ_β</text>
</g>
<!-- σ_β&#45;&gt;β -->
<g id="edge4" class="edge">
<title>σ_β&#45;&gt;β</title>
<path fill="none" stroke="black" d="M234.17,-240.74C227.08,-227.9 216.74,-209.6 207,-194 200.99,-184.37 194.06,-174.01 187.89,-165.01"/>
<polygon fill="black" stroke="black" points="190.61,-162.79 182.04,-156.56 184.85,-166.77 190.61,-162.79"/>
</g>
<!-- σ -->
<g id="node5" class="node">
<title>σ</title>
<ellipse fill="white" stroke="black" cx="243" cy="-140" rx="27" ry="18"/>
<text text-anchor="middle" x="243" y="-136.3" font-family="Times,serif" font-size="14.00">σ</text>
</g>
<!-- fvc -->
<g id="node8" class="node">
<title>fvc</title>
<ellipse fill="grey" stroke="black" cx="171" cy="-57" rx="27" ry="18"/>
<text text-anchor="middle" x="171" y="-53.3" font-family="Times,serif" font-size="14.00">fvc</text>
</g>
<!-- σ&#45;&gt;fvc -->
<g id="edge7" class="edge">
<title>σ&#45;&gt;fvc</title>
<path fill="none" stroke="black" d="M233.58,-123.09C227.45,-113.35 218.96,-100.9 210,-91 205.81,-86.37 200.97,-81.78 196.15,-77.57"/>
<polygon fill="black" stroke="black" points="198.11,-74.64 188.2,-70.9 193.61,-80.01 198.11,-74.64"/>
</g>
<!-- α&#45;&gt;fvc -->
<g id="edge5" class="edge">
<title>α&#45;&gt;fvc</title>
<path fill="none" stroke="black" d="M109.66,-123.3C116.48,-113.63 125.77,-101.19 135,-91 138.84,-86.76 143.16,-82.46 147.44,-78.43"/>
<polygon fill="black" stroke="black" points="149.96,-80.86 154.98,-71.53 145.24,-75.7 149.96,-80.86"/>
</g>
<!-- β&#45;&gt;fvc -->
<g id="edge6" class="edge">
<title>β&#45;&gt;fvc</title>
<path fill="none" stroke="black" d="M171,-121.82C171,-111.19 171,-97.31 171,-85.2"/>
<polygon fill="black" stroke="black" points="174.5,-85.15 171,-75.15 167.5,-85.15 174.5,-85.15"/>
</g>
<!-- distribution_description_node -->
<g id="node9" class="node">
<title>distribution_description_node</title>
<text text-anchor="start" x="296.5" y="-306.8" font-family="Times,serif" font-size="14.00">μ_α ~ Normal</text>
<text text-anchor="start" x="296.5" y="-291.8" font-family="Times,serif" font-size="14.00">σ_α ~ HalfNormal</text>
<text text-anchor="start" x="296.5" y="-276.8" font-family="Times,serif" font-size="14.00">μ_β ~ Normal</text>
<text text-anchor="start" x="296.5" y="-261.8" font-family="Times,serif" font-size="14.00">σ_β ~ HalfNormal</text>
<text text-anchor="start" x="296.5" y="-246.8" font-family="Times,serif" font-size="14.00">α ~ Normal</text>
<text text-anchor="start" x="296.5" y="-231.8" font-family="Times,serif" font-size="14.00">β ~ Normal</text>
<text text-anchor="start" x="296.5" y="-216.8" font-family="Times,serif" font-size="14.00">σ ~ HalfNormal</text>
<text text-anchor="start" x="296.5" y="-201.8" font-family="Times,serif" font-size="14.00">fvc ~ Normal</text>
</g>
</g>
</svg>
