<?xml version="1.0" encoding="utf-8" standalone="no"?>
<!DOCTYPE svg PUBLIC "-//W3C//DTD SVG 1.1//EN"
  "http://www.w3.org/Graphics/SVG/1.1/DTD/svg11.dtd">
<svg xmlns:xlink="http://www.w3.org/1999/xlink" width="393.009931pt" height="174.742432pt" viewBox="0 0 393.009931 174.742432" xmlns="http://www.w3.org/2000/svg" version="1.1">
 <metadata>
  <rdf:RDF xmlns:dc="http://purl.org/dc/elements/1.1/" xmlns:cc="http://creativecommons.org/ns#" xmlns:rdf="http://www.w3.org/1999/02/22-rdf-syntax-ns#">
   <cc:Work>
    <dc:type rdf:resource="http://purl.org/dc/dcmitype/StillImage"/>
    <dc:date>2023-06-30T09:30:32.966943</dc:date>
    <dc:format>image/svg+xml</dc:format>
    <dc:creator>
     <cc:Agent>
      <dc:title>Matplotlib v3.5.1, https://matplotlib.org/</dc:title>
     </cc:Agent>
    </dc:creator>
   </cc:Work>
  </rdf:RDF>
 </metadata>
 <defs>
  <style type="text/css">*{stroke-linejoin: round; stroke-linecap: butt}</style>
 </defs>
 <g id="figure_1">
  <g id="patch_1">
   <path d="M 0 174.742432 
L 393.009931 174.742432 
L 393.009931 0 
L 0 0 
L 0 174.742432 
z
" style="fill: none"/>
  </g>
  <g id="axes_1">
   <g id="patch_2">
    <path d="M 23.165938 160.387745 
L 391.929931 160.387745 
L 391.929931 1.257441 
L 23.165938 1.257441 
L 23.165938 160.387745 
z
" style="fill: none"/>
   </g>
   <g id="matplotlib.axis_1">
    <g id="xtick_1">
     <g id="line2d_1">
      <defs>
       <path id="m730617c242" d="M 0 0 
L 0 3 
" style="stroke: #37414a; stroke-width: 0.5"/>
      </defs>
      <g>
       <use xlink:href="#m730617c242" x="28.753271" y="160.387745" style="fill: #37414a; stroke: #37414a; stroke-width: 0.5"/>
      </g>
     </g>
     <g id="text_1">
      <!-- 0 -->
      <g style="fill: #37414a" transform="translate(26.526396 172.206651)scale(0.07 -0.07)">
       <defs>
        <path id="DejaVuSans-ExtraLight-30" d="M 2016 4494 
Q 1444 4494 1166 3938 
Q 888 3378 888 2328 
Q 888 1278 1166 719 
Q 1444 163 2016 163 
Q 2606 163 2884 719 
Q 3163 1278 3163 2328 
Q 3163 3378 2884 3938 
Q 2606 4494 2016 4494 
z
M 2016 4750 
Q 2691 4750 3084 4200 
Q 3478 3647 3478 2328 
Q 3478 1009 3084 456 
Q 2691 -94 2016 -94 
Q 1359 -94 966 456 
Q 572 1009 572 2328 
Q 572 3647 966 4200 
Q 1359 4750 2016 4750 
z
" transform="scale(0.015625)"/>
       </defs>
       <use xlink:href="#DejaVuSans-ExtraLight-30"/>
      </g>
     </g>
    </g>
    <g id="xtick_2">
     <g id="line2d_2">
      <g>
       <use xlink:href="#m730617c242" x="39.927937" y="160.387745" style="fill: #37414a; stroke: #37414a; stroke-width: 0.5"/>
      </g>
     </g>
     <g id="text_2">
      <!-- 1 -->
      <g style="fill: #37414a" transform="translate(37.701062 172.206651)scale(0.07 -0.07)">
       <defs>
        <path id="DejaVuSans-ExtraLight-31" d="M 950 256 
L 1981 256 
L 1981 4378 
L 703 3866 
L 703 4153 
L 1975 4666 
L 2294 4666 
L 2294 256 
L 3325 256 
L 3325 0 
L 950 0 
L 950 256 
z
" transform="scale(0.015625)"/>
       </defs>
       <use xlink:href="#DejaVuSans-ExtraLight-31"/>
      </g>
     </g>
    </g>
    <g id="xtick_3">
     <g id="line2d_3">
      <g>
       <use xlink:href="#m730617c242" x="51.102604" y="160.387745" style="fill: #37414a; stroke: #37414a; stroke-width: 0.5"/>
      </g>
     </g>
     <g id="text_3">
      <!-- 2 -->
      <g style="fill: #37414a" transform="translate(48.875729 172.206651)scale(0.07 -0.07)">
       <defs>
        <path id="DejaVuSans-ExtraLight-32" d="M 769 253 
L 3431 253 
L 3431 0 
L 444 0 
L 444 328 
L 1606 1538 
Q 2038 1975 2388 2347 
Q 2713 2694 2822 2884 
Q 2931 3075 2931 3388 
Q 2931 3928 2600 4256 
Q 2359 4494 1825 4494 
Q 1513 4494 1106 4313 
Q 928 4231 500 3953 
L 500 4284 
Q 681 4413 1031 4569 
Q 1428 4747 1819 4750 
Q 2422 4750 2828 4441 
Q 3225 4131 3225 3419 
Q 3225 3131 3119 2875 
Q 2994 2575 2725 2266 
Q 2647 2175 2228 1744 
L 769 253 
z
" transform="scale(0.015625)"/>
       </defs>
       <use xlink:href="#DejaVuSans-ExtraLight-32"/>
      </g>
     </g>
    </g>
    <g id="xtick_4">
     <g id="line2d_4">
      <g>
       <use xlink:href="#m730617c242" x="62.27727" y="160.387745" style="fill: #37414a; stroke: #37414a; stroke-width: 0.5"/>
      </g>
     </g>
     <g id="text_4">
      <!-- 3 -->
      <g style="fill: #37414a" transform="translate(60.050395 172.206651)scale(0.07 -0.07)">
       <defs>
        <path id="DejaVuSans-ExtraLight-33" d="M 2597 2516 
Q 2972 2425 3188 2113 
Q 3400 1806 3400 1356 
Q 3400 666 3003 287 
Q 2606 -91 1734 -91 
Q 1441 -91 1131 0 
Q 819 94 488 288 
L 488 628 
Q 750 400 1063 281 
Q 1375 166 1700 166 
Q 2375 166 2731 472 
Q 3084 775 3084 1356 
Q 3084 1831 2756 2097 
Q 2425 2366 1838 2366 
L 1294 2366 
L 1294 2628 
L 1863 2628 
Q 2403 2628 2688 2844 
Q 2975 3063 2975 3475 
Q 2975 3963 2681 4225 
Q 2384 4488 1834 4488 
Q 1578 4488 1281 4397 
Q 984 4306 628 4116 
L 628 4441 
Q 988 4594 1300 4666 
Q 1616 4744 1894 4750 
Q 2609 4750 2950 4425 
Q 3294 4097 3294 3541 
Q 3294 3169 3113 2888 
Q 2938 2616 2597 2516 
z
" transform="scale(0.015625)"/>
       </defs>
       <use xlink:href="#DejaVuSans-ExtraLight-33"/>
      </g>
     </g>
    </g>
    <g id="xtick_5">
     <g id="line2d_5">
      <g>
       <use xlink:href="#m730617c242" x="73.451937" y="160.387745" style="fill: #37414a; stroke: #37414a; stroke-width: 0.5"/>
      </g>
     </g>
     <g id="text_5">
      <!-- 4 -->
      <g style="fill: #37414a" transform="translate(71.225062 172.206651)scale(0.07 -0.07)">
       <defs>
        <path id="DejaVuSans-ExtraLight-34" d="M 2575 4494 
L 638 1488 
L 2575 1488 
L 2575 4494 
z
M 2331 4666 
L 2894 4666 
L 2894 1488 
L 3559 1488 
L 3559 1238 
L 2894 1238 
L 2894 0 
L 2575 0 
L 2575 1238 
L 313 1238 
L 313 1563 
L 2331 4666 
z
" transform="scale(0.015625)"/>
       </defs>
       <use xlink:href="#DejaVuSans-ExtraLight-34"/>
      </g>
     </g>
    </g>
    <g id="xtick_6">
     <g id="line2d_6">
      <g>
       <use xlink:href="#m730617c242" x="84.626603" y="160.387745" style="fill: #37414a; stroke: #37414a; stroke-width: 0.5"/>
      </g>
     </g>
     <g id="text_6">
      <!-- 5 -->
      <g style="fill: #37414a" transform="translate(82.399728 172.206651)scale(0.07 -0.07)">
       <defs>
        <path id="DejaVuSans-ExtraLight-35" d="M 816 4666 
L 3031 4666 
L 3031 4413 
L 1131 4413 
L 1131 2847 
Q 1269 2897 1406 2925 
Q 1544 2950 1809 2950 
Q 2525 2950 2944 2556 
Q 3359 2166 3359 1497 
Q 3359 744 2931 325 
Q 2503 -91 1722 -91 
Q 1463 -91 1191 -47 
Q 922 -3 631 84 
L 631 403 
Q 875 288 1138 228 
Q 1397 172 1688 172 
Q 2313 172 2681 528 
Q 3050 884 3050 1497 
Q 3050 2050 2691 2372 
Q 2328 2697 1709 2697 
Q 1581 2697 1331 2628 
Q 1078 2563 816 2422 
L 816 4666 
z
" transform="scale(0.015625)"/>
       </defs>
       <use xlink:href="#DejaVuSans-ExtraLight-35"/>
      </g>
     </g>
    </g>
    <g id="xtick_7">
     <g id="line2d_7">
      <g>
       <use xlink:href="#m730617c242" x="95.80127" y="160.387745" style="fill: #37414a; stroke: #37414a; stroke-width: 0.5"/>
      </g>
     </g>
     <g id="text_7">
      <!-- 6 -->
      <g style="fill: #37414a" transform="translate(93.574395 172.206651)scale(0.07 -0.07)">
       <defs>
        <path id="DejaVuSans-ExtraLight-36" d="M 2900 2365 
Q 2609 2706 2112 2706 
Q 1616 2706 1325 2365 
Q 1034 2025 1034 1434 
Q 1034 844 1325 503 
Q 1616 163 2112 163 
Q 2609 163 2900 503 
Q 3191 844 3191 1434 
Q 3191 2025 2900 2365 
z
M 3278 4563 
L 3278 4231 
Q 3059 4363 2841 4431 
Q 2619 4500 2403 4500 
Q 1472 4500 1100 3584 
Q 931 3169 944 2175 
Q 1103 2519 1347 2713 
Q 1663 2966 2150 2966 
Q 2738 2966 3128 2550 
Q 3516 2138 3516 1497 
Q 3516 778 3134 343 
Q 2753 -91 2141 -91 
Q 1400 -91 1009 531 
Q 622 1150 622 2328 
Q 622 3584 1100 4169 
Q 1575 4750 2381 4750 
Q 2597 4750 2819 4703 
Q 3038 4656 3278 4563 
z
" transform="scale(0.015625)"/>
       </defs>
       <use xlink:href="#DejaVuSans-ExtraLight-36"/>
      </g>
     </g>
    </g>
    <g id="xtick_8">
     <g id="line2d_8">
      <g>
       <use xlink:href="#m730617c242" x="106.975936" y="160.387745" style="fill: #37414a; stroke: #37414a; stroke-width: 0.5"/>
      </g>
     </g>
     <g id="text_8">
      <!-- 7 -->
      <g style="fill: #37414a" transform="translate(104.749061 172.206651)scale(0.07 -0.07)">
       <defs>
        <path id="DejaVuSans-ExtraLight-37" d="M 525 4666 
L 3363 4666 
L 3363 4397 
L 1669 0 
L 1338 0 
L 3034 4409 
L 525 4409 
L 525 4666 
z
" transform="scale(0.015625)"/>
       </defs>
       <use xlink:href="#DejaVuSans-ExtraLight-37"/>
      </g>
     </g>
    </g>
    <g id="xtick_9">
     <g id="line2d_9">
      <g>
       <use xlink:href="#m730617c242" x="118.150602" y="160.387745" style="fill: #37414a; stroke: #37414a; stroke-width: 0.5"/>
      </g>
     </g>
     <g id="text_9">
      <!-- 8 -->
      <g style="fill: #37414a" transform="translate(115.923727 172.206651)scale(0.07 -0.07)">
       <defs>
        <path id="DejaVuSans-ExtraLight-38" d="M 2034 2325 
Q 1513 2325 1213 2038 
Q 916 1747 916 1240 
Q 916 734 1213 447 
Q 1513 156 2034 156 
Q 2556 156 2856 447 
Q 3159 738 3159 1241 
Q 3159 1747 2859 2038 
Q 2559 2325 2034 2325 
z
M 1403 2484 
Q 1100 2597 906 2863 
Q 703 3141 703 3541 
Q 703 4100 1059 4425 
Q 1416 4750 2034 4750 
Q 2656 4750 3009 4425 
Q 3366 4100 3366 3541 
Q 3366 3125 3163 2863 
Q 2953 2591 2669 2484 
Q 3019 2369 3238 2069 
Q 3466 1759 3466 1313 
Q 3466 634 3097 272 
Q 2725 -91 2034 -91 
Q 1344 -91 972 272 
Q 603 634 603 1313 
Q 603 1759 831 2069 
Q 1084 2378 1403 2484 
z
M 1287 4241 
Q 1022 3988 1022 3534 
Q 1022 3081 1287 2828 
Q 1553 2575 2034 2575 
Q 2509 2575 2781 2828 
Q 3050 3081 3050 3534 
Q 3050 3988 2781 4241 
Q 2509 4494 2034 4494 
Q 1553 4494 1287 4241 
z
" transform="scale(0.015625)"/>
       </defs>
       <use xlink:href="#DejaVuSans-ExtraLight-38"/>
      </g>
     </g>
    </g>
    <g id="xtick_10">
     <g id="line2d_10">
      <g>
       <use xlink:href="#m730617c242" x="129.325269" y="160.387745" style="fill: #37414a; stroke: #37414a; stroke-width: 0.5"/>
      </g>
     </g>
     <g id="text_10">
      <!-- 9 -->
      <g style="fill: #37414a" transform="translate(127.098394 172.206651)scale(0.07 -0.07)">
       <defs>
        <path id="DejaVuSans-ExtraLight-39" d="M 859 97 
L 859 428 
Q 1078 297 1297 228 
Q 1519 159 1734 159 
Q 2666 159 3038 1075 
Q 3206 1491 3194 2484 
Q 3034 2141 2791 1947 
Q 2475 1694 1988 1694 
Q 1400 1694 1009 2109 
Q 622 2522 622 3163 
Q 622 3881 1003 4316 
Q 1388 4750 1997 4750 
Q 2738 4750 3128 4131 
Q 3516 3509 3516 2331 
Q 3516 1075 3041 494 
Q 2563 -91 1756 -91 
Q 1541 -91 1319 -44 
Q 1100 3 859 97 
z
M 1237 2293 
Q 1528 1953 2025 1953 
Q 2522 1953 2812 2293 
Q 3103 2634 3103 3225 
Q 3103 3816 2812 4156 
Q 2522 4497 2025 4497 
Q 1528 4497 1237 4156 
Q 947 3816 947 3225 
Q 947 2634 1237 2293 
z
" transform="scale(0.015625)"/>
       </defs>
       <use xlink:href="#DejaVuSans-ExtraLight-39"/>
      </g>
     </g>
    </g>
    <g id="xtick_11">
     <g id="line2d_11">
      <g>
       <use xlink:href="#m730617c242" x="140.499935" y="160.387745" style="fill: #37414a; stroke: #37414a; stroke-width: 0.5"/>
      </g>
     </g>
     <g id="text_11">
      <!-- 10 -->
      <g style="fill: #37414a" transform="translate(136.046185 172.206651)scale(0.07 -0.07)">
       <use xlink:href="#DejaVuSans-ExtraLight-31"/>
       <use xlink:href="#DejaVuSans-ExtraLight-30" x="63.623047"/>
      </g>
     </g>
    </g>
    <g id="xtick_12">
     <g id="line2d_12">
      <g>
       <use xlink:href="#m730617c242" x="151.674602" y="160.387745" style="fill: #37414a; stroke: #37414a; stroke-width: 0.5"/>
      </g>
     </g>
     <g id="text_12">
      <!-- 11 -->
      <g style="fill: #37414a" transform="translate(147.220852 172.206651)scale(0.07 -0.07)">
       <use xlink:href="#DejaVuSans-ExtraLight-31"/>
       <use xlink:href="#DejaVuSans-ExtraLight-31" x="63.623047"/>
      </g>
     </g>
    </g>
    <g id="xtick_13">
     <g id="line2d_13">
      <g>
       <use xlink:href="#m730617c242" x="162.849268" y="160.387745" style="fill: #37414a; stroke: #37414a; stroke-width: 0.5"/>
      </g>
     </g>
     <g id="text_13">
      <!-- 12 -->
      <g style="fill: #37414a" transform="translate(158.395518 172.206651)scale(0.07 -0.07)">
       <use xlink:href="#DejaVuSans-ExtraLight-31"/>
       <use xlink:href="#DejaVuSans-ExtraLight-32" x="63.623047"/>
      </g>
     </g>
    </g>
    <g id="xtick_14">
     <g id="line2d_14">
      <g>
       <use xlink:href="#m730617c242" x="174.023935" y="160.387745" style="fill: #37414a; stroke: #37414a; stroke-width: 0.5"/>
      </g>
     </g>
     <g id="text_14">
      <!-- 13 -->
      <g style="fill: #37414a" transform="translate(169.570185 172.206651)scale(0.07 -0.07)">
       <use xlink:href="#DejaVuSans-ExtraLight-31"/>
       <use xlink:href="#DejaVuSans-ExtraLight-33" x="63.623047"/>
      </g>
     </g>
    </g>
    <g id="xtick_15">
     <g id="line2d_15">
      <g>
       <use xlink:href="#m730617c242" x="185.198601" y="160.387745" style="fill: #37414a; stroke: #37414a; stroke-width: 0.5"/>
      </g>
     </g>
     <g id="text_15">
      <!-- 14 -->
      <g style="fill: #37414a" transform="translate(180.744851 172.206651)scale(0.07 -0.07)">
       <use xlink:href="#DejaVuSans-ExtraLight-31"/>
       <use xlink:href="#DejaVuSans-ExtraLight-34" x="63.623047"/>
      </g>
     </g>
    </g>
    <g id="xtick_16">
     <g id="line2d_16">
      <g>
       <use xlink:href="#m730617c242" x="196.373268" y="160.387745" style="fill: #37414a; stroke: #37414a; stroke-width: 0.5"/>
      </g>
     </g>
     <g id="text_16">
      <!-- 15 -->
      <g style="fill: #37414a" transform="translate(191.919518 172.206651)scale(0.07 -0.07)">
       <use xlink:href="#DejaVuSans-ExtraLight-31"/>
       <use xlink:href="#DejaVuSans-ExtraLight-35" x="63.623047"/>
      </g>
     </g>
    </g>
    <g id="xtick_17">
     <g id="line2d_17">
      <g>
       <use xlink:href="#m730617c242" x="207.547934" y="160.387745" style="fill: #37414a; stroke: #37414a; stroke-width: 0.5"/>
      </g>
     </g>
     <g id="text_17">
      <!-- 16 -->
      <g style="fill: #37414a" transform="translate(203.094184 172.206651)scale(0.07 -0.07)">
       <use xlink:href="#DejaVuSans-ExtraLight-31"/>
       <use xlink:href="#DejaVuSans-ExtraLight-36" x="63.623047"/>
      </g>
     </g>
    </g>
    <g id="xtick_18">
     <g id="line2d_18">
      <g>
       <use xlink:href="#m730617c242" x="218.722601" y="160.387745" style="fill: #37414a; stroke: #37414a; stroke-width: 0.5"/>
      </g>
     </g>
     <g id="text_18">
      <!-- 17 -->
      <g style="fill: #37414a" transform="translate(214.268851 172.206651)scale(0.07 -0.07)">
       <use xlink:href="#DejaVuSans-ExtraLight-31"/>
       <use xlink:href="#DejaVuSans-ExtraLight-37" x="63.623047"/>
      </g>
     </g>
    </g>
    <g id="xtick_19">
     <g id="line2d_19">
      <g>
       <use xlink:href="#m730617c242" x="229.897267" y="160.387745" style="fill: #37414a; stroke: #37414a; stroke-width: 0.5"/>
      </g>
     </g>
     <g id="text_19">
      <!-- 18 -->
      <g style="fill: #37414a" transform="translate(225.443517 172.206651)scale(0.07 -0.07)">
       <use xlink:href="#DejaVuSans-ExtraLight-31"/>
       <use xlink:href="#DejaVuSans-ExtraLight-38" x="63.623047"/>
      </g>
     </g>
    </g>
    <g id="xtick_20">
     <g id="line2d_20">
      <g>
       <use xlink:href="#m730617c242" x="241.071934" y="160.387745" style="fill: #37414a; stroke: #37414a; stroke-width: 0.5"/>
      </g>
     </g>
     <g id="text_20">
      <!-- 19 -->
      <g style="fill: #37414a" transform="translate(236.618184 172.206651)scale(0.07 -0.07)">
       <use xlink:href="#DejaVuSans-ExtraLight-31"/>
       <use xlink:href="#DejaVuSans-ExtraLight-39" x="63.623047"/>
      </g>
     </g>
    </g>
    <g id="xtick_21">
     <g id="line2d_21">
      <g>
       <use xlink:href="#m730617c242" x="252.2466" y="160.387745" style="fill: #37414a; stroke: #37414a; stroke-width: 0.5"/>
      </g>
     </g>
     <g id="text_21">
      <!-- 20 -->
      <g style="fill: #37414a" transform="translate(247.79285 172.206651)scale(0.07 -0.07)">
       <use xlink:href="#DejaVuSans-ExtraLight-32"/>
       <use xlink:href="#DejaVuSans-ExtraLight-30" x="63.623047"/>
      </g>
     </g>
    </g>
    <g id="xtick_22">
     <g id="line2d_22">
      <g>
       <use xlink:href="#m730617c242" x="263.421267" y="160.387745" style="fill: #37414a; stroke: #37414a; stroke-width: 0.5"/>
      </g>
     </g>
     <g id="text_22">
      <!-- 21 -->
      <g style="fill: #37414a" transform="translate(258.967517 172.206651)scale(0.07 -0.07)">
       <use xlink:href="#DejaVuSans-ExtraLight-32"/>
       <use xlink:href="#DejaVuSans-ExtraLight-31" x="63.623047"/>
      </g>
     </g>
    </g>
    <g id="xtick_23">
     <g id="line2d_23">
      <g>
       <use xlink:href="#m730617c242" x="274.595933" y="160.387745" style="fill: #37414a; stroke: #37414a; stroke-width: 0.5"/>
      </g>
     </g>
     <g id="text_23">
      <!-- 22 -->
      <g style="fill: #37414a" transform="translate(270.142183 172.206651)scale(0.07 -0.07)">
       <use xlink:href="#DejaVuSans-ExtraLight-32"/>
       <use xlink:href="#DejaVuSans-ExtraLight-32" x="63.623047"/>
      </g>
     </g>
    </g>
    <g id="xtick_24">
     <g id="line2d_24">
      <g>
       <use xlink:href="#m730617c242" x="285.7706" y="160.387745" style="fill: #37414a; stroke: #37414a; stroke-width: 0.5"/>
      </g>
     </g>
     <g id="text_24">
      <!-- 23 -->
      <g style="fill: #37414a" transform="translate(281.31685 172.206651)scale(0.07 -0.07)">
       <use xlink:href="#DejaVuSans-ExtraLight-32"/>
       <use xlink:href="#DejaVuSans-ExtraLight-33" x="63.623047"/>
      </g>
     </g>
    </g>
    <g id="xtick_25">
     <g id="line2d_25">
      <g>
       <use xlink:href="#m730617c242" x="296.945266" y="160.387745" style="fill: #37414a; stroke: #37414a; stroke-width: 0.5"/>
      </g>
     </g>
     <g id="text_25">
      <!-- 24 -->
      <g style="fill: #37414a" transform="translate(292.491516 172.206651)scale(0.07 -0.07)">
       <use xlink:href="#DejaVuSans-ExtraLight-32"/>
       <use xlink:href="#DejaVuSans-ExtraLight-34" x="63.623047"/>
      </g>
     </g>
    </g>
    <g id="xtick_26">
     <g id="line2d_26">
      <g>
       <use xlink:href="#m730617c242" x="308.119932" y="160.387745" style="fill: #37414a; stroke: #37414a; stroke-width: 0.5"/>
      </g>
     </g>
     <g id="text_26">
      <!-- 25 -->
      <g style="fill: #37414a" transform="translate(303.666182 172.206651)scale(0.07 -0.07)">
       <use xlink:href="#DejaVuSans-ExtraLight-32"/>
       <use xlink:href="#DejaVuSans-ExtraLight-35" x="63.623047"/>
      </g>
     </g>
    </g>
    <g id="xtick_27">
     <g id="line2d_27">
      <g>
       <use xlink:href="#m730617c242" x="319.294599" y="160.387745" style="fill: #37414a; stroke: #37414a; stroke-width: 0.5"/>
      </g>
     </g>
     <g id="text_27">
      <!-- 26 -->
      <g style="fill: #37414a" transform="translate(314.840849 172.206651)scale(0.07 -0.07)">
       <use xlink:href="#DejaVuSans-ExtraLight-32"/>
       <use xlink:href="#DejaVuSans-ExtraLight-36" x="63.623047"/>
      </g>
     </g>
    </g>
    <g id="xtick_28">
     <g id="line2d_28">
      <g>
       <use xlink:href="#m730617c242" x="330.469265" y="160.387745" style="fill: #37414a; stroke: #37414a; stroke-width: 0.5"/>
      </g>
     </g>
     <g id="text_28">
      <!-- 27 -->
      <g style="fill: #37414a" transform="translate(326.015515 172.206651)scale(0.07 -0.07)">
       <use xlink:href="#DejaVuSans-ExtraLight-32"/>
       <use xlink:href="#DejaVuSans-ExtraLight-37" x="63.623047"/>
      </g>
     </g>
    </g>
    <g id="xtick_29">
     <g id="line2d_29">
      <g>
       <use xlink:href="#m730617c242" x="341.643932" y="160.387745" style="fill: #37414a; stroke: #37414a; stroke-width: 0.5"/>
      </g>
     </g>
     <g id="text_29">
      <!-- 28 -->
      <g style="fill: #37414a" transform="translate(337.190182 172.206651)scale(0.07 -0.07)">
       <use xlink:href="#DejaVuSans-ExtraLight-32"/>
       <use xlink:href="#DejaVuSans-ExtraLight-38" x="63.623047"/>
      </g>
     </g>
    </g>
    <g id="xtick_30">
     <g id="line2d_30">
      <g>
       <use xlink:href="#m730617c242" x="352.818598" y="160.387745" style="fill: #37414a; stroke: #37414a; stroke-width: 0.5"/>
      </g>
     </g>
     <g id="text_30">
      <!-- 29 -->
      <g style="fill: #37414a" transform="translate(348.364848 172.206651)scale(0.07 -0.07)">
       <use xlink:href="#DejaVuSans-ExtraLight-32"/>
       <use xlink:href="#DejaVuSans-ExtraLight-39" x="63.623047"/>
      </g>
     </g>
    </g>
    <g id="xtick_31">
     <g id="line2d_31">
      <g>
       <use xlink:href="#m730617c242" x="363.993265" y="160.387745" style="fill: #37414a; stroke: #37414a; stroke-width: 0.5"/>
      </g>
     </g>
     <g id="text_31">
      <!-- 30 -->
      <g style="fill: #37414a" transform="translate(359.539515 172.206651)scale(0.07 -0.07)">
       <use xlink:href="#DejaVuSans-ExtraLight-33"/>
       <use xlink:href="#DejaVuSans-ExtraLight-30" x="63.623047"/>
      </g>
     </g>
    </g>
    <g id="xtick_32">
     <g id="line2d_32">
      <g>
       <use xlink:href="#m730617c242" x="375.167931" y="160.387745" style="fill: #37414a; stroke: #37414a; stroke-width: 0.5"/>
      </g>
     </g>
     <g id="text_32">
      <!-- 31 -->
      <g style="fill: #37414a" transform="translate(370.714181 172.206651)scale(0.07 -0.07)">
       <use xlink:href="#DejaVuSans-ExtraLight-33"/>
       <use xlink:href="#DejaVuSans-ExtraLight-31" x="63.623047"/>
      </g>
     </g>
    </g>
    <g id="xtick_33">
     <g id="line2d_33">
      <g>
       <use xlink:href="#m730617c242" x="386.342598" y="160.387745" style="fill: #37414a; stroke: #37414a; stroke-width: 0.5"/>
      </g>
     </g>
     <g id="text_33">
      <!-- 32 -->
      <g style="fill: #37414a" transform="translate(381.888848 172.206651)scale(0.07 -0.07)">
       <use xlink:href="#DejaVuSans-ExtraLight-33"/>
       <use xlink:href="#DejaVuSans-ExtraLight-32" x="63.623047"/>
      </g>
     </g>
    </g>
   </g>
   <g id="matplotlib.axis_2">
    <g id="ytick_1">
     <g id="line2d_34">
      <defs>
       <path id="m517fdb10d4" d="M 0 0 
L -3 0 
" style="stroke: #37414a; stroke-width: 0.5"/>
      </defs>
      <g>
       <use xlink:href="#m517fdb10d4" x="23.165938" y="160.387745" style="fill: #37414a; stroke: #37414a; stroke-width: 0.5"/>
      </g>
     </g>
     <g id="text_34">
      <!-- 0.00 -->
      <g style="fill: #37414a" transform="translate(1.08 163.047198)scale(0.07 -0.07)">
       <defs>
        <path id="DejaVuSans-ExtraLight-2e" d="M 856 394 
L 1175 394 
L 1175 0 
L 856 0 
L 856 394 
z
" transform="scale(0.015625)"/>
       </defs>
       <use xlink:href="#DejaVuSans-ExtraLight-30"/>
       <use xlink:href="#DejaVuSans-ExtraLight-2e" x="63.623047"/>
       <use xlink:href="#DejaVuSans-ExtraLight-30" x="95.410156"/>
       <use xlink:href="#DejaVuSans-ExtraLight-30" x="159.033203"/>
      </g>
     </g>
    </g>
    <g id="ytick_2">
     <g id="line2d_35">
      <g>
       <use xlink:href="#m517fdb10d4" x="23.165938" y="138.009417" style="fill: #37414a; stroke: #37414a; stroke-width: 0.5"/>
      </g>
     </g>
     <g id="text_35">
      <!-- 0.05 -->
      <g style="fill: #37414a" transform="translate(1.08 140.66887)scale(0.07 -0.07)">
       <use xlink:href="#DejaVuSans-ExtraLight-30"/>
       <use xlink:href="#DejaVuSans-ExtraLight-2e" x="63.623047"/>
       <use xlink:href="#DejaVuSans-ExtraLight-30" x="95.410156"/>
       <use xlink:href="#DejaVuSans-ExtraLight-35" x="159.033203"/>
      </g>
     </g>
    </g>
    <g id="ytick_3">
     <g id="line2d_36">
      <g>
       <use xlink:href="#m517fdb10d4" x="23.165938" y="115.63109" style="fill: #37414a; stroke: #37414a; stroke-width: 0.5"/>
      </g>
     </g>
     <g id="text_36">
      <!-- 0.10 -->
      <g style="fill: #37414a" transform="translate(1.08 118.290543)scale(0.07 -0.07)">
       <use xlink:href="#DejaVuSans-ExtraLight-30"/>
       <use xlink:href="#DejaVuSans-ExtraLight-2e" x="63.623047"/>
       <use xlink:href="#DejaVuSans-ExtraLight-31" x="95.410156"/>
       <use xlink:href="#DejaVuSans-ExtraLight-30" x="159.033203"/>
      </g>
     </g>
    </g>
    <g id="ytick_4">
     <g id="line2d_37">
      <g>
       <use xlink:href="#m517fdb10d4" x="23.165938" y="93.252763" style="fill: #37414a; stroke: #37414a; stroke-width: 0.5"/>
      </g>
     </g>
     <g id="text_37">
      <!-- 0.15 -->
      <g style="fill: #37414a" transform="translate(1.08 95.912216)scale(0.07 -0.07)">
       <use xlink:href="#DejaVuSans-ExtraLight-30"/>
       <use xlink:href="#DejaVuSans-ExtraLight-2e" x="63.623047"/>
       <use xlink:href="#DejaVuSans-ExtraLight-31" x="95.410156"/>
       <use xlink:href="#DejaVuSans-ExtraLight-35" x="159.033203"/>
      </g>
     </g>
    </g>
    <g id="ytick_5">
     <g id="line2d_38">
      <g>
       <use xlink:href="#m517fdb10d4" x="23.165938" y="70.874435" style="fill: #37414a; stroke: #37414a; stroke-width: 0.5"/>
      </g>
     </g>
     <g id="text_38">
      <!-- 0.20 -->
      <g style="fill: #37414a" transform="translate(1.08 73.533888)scale(0.07 -0.07)">
       <use xlink:href="#DejaVuSans-ExtraLight-30"/>
       <use xlink:href="#DejaVuSans-ExtraLight-2e" x="63.623047"/>
       <use xlink:href="#DejaVuSans-ExtraLight-32" x="95.410156"/>
       <use xlink:href="#DejaVuSans-ExtraLight-30" x="159.033203"/>
      </g>
     </g>
    </g>
    <g id="ytick_6">
     <g id="line2d_39">
      <g>
       <use xlink:href="#m517fdb10d4" x="23.165938" y="48.496108" style="fill: #37414a; stroke: #37414a; stroke-width: 0.5"/>
      </g>
     </g>
     <g id="text_39">
      <!-- 0.25 -->
      <g style="fill: #37414a" transform="translate(1.08 51.155561)scale(0.07 -0.07)">
       <use xlink:href="#DejaVuSans-ExtraLight-30"/>
       <use xlink:href="#DejaVuSans-ExtraLight-2e" x="63.623047"/>
       <use xlink:href="#DejaVuSans-ExtraLight-32" x="95.410156"/>
       <use xlink:href="#DejaVuSans-ExtraLight-35" x="159.033203"/>
      </g>
     </g>
    </g>
    <g id="ytick_7">
     <g id="line2d_40">
      <g>
       <use xlink:href="#m517fdb10d4" x="23.165938" y="26.11778" style="fill: #37414a; stroke: #37414a; stroke-width: 0.5"/>
      </g>
     </g>
     <g id="text_40">
      <!-- 0.30 -->
      <g style="fill: #37414a" transform="translate(1.08 28.777234)scale(0.07 -0.07)">
       <use xlink:href="#DejaVuSans-ExtraLight-30"/>
       <use xlink:href="#DejaVuSans-ExtraLight-2e" x="63.623047"/>
       <use xlink:href="#DejaVuSans-ExtraLight-33" x="95.410156"/>
       <use xlink:href="#DejaVuSans-ExtraLight-30" x="159.033203"/>
      </g>
     </g>
    </g>
    <g id="ytick_8">
     <g id="line2d_41">
      <g>
       <use xlink:href="#m517fdb10d4" x="23.165938" y="3.739453" style="fill: #37414a; stroke: #37414a; stroke-width: 0.5"/>
      </g>
     </g>
     <g id="text_41">
      <!-- 0.35 -->
      <g style="fill: #37414a" transform="translate(1.08 6.398906)scale(0.07 -0.07)">
       <use xlink:href="#DejaVuSans-ExtraLight-30"/>
       <use xlink:href="#DejaVuSans-ExtraLight-2e" x="63.623047"/>
       <use xlink:href="#DejaVuSans-ExtraLight-33" x="95.410156"/>
       <use xlink:href="#DejaVuSans-ExtraLight-35" x="159.033203"/>
      </g>
     </g>
    </g>
   </g>
   <g id="patch_3">
    <path d="M 25.959604 160.387745 
L 28.753271 160.387745 
L 28.753271 61.747542 
L 25.959604 61.747542 
z
" clip-path="url(#pbd0037c9bc)" style="fill: #8d2d39"/>
   </g>
   <g id="patch_4">
    <path d="M 37.134271 160.387745 
L 39.927937 160.387745 
L 39.927937 91.58094 
L 37.134271 91.58094 
z
" clip-path="url(#pbd0037c9bc)" style="fill: #8d2d39"/>
   </g>
   <g id="patch_5">
    <path d="M 48.308937 160.387745 
L 51.102604 160.387745 
L 51.102604 65.604648 
L 48.308937 65.604648 
z
" clip-path="url(#pbd0037c9bc)" style="fill: #8d2d39"/>
   </g>
   <g id="patch_6">
    <path d="M 59.483604 160.387745 
L 62.27727 160.387745 
L 62.27727 64.971731 
L 59.483604 64.971731 
z
" clip-path="url(#pbd0037c9bc)" style="fill: #8d2d39"/>
   </g>
   <g id="patch_7">
    <path d="M 70.65827 160.387745 
L 73.451937 160.387745 
L 73.451937 71.433222 
L 70.65827 71.433222 
z
" clip-path="url(#pbd0037c9bc)" style="fill: #8d2d39"/>
   </g>
   <g id="patch_8">
    <path d="M 81.832936 160.387745 
L 84.626603 160.387745 
L 84.626603 68.136093 
L 81.832936 68.136093 
z
" clip-path="url(#pbd0037c9bc)" style="fill: #8d2d39"/>
   </g>
   <g id="patch_9">
    <path d="M 93.007603 160.387745 
L 95.80127 160.387745 
L 95.80127 77.584169 
L 93.007603 77.584169 
z
" clip-path="url(#pbd0037c9bc)" style="fill: #8d2d39"/>
   </g>
   <g id="patch_10">
    <path d="M 104.182269 160.387745 
L 106.975936 160.387745 
L 106.975936 65.431422 
L 104.182269 65.431422 
z
" clip-path="url(#pbd0037c9bc)" style="fill: #8d2d39"/>
   </g>
   <g id="patch_11">
    <path d="M 115.356936 160.387745 
L 118.150602 160.387745 
L 118.150602 73.022983 
L 115.356936 73.022983 
z
" clip-path="url(#pbd0037c9bc)" style="fill: #8d2d39"/>
   </g>
   <g id="patch_12">
    <path d="M 126.531602 160.387745 
L 129.325269 160.387745 
L 129.325269 78.661417 
L 126.531602 78.661417 
z
" clip-path="url(#pbd0037c9bc)" style="fill: #8d2d39"/>
   </g>
   <g id="patch_13">
    <path d="M 137.706269 160.387745 
L 140.499935 160.387745 
L 140.499935 59.05691 
L 137.706269 59.05691 
z
" clip-path="url(#pbd0037c9bc)" style="fill: #8d2d39"/>
   </g>
   <g id="patch_14">
    <path d="M 148.880935 160.387745 
L 151.674602 160.387745 
L 151.674602 82.007353 
L 148.880935 82.007353 
z
" clip-path="url(#pbd0037c9bc)" style="fill: #8d2d39"/>
   </g>
   <g id="patch_15">
    <path d="M 160.055602 160.387745 
L 162.849268 160.387745 
L 162.849268 72.536415 
L 160.055602 72.536415 
z
" clip-path="url(#pbd0037c9bc)" style="fill: #8d2d39"/>
   </g>
   <g id="patch_16">
    <path d="M 171.230268 160.387745 
L 174.023935 160.387745 
L 174.023935 70.57423 
L 171.230268 70.57423 
z
" clip-path="url(#pbd0037c9bc)" style="fill: #8d2d39"/>
   </g>
   <g id="patch_17">
    <path d="M 182.404935 160.387745 
L 185.198601 160.387745 
L 185.198601 74.7878 
L 182.404935 74.7878 
z
" clip-path="url(#pbd0037c9bc)" style="fill: #8d2d39"/>
   </g>
   <g id="patch_18">
    <path d="M 193.579601 160.387745 
L 196.373268 160.387745 
L 196.373268 79.023839 
L 193.579601 79.023839 
z
" clip-path="url(#pbd0037c9bc)" style="fill: #8d2d39"/>
   </g>
   <g id="patch_19">
    <path d="M 204.754268 160.387745 
L 207.547934 160.387745 
L 207.547934 70.14035 
L 204.754268 70.14035 
z
" clip-path="url(#pbd0037c9bc)" style="fill: #8d2d39"/>
   </g>
   <g id="patch_20">
    <path d="M 215.928934 160.387745 
L 218.722601 160.387745 
L 218.722601 65.314043 
L 215.928934 65.314043 
L 215.928934 160.387745 
z
" clip-path="url(#pbd0037c9bc)" style="fill: none; stroke: #ff0000; stroke-width: 4; stroke-linejoin: miter"/>
   </g>
   <g id="patch_21">
    <path d="M 227.103601 160.387745 
L 229.897267 160.387745 
L 229.897267 83.925207 
L 227.103601 83.925207 
z
" clip-path="url(#pbd0037c9bc)" style="fill: #8d2d39"/>
   </g>
   <g id="patch_22">
    <path d="M 238.278267 160.387745 
L 241.071934 160.387745 
L 241.071934 70.663488 
L 238.278267 70.663488 
z
" clip-path="url(#pbd0037c9bc)" style="fill: #8d2d39"/>
   </g>
   <g id="patch_23">
    <path d="M 249.452933 160.387745 
L 252.2466 160.387745 
L 252.2466 81.15533 
L 249.452933 81.15533 
z
" clip-path="url(#pbd0037c9bc)" style="fill: #8d2d39"/>
   </g>
   <g id="patch_24">
    <path d="M 260.6276 160.387745 
L 263.421267 160.387745 
L 263.421267 81.967444 
L 260.6276 81.967444 
z
" clip-path="url(#pbd0037c9bc)" style="fill: #8d2d39"/>
   </g>
   <g id="patch_25">
    <path d="M 271.802266 160.387745 
L 274.595933 160.387745 
L 274.595933 82.99413 
L 271.802266 82.99413 
z
" clip-path="url(#pbd0037c9bc)" style="fill: #8d2d39"/>
   </g>
   <g id="patch_26">
    <path d="M 282.976933 160.387745 
L 285.7706 160.387745 
L 285.7706 36.384219 
L 282.976933 36.384219 
z
" clip-path="url(#pbd0037c9bc)" style="fill: #8d2d39"/>
   </g>
   <g id="patch_27">
    <path d="M 294.151599 160.387745 
L 296.945266 160.387745 
L 296.945266 72.837091 
L 294.151599 72.837091 
z
" clip-path="url(#pbd0037c9bc)" style="fill: #8d2d39"/>
   </g>
   <g id="patch_28">
    <path d="M 305.326266 160.387745 
L 308.119932 160.387745 
L 308.119932 79.460149 
L 305.326266 79.460149 
z
" clip-path="url(#pbd0037c9bc)" style="fill: #8d2d39"/>
   </g>
   <g id="patch_29">
    <path d="M 316.500932 160.387745 
L 319.294599 160.387745 
L 319.294599 68.463197 
L 316.500932 68.463197 
z
" clip-path="url(#pbd0037c9bc)" style="fill: #8d2d39"/>
   </g>
   <g id="patch_30">
    <path d="M 327.675599 160.387745 
L 330.469265 160.387745 
L 330.469265 77.280339 
L 327.675599 77.280339 
z
" clip-path="url(#pbd0037c9bc)" style="fill: #8d2d39"/>
   </g>
   <g id="patch_31">
    <path d="M 338.850265 160.387745 
L 341.643932 160.387745 
L 341.643932 67.212482 
L 338.850265 67.212482 
z
" clip-path="url(#pbd0037c9bc)" style="fill: #8d2d39"/>
   </g>
   <g id="patch_32">
    <path d="M 350.024932 160.387745 
L 352.818598 160.387745 
L 352.818598 89.842243 
L 350.024932 89.842243 
z
" clip-path="url(#pbd0037c9bc)" style="fill: #8d2d39"/>
   </g>
   <g id="patch_33">
    <path d="M 361.199598 160.387745 
L 363.993265 160.387745 
L 363.993265 69.320278 
L 361.199598 69.320278 
z
" clip-path="url(#pbd0037c9bc)" style="fill: #8d2d39"/>
   </g>
   <g id="patch_34">
    <path d="M 372.374265 160.387745 
L 375.167931 160.387745 
L 375.167931 69.459284 
L 372.374265 69.459284 
z
" clip-path="url(#pbd0037c9bc)" style="fill: #8d2d39"/>
   </g>
   <g id="patch_35">
    <path d="M 383.548931 160.387745 
L 386.342598 160.387745 
L 386.342598 60.646909 
L 383.548931 60.646909 
z
" clip-path="url(#pbd0037c9bc)" style="fill: #8d2d39"/>
   </g>
   <g id="patch_36">
    <path d="M 28.753271 160.387745 
L 31.546937 160.387745 
L 31.546937 45.290336 
L 28.753271 45.290336 
z
" clip-path="url(#pbd0037c9bc)" style="fill: #37414a"/>
   </g>
   <g id="patch_37">
    <path d="M 39.927937 160.387745 
L 42.721604 160.387745 
L 42.721604 105.977272 
L 39.927937 105.977272 
z
" clip-path="url(#pbd0037c9bc)" style="fill: #37414a"/>
   </g>
   <g id="patch_38">
    <path d="M 51.102604 160.387745 
L 53.89627 160.387745 
L 53.89627 53.548481 
L 51.102604 53.548481 
z
" clip-path="url(#pbd0037c9bc)" style="fill: #37414a"/>
   </g>
   <g id="patch_39">
    <path d="M 62.27727 160.387745 
L 65.070937 160.387745 
L 65.070937 79.520271 
L 62.27727 79.520271 
z
" clip-path="url(#pbd0037c9bc)" style="fill: #37414a"/>
   </g>
   <g id="patch_40">
    <path d="M 73.451937 160.387745 
L 76.245603 160.387745 
L 76.245603 44.387174 
L 73.451937 44.387174 
z
" clip-path="url(#pbd0037c9bc)" style="fill: #37414a"/>
   </g>
   <g id="patch_41">
    <path d="M 84.626603 160.387745 
L 87.42027 160.387745 
L 87.42027 28.427698 
L 84.626603 28.427698 
z
" clip-path="url(#pbd0037c9bc)" style="fill: #37414a"/>
   </g>
   <g id="patch_42">
    <path d="M 95.80127 160.387745 
L 98.594936 160.387745 
L 98.594936 31.290092 
L 95.80127 31.290092 
z
" clip-path="url(#pbd0037c9bc)" style="fill: #37414a"/>
   </g>
   <g id="patch_43">
    <path d="M 106.975936 160.387745 
L 109.769603 160.387745 
L 109.769603 45.65372 
L 106.975936 45.65372 
z
" clip-path="url(#pbd0037c9bc)" style="fill: #37414a"/>
   </g>
   <g id="patch_44">
    <path d="M 118.150602 160.387745 
L 120.944269 160.387745 
L 120.944269 44.98259 
L 118.150602 44.98259 
z
" clip-path="url(#pbd0037c9bc)" style="fill: #37414a"/>
   </g>
   <g id="patch_45">
    <path d="M 129.325269 160.387745 
L 132.118936 160.387745 
L 132.118936 71.60182 
L 129.325269 71.60182 
z
" clip-path="url(#pbd0037c9bc)" style="fill: #37414a"/>
   </g>
   <g id="patch_46">
    <path d="M 140.499935 160.387745 
L 143.293602 160.387745 
L 143.293602 49.63085 
L 140.499935 49.63085 
z
" clip-path="url(#pbd0037c9bc)" style="fill: #37414a"/>
   </g>
   <g id="patch_47">
    <path d="M 151.674602 160.387745 
L 154.468269 160.387745 
L 154.468269 12.90588 
L 151.674602 12.90588 
z
" clip-path="url(#pbd0037c9bc)" style="fill: #37414a"/>
   </g>
   <g id="patch_48">
    <path d="M 162.849268 160.387745 
L 165.642935 160.387745 
L 165.642935 30.8066 
L 162.849268 30.8066 
z
" clip-path="url(#pbd0037c9bc)" style="fill: #37414a"/>
   </g>
   <g id="patch_49">
    <path d="M 174.023935 160.387745 
L 176.817601 160.387745 
L 176.817601 37.560477 
L 174.023935 37.560477 
z
" clip-path="url(#pbd0037c9bc)" style="fill: #37414a"/>
   </g>
   <g id="patch_50">
    <path d="M 185.198601 160.387745 
L 187.992268 160.387745 
L 187.992268 44.880236 
L 185.198601 44.880236 
z
" clip-path="url(#pbd0037c9bc)" style="fill: #37414a"/>
   </g>
   <g id="patch_51">
    <path d="M 196.373268 160.387745 
L 199.166934 160.387745 
L 199.166934 47.523112 
L 196.373268 47.523112 
z
" clip-path="url(#pbd0037c9bc)" style="fill: #37414a"/>
   </g>
   <g id="patch_52">
    <path d="M 207.547934 160.387745 
L 210.341601 160.387745 
L 210.341601 13.129807 
L 207.547934 13.129807 
z
" clip-path="url(#pbd0037c9bc)" style="fill: #37414a"/>
   </g>
   <g id="patch_53">
    <path d="M 218.722601 160.387745 
L 221.516267 160.387745 
L 221.516267 8.835074 
L 218.722601 8.835074 
z
" clip-path="url(#pbd0037c9bc)" style="fill: #37414a"/>
   </g>
   <g id="patch_54">
    <path d="M 229.897267 160.387745 
L 232.690934 160.387745 
L 232.690934 53.73675 
L 229.897267 53.73675 
z
" clip-path="url(#pbd0037c9bc)" style="fill: #37414a"/>
   </g>
   <g id="patch_55">
    <path d="M 241.071934 160.387745 
L 243.8656 160.387745 
L 243.8656 47.29014 
L 241.071934 47.29014 
z
" clip-path="url(#pbd0037c9bc)" style="fill: #37414a"/>
   </g>
   <g id="patch_56">
    <path d="M 252.2466 160.387745 
L 255.040267 160.387745 
L 255.040267 47.105443 
L 252.2466 47.105443 
z
" clip-path="url(#pbd0037c9bc)" style="fill: #37414a"/>
   </g>
   <g id="patch_57">
    <path d="M 263.421267 160.387745 
L 266.214933 160.387745 
L 266.214933 52.273055 
L 263.421267 52.273055 
z
" clip-path="url(#pbd0037c9bc)" style="fill: #37414a"/>
   </g>
   <g id="patch_58">
    <path d="M 274.595933 160.387745 
L 277.3896 160.387745 
L 277.3896 46.163677 
L 274.595933 46.163677 
z
" clip-path="url(#pbd0037c9bc)" style="fill: #37414a"/>
   </g>
   <g id="patch_59">
    <path d="M 285.7706 160.387745 
L 288.564266 160.387745 
L 288.564266 14.244972 
L 285.7706 14.244972 
z
" clip-path="url(#pbd0037c9bc)" style="fill: #37414a"/>
   </g>
   <g id="patch_60">
    <path d="M 296.945266 160.387745 
L 299.738933 160.387745 
L 299.738933 45.359347 
L 296.945266 45.359347 
z
" clip-path="url(#pbd0037c9bc)" style="fill: #37414a"/>
   </g>
   <g id="patch_61">
    <path d="M 308.119932 160.387745 
L 310.913599 160.387745 
L 310.913599 20.140068 
L 308.119932 20.140068 
z
" clip-path="url(#pbd0037c9bc)" style="fill: #37414a"/>
   </g>
   <g id="patch_62">
    <path d="M 319.294599 160.387745 
L 322.088266 160.387745 
L 322.088266 38.433859 
L 319.294599 38.433859 
z
" clip-path="url(#pbd0037c9bc)" style="fill: #37414a"/>
   </g>
   <g id="patch_63">
    <path d="M 330.469265 160.387745 
L 333.262932 160.387745 
L 333.262932 27.973655 
L 330.469265 27.973655 
z
" clip-path="url(#pbd0037c9bc)" style="fill: #37414a"/>
   </g>
   <g id="patch_64">
    <path d="M 341.643932 160.387745 
L 344.437598 160.387745 
L 344.437598 44.686954 
L 341.643932 44.686954 
z
" clip-path="url(#pbd0037c9bc)" style="fill: #37414a"/>
   </g>
   <g id="patch_65">
    <path d="M 352.818598 160.387745 
L 355.612265 160.387745 
L 355.612265 75.484254 
L 352.818598 75.484254 
z
" clip-path="url(#pbd0037c9bc)" style="fill: #37414a"/>
   </g>
   <g id="patch_66">
    <path d="M 363.993265 160.387745 
L 366.786931 160.387745 
L 366.786931 66.081279 
L 363.993265 66.081279 
z
" clip-path="url(#pbd0037c9bc)" style="fill: #37414a"/>
   </g>
   <g id="patch_67">
    <path d="M 375.167931 160.387745 
L 377.961598 160.387745 
L 377.961598 39.817511 
L 375.167931 39.817511 
z
" clip-path="url(#pbd0037c9bc)" style="fill: #37414a"/>
   </g>
   <g id="patch_68">
    <path d="M 386.342598 160.387745 
L 389.136264 160.387745 
L 389.136264 61.811924 
L 386.342598 61.811924 
z
" clip-path="url(#pbd0037c9bc)" style="fill: #37414a"/>
   </g>
   <g id="patch_69">
    <path d="M 23.165938 160.387745 
L 23.165938 1.257441 
" style="fill: none; stroke: #37414a; stroke-width: 0.5; stroke-linejoin: miter; stroke-linecap: square"/>
   </g>
   <g id="patch_70">
    <path d="M 23.165937 160.387745 
L 391.929931 160.387745 
" style="fill: none; stroke: #37414a; stroke-width: 0.5; stroke-linejoin: miter; stroke-linecap: square"/>
   </g>
   <g id="legend_1">
    <g id="patch_71">
     <path d="M 28.065938 27.406816 
L 136.985938 27.406816 
Q 138.385938 27.406816 138.385938 26.006816 
L 138.385938 6.157441 
Q 138.385938 4.757441 136.985938 4.757441 
L 28.065938 4.757441 
Q 26.665938 4.757441 26.665938 6.157441 
L 26.665938 26.006816 
Q 26.665938 27.406816 28.065938 27.406816 
L 28.065938 27.406816 
z
" style="fill: none; opacity: 0.8; stroke: #37414a; stroke-width: 0.5; stroke-linejoin: miter"/>
    </g>
    <g id="patch_72">
     <path d="M 29.465938 12.876347 
L 43.465938 12.876347 
L 43.465938 7.976347 
L 29.465938 7.976347 
z
" style="fill: #8d2d39"/>
    </g>
    <g id="text_42">
     <!-- Standard Deviation FEV$_1$ -->
     <g style="fill: #37414a" transform="translate(49.065938 12.876347)scale(0.07 -0.07)">
      <defs>
       <path id="DejaVuSans-ExtraLight-53" d="M 3388 4431 
L 3388 4138 
Q 3081 4291 2709 4409 
Q 2466 4488 2094 4494 
Q 1544 4503 1200 4250 
Q 888 4019 888 3456 
Q 888 3109 1125 2906 
Q 1378 2691 1888 2559 
L 2259 2463 
Q 2759 2331 3031 2150 
Q 3541 1803 3541 1278 
Q 3541 519 3094 225 
Q 2606 -91 2094 -91 
Q 1559 -91 1138 56 
Q 872 163 581 350 
L 581 656 
Q 1019 397 1194 325 
Q 1584 166 1919 166 
Q 2491 166 2869 419 
Q 3225 656 3225 1253 
Q 3225 1603 3006 1803 
Q 2691 2094 2188 2216 
L 1813 2306 
Q 1363 2416 1047 2613 
Q 569 2913 569 3431 
Q 569 4078 959 4425 
Q 1322 4747 2059 4750 
Q 2494 4750 2725 4675 
Q 3319 4481 3388 4431 
z
" transform="scale(0.015625)"/>
       <path id="DejaVuSans-ExtraLight-74" d="M 1028 4494 
L 1028 3500 
L 2213 3500 
L 2213 3256 
L 1028 3256 
L 1028 1153 
Q 1028 753 1131 594 
Q 1344 244 1750 244 
L 2213 244 
L 2213 0 
L 1766 0 
Q 1338 0 1038 250 
Q 738 500 738 1153 
L 738 3256 
L 319 3256 
L 319 3500 
L 738 3500 
L 738 4494 
L 1028 4494 
z
" transform="scale(0.015625)"/>
       <path id="DejaVuSans-ExtraLight-61" d="M 2125 1975 
Q 1431 1975 1125 1728 
Q 819 1481 819 1006 
Q 819 544 1072 350 
Q 1325 156 1672 156 
Q 2328 156 2616 713 
Q 2906 1269 2906 1759 
L 2906 1975 
L 2125 1975 
z
M 3197 1997 
L 3197 0 
L 2913 0 
L 2913 950 
Q 2672 253 2275 63 
Q 1959 -91 1647 -91 
Q 1125 -91 825 188 
Q 525 469 525 1012 
Q 525 1556 916 1881 
Q 1306 2209 2194 2209 
L 2906 2209 
L 2906 2266 
Q 2906 2731 2641 3031 
Q 2378 3331 1772 3331 
Q 1472 3331 1159 3219 
Q 959 3147 641 2928 
L 641 3238 
Q 919 3409 1159 3481 
Q 1509 3584 1831 3584 
Q 2450 3584 2850 3209 
Q 3197 2888 3197 1997 
z
" transform="scale(0.015625)"/>
       <path id="DejaVuSans-ExtraLight-6e" d="M 3369 2113 
L 3369 0 
L 3081 0 
L 3081 2094 
Q 3081 2775 2862 3053 
Q 2644 3331 2219 3331 
Q 1722 3331 1369 3031 
Q 1013 2728 1013 1978 
L 1013 0 
L 725 0 
L 725 3500 
L 1013 3500 
L 1013 2844 
Q 1166 3163 1416 3331 
Q 1784 3584 2231 3584 
Q 2750 3584 3059 3231 
Q 3369 2881 3369 2113 
z
" transform="scale(0.015625)"/>
       <path id="DejaVuSans-ExtraLight-64" d="M 3050 2700 
L 3050 4863 
L 3331 4863 
L 3331 0 
L 3050 0 
L 3050 794 
Q 2853 338 2622 169 
Q 2269 -91 1956 -91 
Q 1334 -91 921 415 
Q 509 922 509 1747 
Q 509 2572 921 3078 
Q 1334 3584 1956 3584 
Q 2269 3584 2622 3325 
Q 2853 3156 3050 2700 
z
M 1175 2966 
Q 813 2600 813 1747 
Q 813 894 1175 528 
Q 1534 163 1934 163 
Q 2325 163 2688 528 
Q 3047 894 3047 1747 
Q 3047 2600 2688 2966 
Q 2325 3331 1934 3331 
Q 1534 3331 1175 2966 
z
" transform="scale(0.015625)"/>
       <path id="DejaVuSans-ExtraLight-72" d="M 2625 3253 
Q 2556 3288 2438 3313 
Q 2331 3331 2169 3331 
Q 1638 3331 1288 2938 
Q 1013 2619 1013 1844 
L 1013 0 
L 731 0 
L 731 3500 
L 1013 3500 
L 1013 2844 
Q 1153 3125 1406 3319 
Q 1756 3584 2231 3584 
Q 2353 3584 2444 3575 
Q 2538 3575 2625 3553 
L 2625 3253 
z
" transform="scale(0.015625)"/>
       <path id="DejaVuSans-ExtraLight-20" transform="scale(0.015625)"/>
       <path id="DejaVuSans-ExtraLight-44" d="M 1097 4400 
L 1097 253 
L 2022 253 
Q 3078 253 3569 753 
Q 4063 1253 4063 2331 
Q 4063 3403 3569 3903 
Q 3078 4400 2022 4400 
L 1097 4400 
z
M 778 4666 
L 1925 4666 
Q 3200 4666 3797 4100 
Q 4394 3538 4394 2338 
Q 4394 1131 3794 565 
Q 3194 0 1925 0 
L 778 0 
L 778 4666 
z
" transform="scale(0.015625)"/>
       <path id="DejaVuSans-ExtraLight-65" d="M 3453 1894 
L 3453 1713 
L 797 1713 
Q 797 869 1125 531 
Q 1488 156 2203 156 
Q 2391 156 2700 238 
Q 3013 319 3319 481 
L 3319 178 
Q 3009 47 2684 -22 
Q 2359 -91 2169 -91 
Q 1359 -91 950 347 
Q 506 813 506 1713 
Q 506 2647 913 3106 
Q 1328 3584 2069 3584 
Q 2756 3584 3106 3131 
Q 3453 2656 3453 1894 
z
M 3163 1956 
Q 3163 2694 2831 3031 
Q 2553 3331 2075 3331 
Q 1553 3331 1200 3019 
Q 875 2728 809 1956 
L 3163 1956 
z
" transform="scale(0.015625)"/>
       <path id="DejaVuSans-ExtraLight-76" d="M 406 3500 
L 706 3500 
L 1894 316 
L 3078 3500 
L 3381 3500 
L 2078 0 
L 1709 0 
L 406 3500 
z
" transform="scale(0.015625)"/>
       <path id="DejaVuSans-ExtraLight-69" d="M 719 3500 
L 1006 3500 
L 1006 0 
L 719 0 
L 719 3500 
z
M 719 4863 
L 1006 4863 
L 1006 4469 
L 719 4469 
L 719 4863 
z
" transform="scale(0.015625)"/>
       <path id="DejaVuSans-ExtraLight-6f" d="M 2806 2900 
Q 2497 3331 1962 3331 
Q 1428 3331 1119 2903 
Q 806 2478 806 1753 
Q 806 1009 1116 584 
Q 1425 156 1963 156 
Q 2497 156 2806 584 
Q 3119 1016 3119 1753 
Q 3119 2469 2806 2900 
z
M 1959 3584 
Q 2628 3584 3016 3084 
Q 3406 2581 3406 1750 
Q 3406 891 3016 394 
Q 2628 -106 1959 -106 
Q 1284 -106 894 391 
Q 506 888 506 1750 
Q 506 2591 897 3087 
Q 1288 3584 1959 3584 
z
" transform="scale(0.015625)"/>
       <path id="DejaVuSans-ExtraLight-46" d="M 781 4666 
L 3147 4666 
L 3147 4406 
L 1097 4406 
L 1097 2616 
L 2947 2616 
L 2947 2363 
L 1097 2363 
L 1097 0 
L 781 0 
L 781 4666 
z
" transform="scale(0.015625)"/>
       <path id="DejaVuSans-ExtraLight-45" d="M 778 4666 
L 3416 4666 
L 3416 4406 
L 1097 4406 
L 1097 2616 
L 3319 2616 
L 3319 2363 
L 1097 2363 
L 1097 253 
L 3472 253 
L 3472 0 
L 778 0 
L 778 4666 
z
" transform="scale(0.015625)"/>
       <path id="DejaVuSans-ExtraLight-56" d="M 1975 0 
L 194 4666 
L 550 4666 
L 2188 313 
L 3838 4666 
L 4166 4666 
L 2388 0 
L 1975 0 
z
" transform="scale(0.015625)"/>
      </defs>
      <use xlink:href="#DejaVuSans-ExtraLight-53" transform="translate(0 0.015625)"/>
      <use xlink:href="#DejaVuSans-ExtraLight-74" transform="translate(63.476562 0.015625)"/>
      <use xlink:href="#DejaVuSans-ExtraLight-61" transform="translate(102.685547 0.015625)"/>
      <use xlink:href="#DejaVuSans-ExtraLight-6e" transform="translate(163.964844 0.015625)"/>
      <use xlink:href="#DejaVuSans-ExtraLight-64" transform="translate(227.34375 0.015625)"/>
      <use xlink:href="#DejaVuSans-ExtraLight-61" transform="translate(290.820312 0.015625)"/>
      <use xlink:href="#DejaVuSans-ExtraLight-72" transform="translate(352.099609 0.015625)"/>
      <use xlink:href="#DejaVuSans-ExtraLight-64" transform="translate(393.212891 0.015625)"/>
      <use xlink:href="#DejaVuSans-ExtraLight-20" transform="translate(456.689453 0.015625)"/>
      <use xlink:href="#DejaVuSans-ExtraLight-44" transform="translate(488.476562 0.015625)"/>
      <use xlink:href="#DejaVuSans-ExtraLight-65" transform="translate(565.478516 0.015625)"/>
      <use xlink:href="#DejaVuSans-ExtraLight-76" transform="translate(627.001953 0.015625)"/>
      <use xlink:href="#DejaVuSans-ExtraLight-69" transform="translate(686.181641 0.015625)"/>
      <use xlink:href="#DejaVuSans-ExtraLight-61" transform="translate(713.964844 0.015625)"/>
      <use xlink:href="#DejaVuSans-ExtraLight-74" transform="translate(775.244141 0.015625)"/>
      <use xlink:href="#DejaVuSans-ExtraLight-69" transform="translate(814.453125 0.015625)"/>
      <use xlink:href="#DejaVuSans-ExtraLight-6f" transform="translate(842.236328 0.015625)"/>
      <use xlink:href="#DejaVuSans-ExtraLight-6e" transform="translate(903.417969 0.015625)"/>
      <use xlink:href="#DejaVuSans-ExtraLight-20" transform="translate(966.796875 0.015625)"/>
      <use xlink:href="#DejaVuSans-ExtraLight-46" transform="translate(998.583984 0.015625)"/>
      <use xlink:href="#DejaVuSans-ExtraLight-45" transform="translate(1056.103516 0.015625)"/>
      <use xlink:href="#DejaVuSans-ExtraLight-56" transform="translate(1119.287109 0.015625)"/>
      <use xlink:href="#DejaVuSans-ExtraLight-31" transform="translate(1188.652344 -16.390625)scale(0.7)"/>
     </g>
    </g>
    <g id="patch_73">
     <path d="M 29.465938 23.151035 
L 43.465938 23.151035 
L 43.465938 18.251035 
L 29.465938 18.251035 
z
" style="fill: #37414a"/>
    </g>
    <g id="text_43">
     <!-- Standard Deviation FVC -->
     <g style="fill: #37414a" transform="translate(49.065938 23.151035)scale(0.07 -0.07)">
      <defs>
       <path id="DejaVuSans-ExtraLight-43" d="M 4122 4278 
L 4122 3919 
Q 3803 4209 3444 4350 
Q 3081 4494 2675 4494 
Q 1794 4494 1328 3938 
Q 859 3381 859 2328 
Q 859 1275 1328 716 
Q 1794 156 2675 156 
Q 3081 156 3444 300 
Q 3803 447 4122 738 
L 4122 359 
Q 3791 134 3419 22 
Q 3050 -91 2638 -91 
Q 1656 -91 1094 556 
Q 531 1206 531 2328 
Q 531 3453 1094 4100 
Q 1656 4750 2638 4750 
Q 3056 4750 3425 4631 
Q 3797 4516 4122 4278 
z
" transform="scale(0.015625)"/>
      </defs>
      <use xlink:href="#DejaVuSans-ExtraLight-53"/>
      <use xlink:href="#DejaVuSans-ExtraLight-74" x="63.476562"/>
      <use xlink:href="#DejaVuSans-ExtraLight-61" x="102.685547"/>
      <use xlink:href="#DejaVuSans-ExtraLight-6e" x="163.964844"/>
      <use xlink:href="#DejaVuSans-ExtraLight-64" x="227.34375"/>
      <use xlink:href="#DejaVuSans-ExtraLight-61" x="290.820312"/>
      <use xlink:href="#DejaVuSans-ExtraLight-72" x="352.099609"/>
      <use xlink:href="#DejaVuSans-ExtraLight-64" x="391.462891"/>
      <use xlink:href="#DejaVuSans-ExtraLight-20" x="454.939453"/>
      <use xlink:href="#DejaVuSans-ExtraLight-44" x="486.726562"/>
      <use xlink:href="#DejaVuSans-ExtraLight-65" x="563.728516"/>
      <use xlink:href="#DejaVuSans-ExtraLight-76" x="625.251953"/>
      <use xlink:href="#DejaVuSans-ExtraLight-69" x="684.431641"/>
      <use xlink:href="#DejaVuSans-ExtraLight-61" x="712.214844"/>
      <use xlink:href="#DejaVuSans-ExtraLight-74" x="773.494141"/>
      <use xlink:href="#DejaVuSans-ExtraLight-69" x="812.703125"/>
      <use xlink:href="#DejaVuSans-ExtraLight-6f" x="840.486328"/>
      <use xlink:href="#DejaVuSans-ExtraLight-6e" x="901.667969"/>
      <use xlink:href="#DejaVuSans-ExtraLight-20" x="965.046875"/>
      <use xlink:href="#DejaVuSans-ExtraLight-46" x="996.833984"/>
      <use xlink:href="#DejaVuSans-ExtraLight-56" x="1054.353516"/>
      <use xlink:href="#DejaVuSans-ExtraLight-43" x="1122.761719"/>
     </g>
    </g>
   </g>
  </g>
 </g>
 <defs>
  <clipPath id="pbd0037c9bc">
   <rect x="23.165938" y="1.257441" width="368.763993" height="159.130304"/>
  </clipPath>
 </defs>
</svg>
