<?xml version="1.0" encoding="utf-8" standalone="no"?>
<!DOCTYPE svg PUBLIC "-//W3C//DTD SVG 1.1//EN"
  "http://www.w3.org/Graphics/SVG/1.1/DTD/svg11.dtd">
<svg xmlns:xlink="http://www.w3.org/1999/xlink" width="572.15952pt" height="284.15952pt" viewBox="0 0 572.15952 284.15952" xmlns="http://www.w3.org/2000/svg" version="1.1">
 <metadata>
  <rdf:RDF xmlns:dc="http://purl.org/dc/elements/1.1/" xmlns:cc="http://creativecommons.org/ns#" xmlns:rdf="http://www.w3.org/1999/02/22-rdf-syntax-ns#">
   <cc:Work>
    <dc:type rdf:resource="http://purl.org/dc/dcmitype/StillImage"/>
    <dc:date>2023-06-30T09:51:26.616289</dc:date>
    <dc:format>image/svg+xml</dc:format>
    <dc:creator>
     <cc:Agent>
      <dc:title>Matplotlib v3.5.1, https://matplotlib.org/</dc:title>
     </cc:Agent>
    </dc:creator>
   </cc:Work>
  </rdf:RDF>
 </metadata>
 <defs>
  <style type="text/css">*{stroke-linejoin: round; stroke-linecap: butt}</style>
 </defs>
 <g id="figure_1">
  <g id="patch_1">
   <path d="M 0 284.15952 
L 572.15952 284.15952 
L 572.15952 0 
L 0 0 
L 0 284.15952 
z
" style="fill: none"/>
  </g>
  <g id="axes_1">
   <g id="patch_2">
    <path d="M 23.165938 257.09452 
L 571.07952 257.09452 
L 571.07952 13.92 
L 23.165938 13.92 
L 23.165938 257.09452 
z
" style="fill: none"/>
   </g>
   <g id="matplotlib.axis_1">
    <g id="xtick_1">
     <g id="line2d_1">
      <defs>
       <path id="m90ad496d04" d="M 0 0 
L 0 3 
" style="stroke: #37414a; stroke-width: 0.5"/>
      </defs>
      <g>
       <use xlink:href="#m90ad496d04" x="33.06799" y="257.09452" style="fill: #37414a; stroke: #37414a; stroke-width: 0.5"/>
      </g>
     </g>
     <g id="text_1">
      <!-- 0 -->
      <g style="fill: #37414a" transform="translate(30.841115 268.913426)scale(0.07 -0.07)">
       <defs>
        <path id="DejaVuSans-ExtraLight-30" d="M 2016 4494 
Q 1444 4494 1166 3938 
Q 888 3378 888 2328 
Q 888 1278 1166 719 
Q 1444 163 2016 163 
Q 2606 163 2884 719 
Q 3163 1278 3163 2328 
Q 3163 3378 2884 3938 
Q 2606 4494 2016 4494 
z
M 2016 4750 
Q 2691 4750 3084 4200 
Q 3478 3647 3478 2328 
Q 3478 1009 3084 456 
Q 2691 -94 2016 -94 
Q 1359 -94 966 456 
Q 572 1009 572 2328 
Q 572 3647 966 4200 
Q 1359 4750 2016 4750 
z
" transform="scale(0.015625)"/>
       </defs>
       <use xlink:href="#DejaVuSans-ExtraLight-30"/>
      </g>
     </g>
    </g>
    <g id="xtick_2">
     <g id="line2d_2">
      <g>
       <use xlink:href="#m90ad496d04" x="49.571411" y="257.09452" style="fill: #37414a; stroke: #37414a; stroke-width: 0.5"/>
      </g>
     </g>
     <g id="text_2">
      <!-- 1 -->
      <g style="fill: #37414a" transform="translate(47.344536 268.913426)scale(0.07 -0.07)">
       <defs>
        <path id="DejaVuSans-ExtraLight-31" d="M 950 256 
L 1981 256 
L 1981 4378 
L 703 3866 
L 703 4153 
L 1975 4666 
L 2294 4666 
L 2294 256 
L 3325 256 
L 3325 0 
L 950 0 
L 950 256 
z
" transform="scale(0.015625)"/>
       </defs>
       <use xlink:href="#DejaVuSans-ExtraLight-31"/>
      </g>
     </g>
    </g>
    <g id="xtick_3">
     <g id="line2d_3">
      <g>
       <use xlink:href="#m90ad496d04" x="66.074833" y="257.09452" style="fill: #37414a; stroke: #37414a; stroke-width: 0.5"/>
      </g>
     </g>
     <g id="text_3">
      <!-- 2 -->
      <g style="fill: #37414a" transform="translate(63.847958 268.913426)scale(0.07 -0.07)">
       <defs>
        <path id="DejaVuSans-ExtraLight-32" d="M 769 253 
L 3431 253 
L 3431 0 
L 444 0 
L 444 328 
L 1606 1538 
Q 2038 1975 2388 2347 
Q 2713 2694 2822 2884 
Q 2931 3075 2931 3388 
Q 2931 3928 2600 4256 
Q 2359 4494 1825 4494 
Q 1513 4494 1106 4313 
Q 928 4231 500 3953 
L 500 4284 
Q 681 4413 1031 4569 
Q 1428 4747 1819 4750 
Q 2422 4750 2828 4441 
Q 3225 4131 3225 3419 
Q 3225 3131 3119 2875 
Q 2994 2575 2725 2266 
Q 2647 2175 2228 1744 
L 769 253 
z
" transform="scale(0.015625)"/>
       </defs>
       <use xlink:href="#DejaVuSans-ExtraLight-32"/>
      </g>
     </g>
    </g>
    <g id="xtick_4">
     <g id="line2d_4">
      <g>
       <use xlink:href="#m90ad496d04" x="82.578254" y="257.09452" style="fill: #37414a; stroke: #37414a; stroke-width: 0.5"/>
      </g>
     </g>
     <g id="text_4">
      <!-- 3 -->
      <g style="fill: #37414a" transform="translate(80.351379 268.913426)scale(0.07 -0.07)">
       <defs>
        <path id="DejaVuSans-ExtraLight-33" d="M 2597 2516 
Q 2972 2425 3188 2113 
Q 3400 1806 3400 1356 
Q 3400 666 3003 287 
Q 2606 -91 1734 -91 
Q 1441 -91 1131 0 
Q 819 94 488 288 
L 488 628 
Q 750 400 1063 281 
Q 1375 166 1700 166 
Q 2375 166 2731 472 
Q 3084 775 3084 1356 
Q 3084 1831 2756 2097 
Q 2425 2366 1838 2366 
L 1294 2366 
L 1294 2628 
L 1863 2628 
Q 2403 2628 2688 2844 
Q 2975 3063 2975 3475 
Q 2975 3963 2681 4225 
Q 2384 4488 1834 4488 
Q 1578 4488 1281 4397 
Q 984 4306 628 4116 
L 628 4441 
Q 988 4594 1300 4666 
Q 1616 4744 1894 4750 
Q 2609 4750 2950 4425 
Q 3294 4097 3294 3541 
Q 3294 3169 3113 2888 
Q 2938 2616 2597 2516 
z
" transform="scale(0.015625)"/>
       </defs>
       <use xlink:href="#DejaVuSans-ExtraLight-33"/>
      </g>
     </g>
    </g>
    <g id="xtick_5">
     <g id="line2d_5">
      <g>
       <use xlink:href="#m90ad496d04" x="99.081675" y="257.09452" style="fill: #37414a; stroke: #37414a; stroke-width: 0.5"/>
      </g>
     </g>
     <g id="text_5">
      <!-- 4 -->
      <g style="fill: #37414a" transform="translate(96.8548 268.913426)scale(0.07 -0.07)">
       <defs>
        <path id="DejaVuSans-ExtraLight-34" d="M 2575 4494 
L 638 1488 
L 2575 1488 
L 2575 4494 
z
M 2331 4666 
L 2894 4666 
L 2894 1488 
L 3559 1488 
L 3559 1238 
L 2894 1238 
L 2894 0 
L 2575 0 
L 2575 1238 
L 313 1238 
L 313 1563 
L 2331 4666 
z
" transform="scale(0.015625)"/>
       </defs>
       <use xlink:href="#DejaVuSans-ExtraLight-34"/>
      </g>
     </g>
    </g>
    <g id="xtick_6">
     <g id="line2d_6">
      <g>
       <use xlink:href="#m90ad496d04" x="115.585096" y="257.09452" style="fill: #37414a; stroke: #37414a; stroke-width: 0.5"/>
      </g>
     </g>
     <g id="text_6">
      <!-- 5 -->
      <g style="fill: #37414a" transform="translate(113.358221 268.913426)scale(0.07 -0.07)">
       <defs>
        <path id="DejaVuSans-ExtraLight-35" d="M 816 4666 
L 3031 4666 
L 3031 4413 
L 1131 4413 
L 1131 2847 
Q 1269 2897 1406 2925 
Q 1544 2950 1809 2950 
Q 2525 2950 2944 2556 
Q 3359 2166 3359 1497 
Q 3359 744 2931 325 
Q 2503 -91 1722 -91 
Q 1463 -91 1191 -47 
Q 922 -3 631 84 
L 631 403 
Q 875 288 1138 228 
Q 1397 172 1688 172 
Q 2313 172 2681 528 
Q 3050 884 3050 1497 
Q 3050 2050 2691 2372 
Q 2328 2697 1709 2697 
Q 1581 2697 1331 2628 
Q 1078 2563 816 2422 
L 816 4666 
z
" transform="scale(0.015625)"/>
       </defs>
       <use xlink:href="#DejaVuSans-ExtraLight-35"/>
      </g>
     </g>
    </g>
    <g id="xtick_7">
     <g id="line2d_7">
      <g>
       <use xlink:href="#m90ad496d04" x="132.088517" y="257.09452" style="fill: #37414a; stroke: #37414a; stroke-width: 0.5"/>
      </g>
     </g>
     <g id="text_7">
      <!-- 6 -->
      <g style="fill: #37414a" transform="translate(129.861642 268.913426)scale(0.07 -0.07)">
       <defs>
        <path id="DejaVuSans-ExtraLight-36" d="M 2900 2365 
Q 2609 2706 2112 2706 
Q 1616 2706 1325 2365 
Q 1034 2025 1034 1434 
Q 1034 844 1325 503 
Q 1616 163 2112 163 
Q 2609 163 2900 503 
Q 3191 844 3191 1434 
Q 3191 2025 2900 2365 
z
M 3278 4563 
L 3278 4231 
Q 3059 4363 2841 4431 
Q 2619 4500 2403 4500 
Q 1472 4500 1100 3584 
Q 931 3169 944 2175 
Q 1103 2519 1347 2713 
Q 1663 2966 2150 2966 
Q 2738 2966 3128 2550 
Q 3516 2138 3516 1497 
Q 3516 778 3134 343 
Q 2753 -91 2141 -91 
Q 1400 -91 1009 531 
Q 622 1150 622 2328 
Q 622 3584 1100 4169 
Q 1575 4750 2381 4750 
Q 2597 4750 2819 4703 
Q 3038 4656 3278 4563 
z
" transform="scale(0.015625)"/>
       </defs>
       <use xlink:href="#DejaVuSans-ExtraLight-36"/>
      </g>
     </g>
    </g>
    <g id="xtick_8">
     <g id="line2d_8">
      <g>
       <use xlink:href="#m90ad496d04" x="148.591938" y="257.09452" style="fill: #37414a; stroke: #37414a; stroke-width: 0.5"/>
      </g>
     </g>
     <g id="text_8">
      <!-- 7 -->
      <g style="fill: #37414a" transform="translate(146.365063 268.913426)scale(0.07 -0.07)">
       <defs>
        <path id="DejaVuSans-ExtraLight-37" d="M 525 4666 
L 3363 4666 
L 3363 4397 
L 1669 0 
L 1338 0 
L 3034 4409 
L 525 4409 
L 525 4666 
z
" transform="scale(0.015625)"/>
       </defs>
       <use xlink:href="#DejaVuSans-ExtraLight-37"/>
      </g>
     </g>
    </g>
    <g id="xtick_9">
     <g id="line2d_9">
      <g>
       <use xlink:href="#m90ad496d04" x="165.095359" y="257.09452" style="fill: #37414a; stroke: #37414a; stroke-width: 0.5"/>
      </g>
     </g>
     <g id="text_9">
      <!-- 8 -->
      <g style="fill: #37414a" transform="translate(162.868484 268.913426)scale(0.07 -0.07)">
       <defs>
        <path id="DejaVuSans-ExtraLight-38" d="M 2034 2325 
Q 1513 2325 1213 2038 
Q 916 1747 916 1240 
Q 916 734 1213 447 
Q 1513 156 2034 156 
Q 2556 156 2856 447 
Q 3159 738 3159 1241 
Q 3159 1747 2859 2038 
Q 2559 2325 2034 2325 
z
M 1403 2484 
Q 1100 2597 906 2863 
Q 703 3141 703 3541 
Q 703 4100 1059 4425 
Q 1416 4750 2034 4750 
Q 2656 4750 3009 4425 
Q 3366 4100 3366 3541 
Q 3366 3125 3163 2863 
Q 2953 2591 2669 2484 
Q 3019 2369 3238 2069 
Q 3466 1759 3466 1313 
Q 3466 634 3097 272 
Q 2725 -91 2034 -91 
Q 1344 -91 972 272 
Q 603 634 603 1313 
Q 603 1759 831 2069 
Q 1084 2378 1403 2484 
z
M 1287 4241 
Q 1022 3988 1022 3534 
Q 1022 3081 1287 2828 
Q 1553 2575 2034 2575 
Q 2509 2575 2781 2828 
Q 3050 3081 3050 3534 
Q 3050 3988 2781 4241 
Q 2509 4494 2034 4494 
Q 1553 4494 1287 4241 
z
" transform="scale(0.015625)"/>
       </defs>
       <use xlink:href="#DejaVuSans-ExtraLight-38"/>
      </g>
     </g>
    </g>
    <g id="xtick_10">
     <g id="line2d_10">
      <g>
       <use xlink:href="#m90ad496d04" x="181.598781" y="257.09452" style="fill: #37414a; stroke: #37414a; stroke-width: 0.5"/>
      </g>
     </g>
     <g id="text_10">
      <!-- 9 -->
      <g style="fill: #37414a" transform="translate(179.371906 268.913426)scale(0.07 -0.07)">
       <defs>
        <path id="DejaVuSans-ExtraLight-39" d="M 859 97 
L 859 428 
Q 1078 297 1297 228 
Q 1519 159 1734 159 
Q 2666 159 3038 1075 
Q 3206 1491 3194 2484 
Q 3034 2141 2791 1947 
Q 2475 1694 1988 1694 
Q 1400 1694 1009 2109 
Q 622 2522 622 3163 
Q 622 3881 1003 4316 
Q 1388 4750 1997 4750 
Q 2738 4750 3128 4131 
Q 3516 3509 3516 2331 
Q 3516 1075 3041 494 
Q 2563 -91 1756 -91 
Q 1541 -91 1319 -44 
Q 1100 3 859 97 
z
M 1237 2293 
Q 1528 1953 2025 1953 
Q 2522 1953 2812 2293 
Q 3103 2634 3103 3225 
Q 3103 3816 2812 4156 
Q 2522 4497 2025 4497 
Q 1528 4497 1237 4156 
Q 947 3816 947 3225 
Q 947 2634 1237 2293 
z
" transform="scale(0.015625)"/>
       </defs>
       <use xlink:href="#DejaVuSans-ExtraLight-39"/>
      </g>
     </g>
    </g>
    <g id="xtick_11">
     <g id="line2d_11">
      <g>
       <use xlink:href="#m90ad496d04" x="198.102202" y="257.09452" style="fill: #37414a; stroke: #37414a; stroke-width: 0.5"/>
      </g>
     </g>
     <g id="text_11">
      <!-- 10 -->
      <g style="fill: #37414a" transform="translate(193.648452 268.913426)scale(0.07 -0.07)">
       <use xlink:href="#DejaVuSans-ExtraLight-31"/>
       <use xlink:href="#DejaVuSans-ExtraLight-30" x="63.623047"/>
      </g>
     </g>
    </g>
    <g id="xtick_12">
     <g id="line2d_12">
      <g>
       <use xlink:href="#m90ad496d04" x="214.605623" y="257.09452" style="fill: #37414a; stroke: #37414a; stroke-width: 0.5"/>
      </g>
     </g>
     <g id="text_12">
      <!-- 11 -->
      <g style="fill: #37414a" transform="translate(210.151873 268.913426)scale(0.07 -0.07)">
       <use xlink:href="#DejaVuSans-ExtraLight-31"/>
       <use xlink:href="#DejaVuSans-ExtraLight-31" x="63.623047"/>
      </g>
     </g>
    </g>
    <g id="xtick_13">
     <g id="line2d_13">
      <g>
       <use xlink:href="#m90ad496d04" x="231.109044" y="257.09452" style="fill: #37414a; stroke: #37414a; stroke-width: 0.5"/>
      </g>
     </g>
     <g id="text_13">
      <!-- 12 -->
      <g style="fill: #37414a" transform="translate(226.655294 268.913426)scale(0.07 -0.07)">
       <use xlink:href="#DejaVuSans-ExtraLight-31"/>
       <use xlink:href="#DejaVuSans-ExtraLight-32" x="63.623047"/>
      </g>
     </g>
    </g>
    <g id="xtick_14">
     <g id="line2d_14">
      <g>
       <use xlink:href="#m90ad496d04" x="247.612465" y="257.09452" style="fill: #37414a; stroke: #37414a; stroke-width: 0.5"/>
      </g>
     </g>
     <g id="text_14">
      <!-- 13 -->
      <g style="fill: #37414a" transform="translate(243.158715 268.913426)scale(0.07 -0.07)">
       <use xlink:href="#DejaVuSans-ExtraLight-31"/>
       <use xlink:href="#DejaVuSans-ExtraLight-33" x="63.623047"/>
      </g>
     </g>
    </g>
    <g id="xtick_15">
     <g id="line2d_15">
      <g>
       <use xlink:href="#m90ad496d04" x="264.115886" y="257.09452" style="fill: #37414a; stroke: #37414a; stroke-width: 0.5"/>
      </g>
     </g>
     <g id="text_15">
      <!-- 14 -->
      <g style="fill: #37414a" transform="translate(259.662136 268.913426)scale(0.07 -0.07)">
       <use xlink:href="#DejaVuSans-ExtraLight-31"/>
       <use xlink:href="#DejaVuSans-ExtraLight-34" x="63.623047"/>
      </g>
     </g>
    </g>
    <g id="xtick_16">
     <g id="line2d_16">
      <g>
       <use xlink:href="#m90ad496d04" x="280.619308" y="257.09452" style="fill: #37414a; stroke: #37414a; stroke-width: 0.5"/>
      </g>
     </g>
     <g id="text_16">
      <!-- 15 -->
      <g style="fill: #37414a" transform="translate(276.165558 268.913426)scale(0.07 -0.07)">
       <use xlink:href="#DejaVuSans-ExtraLight-31"/>
       <use xlink:href="#DejaVuSans-ExtraLight-35" x="63.623047"/>
      </g>
     </g>
    </g>
    <g id="xtick_17">
     <g id="line2d_17">
      <g>
       <use xlink:href="#m90ad496d04" x="297.122729" y="257.09452" style="fill: #37414a; stroke: #37414a; stroke-width: 0.5"/>
      </g>
     </g>
     <g id="text_17">
      <!-- 16 -->
      <g style="fill: #37414a" transform="translate(292.668979 268.913426)scale(0.07 -0.07)">
       <use xlink:href="#DejaVuSans-ExtraLight-31"/>
       <use xlink:href="#DejaVuSans-ExtraLight-36" x="63.623047"/>
      </g>
     </g>
    </g>
    <g id="xtick_18">
     <g id="line2d_18">
      <g>
       <use xlink:href="#m90ad496d04" x="313.62615" y="257.09452" style="fill: #37414a; stroke: #37414a; stroke-width: 0.5"/>
      </g>
     </g>
     <g id="text_18">
      <!-- 17 -->
      <g style="fill: #37414a" transform="translate(309.1724 268.913426)scale(0.07 -0.07)">
       <use xlink:href="#DejaVuSans-ExtraLight-31"/>
       <use xlink:href="#DejaVuSans-ExtraLight-37" x="63.623047"/>
      </g>
     </g>
    </g>
    <g id="xtick_19">
     <g id="line2d_19">
      <g>
       <use xlink:href="#m90ad496d04" x="330.129571" y="257.09452" style="fill: #37414a; stroke: #37414a; stroke-width: 0.5"/>
      </g>
     </g>
     <g id="text_19">
      <!-- 18 -->
      <g style="fill: #37414a" transform="translate(325.675821 268.913426)scale(0.07 -0.07)">
       <use xlink:href="#DejaVuSans-ExtraLight-31"/>
       <use xlink:href="#DejaVuSans-ExtraLight-38" x="63.623047"/>
      </g>
     </g>
    </g>
    <g id="xtick_20">
     <g id="line2d_20">
      <g>
       <use xlink:href="#m90ad496d04" x="346.632992" y="257.09452" style="fill: #37414a; stroke: #37414a; stroke-width: 0.5"/>
      </g>
     </g>
     <g id="text_20">
      <!-- 19 -->
      <g style="fill: #37414a" transform="translate(342.179242 268.913426)scale(0.07 -0.07)">
       <use xlink:href="#DejaVuSans-ExtraLight-31"/>
       <use xlink:href="#DejaVuSans-ExtraLight-39" x="63.623047"/>
      </g>
     </g>
    </g>
    <g id="xtick_21">
     <g id="line2d_21">
      <g>
       <use xlink:href="#m90ad496d04" x="363.136413" y="257.09452" style="fill: #37414a; stroke: #37414a; stroke-width: 0.5"/>
      </g>
     </g>
     <g id="text_21">
      <!-- 20 -->
      <g style="fill: #37414a" transform="translate(358.682663 268.913426)scale(0.07 -0.07)">
       <use xlink:href="#DejaVuSans-ExtraLight-32"/>
       <use xlink:href="#DejaVuSans-ExtraLight-30" x="63.623047"/>
      </g>
     </g>
    </g>
    <g id="xtick_22">
     <g id="line2d_22">
      <g>
       <use xlink:href="#m90ad496d04" x="379.639835" y="257.09452" style="fill: #37414a; stroke: #37414a; stroke-width: 0.5"/>
      </g>
     </g>
     <g id="text_22">
      <!-- 21 -->
      <g style="fill: #37414a" transform="translate(375.186085 268.913426)scale(0.07 -0.07)">
       <use xlink:href="#DejaVuSans-ExtraLight-32"/>
       <use xlink:href="#DejaVuSans-ExtraLight-31" x="63.623047"/>
      </g>
     </g>
    </g>
    <g id="xtick_23">
     <g id="line2d_23">
      <g>
       <use xlink:href="#m90ad496d04" x="396.143256" y="257.09452" style="fill: #37414a; stroke: #37414a; stroke-width: 0.5"/>
      </g>
     </g>
     <g id="text_23">
      <!-- 22 -->
      <g style="fill: #37414a" transform="translate(391.689506 268.913426)scale(0.07 -0.07)">
       <use xlink:href="#DejaVuSans-ExtraLight-32"/>
       <use xlink:href="#DejaVuSans-ExtraLight-32" x="63.623047"/>
      </g>
     </g>
    </g>
    <g id="xtick_24">
     <g id="line2d_24">
      <g>
       <use xlink:href="#m90ad496d04" x="412.646677" y="257.09452" style="fill: #37414a; stroke: #37414a; stroke-width: 0.5"/>
      </g>
     </g>
     <g id="text_24">
      <!-- 23 -->
      <g style="fill: #37414a" transform="translate(408.192927 268.913426)scale(0.07 -0.07)">
       <use xlink:href="#DejaVuSans-ExtraLight-32"/>
       <use xlink:href="#DejaVuSans-ExtraLight-33" x="63.623047"/>
      </g>
     </g>
    </g>
    <g id="xtick_25">
     <g id="line2d_25">
      <g>
       <use xlink:href="#m90ad496d04" x="429.150098" y="257.09452" style="fill: #37414a; stroke: #37414a; stroke-width: 0.5"/>
      </g>
     </g>
     <g id="text_25">
      <!-- 24 -->
      <g style="fill: #37414a" transform="translate(424.696348 268.913426)scale(0.07 -0.07)">
       <use xlink:href="#DejaVuSans-ExtraLight-32"/>
       <use xlink:href="#DejaVuSans-ExtraLight-34" x="63.623047"/>
      </g>
     </g>
    </g>
    <g id="xtick_26">
     <g id="line2d_26">
      <g>
       <use xlink:href="#m90ad496d04" x="445.653519" y="257.09452" style="fill: #37414a; stroke: #37414a; stroke-width: 0.5"/>
      </g>
     </g>
     <g id="text_26">
      <!-- 25 -->
      <g style="fill: #37414a" transform="translate(441.199769 268.913426)scale(0.07 -0.07)">
       <use xlink:href="#DejaVuSans-ExtraLight-32"/>
       <use xlink:href="#DejaVuSans-ExtraLight-35" x="63.623047"/>
      </g>
     </g>
    </g>
    <g id="xtick_27">
     <g id="line2d_27">
      <g>
       <use xlink:href="#m90ad496d04" x="462.15694" y="257.09452" style="fill: #37414a; stroke: #37414a; stroke-width: 0.5"/>
      </g>
     </g>
     <g id="text_27">
      <!-- 26 -->
      <g style="fill: #37414a" transform="translate(457.70319 268.913426)scale(0.07 -0.07)">
       <use xlink:href="#DejaVuSans-ExtraLight-32"/>
       <use xlink:href="#DejaVuSans-ExtraLight-36" x="63.623047"/>
      </g>
     </g>
    </g>
    <g id="xtick_28">
     <g id="line2d_28">
      <g>
       <use xlink:href="#m90ad496d04" x="478.660362" y="257.09452" style="fill: #37414a; stroke: #37414a; stroke-width: 0.5"/>
      </g>
     </g>
     <g id="text_28">
      <!-- 27 -->
      <g style="fill: #37414a" transform="translate(474.206612 268.913426)scale(0.07 -0.07)">
       <use xlink:href="#DejaVuSans-ExtraLight-32"/>
       <use xlink:href="#DejaVuSans-ExtraLight-37" x="63.623047"/>
      </g>
     </g>
    </g>
    <g id="xtick_29">
     <g id="line2d_29">
      <g>
       <use xlink:href="#m90ad496d04" x="495.163783" y="257.09452" style="fill: #37414a; stroke: #37414a; stroke-width: 0.5"/>
      </g>
     </g>
     <g id="text_29">
      <!-- 28 -->
      <g style="fill: #37414a" transform="translate(490.710033 268.913426)scale(0.07 -0.07)">
       <use xlink:href="#DejaVuSans-ExtraLight-32"/>
       <use xlink:href="#DejaVuSans-ExtraLight-38" x="63.623047"/>
      </g>
     </g>
    </g>
    <g id="xtick_30">
     <g id="line2d_30">
      <g>
       <use xlink:href="#m90ad496d04" x="511.667204" y="257.09452" style="fill: #37414a; stroke: #37414a; stroke-width: 0.5"/>
      </g>
     </g>
     <g id="text_30">
      <!-- 29 -->
      <g style="fill: #37414a" transform="translate(507.213454 268.913426)scale(0.07 -0.07)">
       <use xlink:href="#DejaVuSans-ExtraLight-32"/>
       <use xlink:href="#DejaVuSans-ExtraLight-39" x="63.623047"/>
      </g>
     </g>
    </g>
    <g id="xtick_31">
     <g id="line2d_31">
      <g>
       <use xlink:href="#m90ad496d04" x="528.170625" y="257.09452" style="fill: #37414a; stroke: #37414a; stroke-width: 0.5"/>
      </g>
     </g>
     <g id="text_31">
      <!-- 30 -->
      <g style="fill: #37414a" transform="translate(523.716875 268.913426)scale(0.07 -0.07)">
       <use xlink:href="#DejaVuSans-ExtraLight-33"/>
       <use xlink:href="#DejaVuSans-ExtraLight-30" x="63.623047"/>
      </g>
     </g>
    </g>
    <g id="xtick_32">
     <g id="line2d_32">
      <g>
       <use xlink:href="#m90ad496d04" x="544.674046" y="257.09452" style="fill: #37414a; stroke: #37414a; stroke-width: 0.5"/>
      </g>
     </g>
     <g id="text_32">
      <!-- 31 -->
      <g style="fill: #37414a" transform="translate(540.220296 268.913426)scale(0.07 -0.07)">
       <use xlink:href="#DejaVuSans-ExtraLight-33"/>
       <use xlink:href="#DejaVuSans-ExtraLight-31" x="63.623047"/>
      </g>
     </g>
    </g>
    <g id="xtick_33">
     <g id="line2d_33">
      <g>
       <use xlink:href="#m90ad496d04" x="561.177467" y="257.09452" style="fill: #37414a; stroke: #37414a; stroke-width: 0.5"/>
      </g>
     </g>
     <g id="text_33">
      <!-- 32 -->
      <g style="fill: #37414a" transform="translate(556.723717 268.913426)scale(0.07 -0.07)">
       <use xlink:href="#DejaVuSans-ExtraLight-33"/>
       <use xlink:href="#DejaVuSans-ExtraLight-32" x="63.623047"/>
      </g>
     </g>
    </g>
    <g id="text_34">
     <!-- Participant ID -->
     <g style="fill: #37414a" transform="translate(266.812416 281.207801)scale(0.09 -0.09)">
      <defs>
       <path id="DejaVuSans-ExtraLight-50" d="M 1094 4406 
L 1094 2263 
L 2053 2263 
Q 2575 2263 2859 2541 
Q 3147 2819 3147 3338 
Q 3147 3847 2859 4128 
Q 2575 4406 2053 4406 
L 1094 4406 
z
M 781 4666 
L 2053 4666 
Q 2750 4666 3109 4328 
Q 3466 3991 3466 3338 
Q 3466 2681 3109 2344 
Q 2750 2006 2053 2006 
L 1094 2006 
L 1094 0 
L 781 0 
L 781 4666 
z
" transform="scale(0.015625)"/>
       <path id="DejaVuSans-ExtraLight-61" d="M 2125 1975 
Q 1431 1975 1125 1728 
Q 819 1481 819 1006 
Q 819 544 1072 350 
Q 1325 156 1672 156 
Q 2328 156 2616 713 
Q 2906 1269 2906 1759 
L 2906 1975 
L 2125 1975 
z
M 3197 1997 
L 3197 0 
L 2913 0 
L 2913 950 
Q 2672 253 2275 63 
Q 1959 -91 1647 -91 
Q 1125 -91 825 188 
Q 525 469 525 1012 
Q 525 1556 916 1881 
Q 1306 2209 2194 2209 
L 2906 2209 
L 2906 2266 
Q 2906 2731 2641 3031 
Q 2378 3331 1772 3331 
Q 1472 3331 1159 3219 
Q 959 3147 641 2928 
L 641 3238 
Q 919 3409 1159 3481 
Q 1509 3584 1831 3584 
Q 2450 3584 2850 3209 
Q 3197 2888 3197 1997 
z
" transform="scale(0.015625)"/>
       <path id="DejaVuSans-ExtraLight-72" d="M 2625 3253 
Q 2556 3288 2438 3313 
Q 2331 3331 2169 3331 
Q 1638 3331 1288 2938 
Q 1013 2619 1013 1844 
L 1013 0 
L 731 0 
L 731 3500 
L 1013 3500 
L 1013 2844 
Q 1153 3125 1406 3319 
Q 1756 3584 2231 3584 
Q 2353 3584 2444 3575 
Q 2538 3575 2625 3553 
L 2625 3253 
z
" transform="scale(0.015625)"/>
       <path id="DejaVuSans-ExtraLight-74" d="M 1028 4494 
L 1028 3500 
L 2213 3500 
L 2213 3256 
L 1028 3256 
L 1028 1153 
Q 1028 753 1131 594 
Q 1344 244 1750 244 
L 2213 244 
L 2213 0 
L 1766 0 
Q 1338 0 1038 250 
Q 738 500 738 1153 
L 738 3256 
L 319 3256 
L 319 3500 
L 738 3500 
L 738 4494 
L 1028 4494 
z
" transform="scale(0.015625)"/>
       <path id="DejaVuSans-ExtraLight-69" d="M 719 3500 
L 1006 3500 
L 1006 0 
L 719 0 
L 719 3500 
z
M 719 4863 
L 1006 4863 
L 1006 4469 
L 719 4469 
L 719 4863 
z
" transform="scale(0.015625)"/>
       <path id="DejaVuSans-ExtraLight-63" d="M 3122 3331 
L 3122 3025 
Q 2863 3184 2694 3241 
Q 2403 3331 2138 3331 
Q 1381 3331 1053 2943 
Q 725 2556 725 1747 
Q 725 931 1053 543 
Q 1381 156 2138 156 
Q 2388 156 2631 225 
Q 2878 291 3122 425 
L 3122 134 
Q 2881 22 2625 -34 
Q 2366 -91 2113 -91 
Q 1344 -91 891 325 
Q 438 744 438 1747 
Q 438 2750 891 3169 
Q 1344 3584 2113 3584 
Q 2363 3584 2644 3513 
Q 2925 3444 3122 3331 
z
" transform="scale(0.015625)"/>
       <path id="DejaVuSans-ExtraLight-70" d="M 1013 794 
L 1013 -1331 
L 731 -1331 
L 731 3500 
L 1013 3500 
L 1013 2700 
Q 1209 3156 1441 3325 
Q 1794 3584 2106 3584 
Q 2728 3584 3140 3078 
Q 3553 2572 3553 1747 
Q 3553 922 3140 415 
Q 2728 -91 2106 -91 
Q 1794 -91 1441 169 
Q 1209 338 1013 794 
z
M 2888 528 
Q 3250 894 3250 1747 
Q 3250 2600 2888 2966 
Q 2528 3331 2128 3331 
Q 1738 3331 1375 2966 
Q 1016 2600 1016 1747 
Q 1016 894 1375 528 
Q 1738 163 2128 163 
Q 2528 163 2888 528 
z
" transform="scale(0.015625)"/>
       <path id="DejaVuSans-ExtraLight-6e" d="M 3369 2113 
L 3369 0 
L 3081 0 
L 3081 2094 
Q 3081 2775 2862 3053 
Q 2644 3331 2219 3331 
Q 1722 3331 1369 3031 
Q 1013 2728 1013 1978 
L 1013 0 
L 725 0 
L 725 3500 
L 1013 3500 
L 1013 2844 
Q 1166 3163 1416 3331 
Q 1784 3584 2231 3584 
Q 2750 3584 3059 3231 
Q 3369 2881 3369 2113 
z
" transform="scale(0.015625)"/>
       <path id="DejaVuSans-ExtraLight-20" transform="scale(0.015625)"/>
       <path id="DejaVuSans-ExtraLight-49" d="M 775 4666 
L 1100 4666 
L 1100 0 
L 775 0 
L 775 4666 
z
" transform="scale(0.015625)"/>
       <path id="DejaVuSans-ExtraLight-44" d="M 1097 4400 
L 1097 253 
L 2022 253 
Q 3078 253 3569 753 
Q 4063 1253 4063 2331 
Q 4063 3403 3569 3903 
Q 3078 4400 2022 4400 
L 1097 4400 
z
M 778 4666 
L 1925 4666 
Q 3200 4666 3797 4100 
Q 4394 3538 4394 2338 
Q 4394 1131 3794 565 
Q 3194 0 1925 0 
L 778 0 
L 778 4666 
z
" transform="scale(0.015625)"/>
      </defs>
      <use xlink:href="#DejaVuSans-ExtraLight-50"/>
      <use xlink:href="#DejaVuSans-ExtraLight-61" x="55.802734"/>
      <use xlink:href="#DejaVuSans-ExtraLight-72" x="117.082031"/>
      <use xlink:href="#DejaVuSans-ExtraLight-74" x="158.195312"/>
      <use xlink:href="#DejaVuSans-ExtraLight-69" x="197.404297"/>
      <use xlink:href="#DejaVuSans-ExtraLight-63" x="225.1875"/>
      <use xlink:href="#DejaVuSans-ExtraLight-69" x="280.167969"/>
      <use xlink:href="#DejaVuSans-ExtraLight-70" x="307.951172"/>
      <use xlink:href="#DejaVuSans-ExtraLight-61" x="371.427734"/>
      <use xlink:href="#DejaVuSans-ExtraLight-6e" x="432.707031"/>
      <use xlink:href="#DejaVuSans-ExtraLight-74" x="496.085938"/>
      <use xlink:href="#DejaVuSans-ExtraLight-20" x="535.294922"/>
      <use xlink:href="#DejaVuSans-ExtraLight-49" x="567.082031"/>
      <use xlink:href="#DejaVuSans-ExtraLight-44" x="596.574219"/>
     </g>
    </g>
   </g>
   <g id="matplotlib.axis_2">
    <g id="ytick_1">
     <g id="line2d_34">
      <defs>
       <path id="m580923fc39" d="M 0 0 
L -3 0 
" style="stroke: #37414a; stroke-width: 0.5"/>
      </defs>
      <g>
       <use xlink:href="#m580923fc39" x="23.165938" y="257.09452" style="fill: #37414a; stroke: #37414a; stroke-width: 0.5"/>
      </g>
     </g>
     <g id="text_35">
      <!-- 0.00 -->
      <g style="fill: #37414a" transform="translate(1.08 259.753973)scale(0.07 -0.07)">
       <defs>
        <path id="DejaVuSans-ExtraLight-2e" d="M 856 394 
L 1175 394 
L 1175 0 
L 856 0 
L 856 394 
z
" transform="scale(0.015625)"/>
       </defs>
       <use xlink:href="#DejaVuSans-ExtraLight-30"/>
       <use xlink:href="#DejaVuSans-ExtraLight-2e" x="63.623047"/>
       <use xlink:href="#DejaVuSans-ExtraLight-30" x="95.410156"/>
       <use xlink:href="#DejaVuSans-ExtraLight-30" x="159.033203"/>
      </g>
     </g>
    </g>
    <g id="ytick_2">
     <g id="line2d_35">
      <g>
       <use xlink:href="#m580923fc39" x="23.165938" y="222.897143" style="fill: #37414a; stroke: #37414a; stroke-width: 0.5"/>
      </g>
     </g>
     <g id="text_36">
      <!-- 0.05 -->
      <g style="fill: #37414a" transform="translate(1.08 225.556596)scale(0.07 -0.07)">
       <use xlink:href="#DejaVuSans-ExtraLight-30"/>
       <use xlink:href="#DejaVuSans-ExtraLight-2e" x="63.623047"/>
       <use xlink:href="#DejaVuSans-ExtraLight-30" x="95.410156"/>
       <use xlink:href="#DejaVuSans-ExtraLight-35" x="159.033203"/>
      </g>
     </g>
    </g>
    <g id="ytick_3">
     <g id="line2d_36">
      <g>
       <use xlink:href="#m580923fc39" x="23.165938" y="188.699766" style="fill: #37414a; stroke: #37414a; stroke-width: 0.5"/>
      </g>
     </g>
     <g id="text_37">
      <!-- 0.10 -->
      <g style="fill: #37414a" transform="translate(1.08 191.359219)scale(0.07 -0.07)">
       <use xlink:href="#DejaVuSans-ExtraLight-30"/>
       <use xlink:href="#DejaVuSans-ExtraLight-2e" x="63.623047"/>
       <use xlink:href="#DejaVuSans-ExtraLight-31" x="95.410156"/>
       <use xlink:href="#DejaVuSans-ExtraLight-30" x="159.033203"/>
      </g>
     </g>
    </g>
    <g id="ytick_4">
     <g id="line2d_37">
      <g>
       <use xlink:href="#m580923fc39" x="23.165938" y="154.502389" style="fill: #37414a; stroke: #37414a; stroke-width: 0.5"/>
      </g>
     </g>
     <g id="text_38">
      <!-- 0.15 -->
      <g style="fill: #37414a" transform="translate(1.08 157.161842)scale(0.07 -0.07)">
       <use xlink:href="#DejaVuSans-ExtraLight-30"/>
       <use xlink:href="#DejaVuSans-ExtraLight-2e" x="63.623047"/>
       <use xlink:href="#DejaVuSans-ExtraLight-31" x="95.410156"/>
       <use xlink:href="#DejaVuSans-ExtraLight-35" x="159.033203"/>
      </g>
     </g>
    </g>
    <g id="ytick_5">
     <g id="line2d_38">
      <g>
       <use xlink:href="#m580923fc39" x="23.165938" y="120.305011" style="fill: #37414a; stroke: #37414a; stroke-width: 0.5"/>
      </g>
     </g>
     <g id="text_39">
      <!-- 0.20 -->
      <g style="fill: #37414a" transform="translate(1.08 122.964465)scale(0.07 -0.07)">
       <use xlink:href="#DejaVuSans-ExtraLight-30"/>
       <use xlink:href="#DejaVuSans-ExtraLight-2e" x="63.623047"/>
       <use xlink:href="#DejaVuSans-ExtraLight-32" x="95.410156"/>
       <use xlink:href="#DejaVuSans-ExtraLight-30" x="159.033203"/>
      </g>
     </g>
    </g>
    <g id="ytick_6">
     <g id="line2d_39">
      <g>
       <use xlink:href="#m580923fc39" x="23.165938" y="86.107634" style="fill: #37414a; stroke: #37414a; stroke-width: 0.5"/>
      </g>
     </g>
     <g id="text_40">
      <!-- 0.25 -->
      <g style="fill: #37414a" transform="translate(1.08 88.767087)scale(0.07 -0.07)">
       <use xlink:href="#DejaVuSans-ExtraLight-30"/>
       <use xlink:href="#DejaVuSans-ExtraLight-2e" x="63.623047"/>
       <use xlink:href="#DejaVuSans-ExtraLight-32" x="95.410156"/>
       <use xlink:href="#DejaVuSans-ExtraLight-35" x="159.033203"/>
      </g>
     </g>
    </g>
    <g id="ytick_7">
     <g id="line2d_40">
      <g>
       <use xlink:href="#m580923fc39" x="23.165938" y="51.910257" style="fill: #37414a; stroke: #37414a; stroke-width: 0.5"/>
      </g>
     </g>
     <g id="text_41">
      <!-- 0.30 -->
      <g style="fill: #37414a" transform="translate(1.08 54.56971)scale(0.07 -0.07)">
       <use xlink:href="#DejaVuSans-ExtraLight-30"/>
       <use xlink:href="#DejaVuSans-ExtraLight-2e" x="63.623047"/>
       <use xlink:href="#DejaVuSans-ExtraLight-33" x="95.410156"/>
       <use xlink:href="#DejaVuSans-ExtraLight-30" x="159.033203"/>
      </g>
     </g>
    </g>
    <g id="ytick_8">
     <g id="line2d_41">
      <g>
       <use xlink:href="#m580923fc39" x="23.165938" y="17.71288" style="fill: #37414a; stroke: #37414a; stroke-width: 0.5"/>
      </g>
     </g>
     <g id="text_42">
      <!-- 0.35 -->
      <g style="fill: #37414a" transform="translate(1.08 20.372333)scale(0.07 -0.07)">
       <use xlink:href="#DejaVuSans-ExtraLight-30"/>
       <use xlink:href="#DejaVuSans-ExtraLight-2e" x="63.623047"/>
       <use xlink:href="#DejaVuSans-ExtraLight-33" x="95.410156"/>
       <use xlink:href="#DejaVuSans-ExtraLight-35" x="159.033203"/>
      </g>
     </g>
    </g>
   </g>
   <g id="patch_3">
    <path d="M 27.291793 257.09452 
L 31.142591 257.09452 
L 31.142591 106.357775 
L 27.291793 106.357775 
z
" clip-path="url(#p827c8e52c9)" style="fill: #8d2d39"/>
   </g>
   <g id="patch_4">
    <path d="M 43.795214 257.09452 
L 47.646012 257.09452 
L 47.646012 151.947598 
L 43.795214 151.947598 
z
" clip-path="url(#p827c8e52c9)" style="fill: #8d2d39"/>
   </g>
   <g id="patch_5">
    <path d="M 60.298635 257.09452 
L 64.149433 257.09452 
L 64.149433 112.252001 
L 60.298635 112.252001 
z
" clip-path="url(#p827c8e52c9)" style="fill: #8d2d39"/>
   </g>
   <g id="patch_6">
    <path d="M 76.802056 257.09452 
L 80.652855 257.09452 
L 80.652855 111.28481 
L 76.802056 111.28481 
z
" clip-path="url(#p827c8e52c9)" style="fill: #8d2d39"/>
   </g>
   <g id="patch_7">
    <path d="M 93.305477 257.09452 
L 97.156276 257.09452 
L 97.156276 121.15892 
L 93.305477 121.15892 
z
" clip-path="url(#p827c8e52c9)" style="fill: #8d2d39"/>
   </g>
   <g id="patch_8">
    <path d="M 109.808899 257.09452 
L 113.659697 257.09452 
L 113.659697 116.120422 
L 109.808899 116.120422 
z
" clip-path="url(#p827c8e52c9)" style="fill: #8d2d39"/>
   </g>
   <g id="patch_9">
    <path d="M 126.31232 257.09452 
L 130.163118 257.09452 
L 130.163118 130.558473 
L 126.31232 130.558473 
z
" clip-path="url(#p827c8e52c9)" style="fill: #8d2d39"/>
   </g>
   <g id="patch_10">
    <path d="M 142.815741 257.09452 
L 146.666539 257.09452 
L 146.666539 111.987286 
L 142.815741 111.987286 
z
" clip-path="url(#p827c8e52c9)" style="fill: #8d2d39"/>
   </g>
   <g id="patch_11">
    <path d="M 159.319162 257.09452 
L 163.16996 257.09452 
L 163.16996 123.588308 
L 159.319162 123.588308 
z
" clip-path="url(#p827c8e52c9)" style="fill: #8d2d39"/>
   </g>
   <g id="patch_12">
    <path d="M 175.822583 257.09452 
L 179.673381 257.09452 
L 179.673381 132.204666 
L 175.822583 132.204666 
z
" clip-path="url(#p827c8e52c9)" style="fill: #8d2d39"/>
   </g>
   <g id="patch_13">
    <path d="M 192.326004 257.09452 
L 196.176803 257.09452 
L 196.176803 102.246095 
L 192.326004 102.246095 
z
" clip-path="url(#p827c8e52c9)" style="fill: #8d2d39"/>
   </g>
   <g id="patch_14">
    <path d="M 208.829426 257.09452 
L 212.680224 257.09452 
L 212.680224 137.317748 
L 208.829426 137.317748 
z
" clip-path="url(#p827c8e52c9)" style="fill: #8d2d39"/>
   </g>
   <g id="patch_15">
    <path d="M 225.332847 257.09452 
L 229.183645 257.09452 
L 229.183645 122.844762 
L 225.332847 122.844762 
z
" clip-path="url(#p827c8e52c9)" style="fill: #8d2d39"/>
   </g>
   <g id="patch_16">
    <path d="M 241.836268 257.09452 
L 245.687066 257.09452 
L 245.687066 119.846254 
L 241.836268 119.846254 
z
" clip-path="url(#p827c8e52c9)" style="fill: #8d2d39"/>
   </g>
   <g id="patch_17">
    <path d="M 258.339689 257.09452 
L 262.190487 257.09452 
L 262.190487 126.285209 
L 258.339689 126.285209 
z
" clip-path="url(#p827c8e52c9)" style="fill: #8d2d39"/>
   </g>
   <g id="patch_18">
    <path d="M 274.84311 257.09452 
L 278.693908 257.09452 
L 278.693908 132.758499 
L 274.84311 132.758499 
z
" clip-path="url(#p827c8e52c9)" style="fill: #8d2d39"/>
   </g>
   <g id="patch_19">
    <path d="M 291.346531 257.09452 
L 295.19733 257.09452 
L 295.19733 119.183221 
L 291.346531 119.183221 
z
" clip-path="url(#p827c8e52c9)" style="fill: #8d2d39"/>
   </g>
   <g id="patch_20">
    <path d="M 307.849953 257.09452 
L 311.700751 257.09452 
L 311.700751 111.807914 
L 307.849953 111.807914 
z
" clip-path="url(#p827c8e52c9)" style="fill: #8d2d39"/>
   </g>
   <g id="patch_21">
    <path d="M 324.353374 257.09452 
L 328.204172 257.09452 
L 328.204172 140.248511 
L 324.353374 140.248511 
z
" clip-path="url(#p827c8e52c9)" style="fill: #8d2d39"/>
   </g>
   <g id="patch_22">
    <path d="M 340.856795 257.09452 
L 344.707593 257.09452 
L 344.707593 119.982653 
L 340.856795 119.982653 
z
" clip-path="url(#p827c8e52c9)" style="fill: #8d2d39"/>
   </g>
   <g id="patch_23">
    <path d="M 357.360216 257.09452 
L 361.211014 257.09452 
L 361.211014 136.015731 
L 357.360216 136.015731 
z
" clip-path="url(#p827c8e52c9)" style="fill: #8d2d39"/>
   </g>
   <g id="patch_24">
    <path d="M 373.863637 257.09452 
L 377.714435 257.09452 
L 377.714435 137.256761 
L 373.863637 137.256761 
z
" clip-path="url(#p827c8e52c9)" style="fill: #8d2d39"/>
   </g>
   <g id="patch_25">
    <path d="M 390.367058 257.09452 
L 394.217857 257.09452 
L 394.217857 138.825688 
L 390.367058 138.825688 
z
" clip-path="url(#p827c8e52c9)" style="fill: #8d2d39"/>
   </g>
   <g id="patch_26">
    <path d="M 406.870479 257.09452 
L 410.721278 257.09452 
L 410.721278 67.598885 
L 406.870479 67.598885 
z
" clip-path="url(#p827c8e52c9)" style="fill: #8d2d39"/>
   </g>
   <g id="patch_27">
    <path d="M 423.373901 257.09452 
L 427.224699 257.09452 
L 427.224699 123.304238 
L 423.373901 123.304238 
z
" clip-path="url(#p827c8e52c9)" style="fill: #8d2d39"/>
   </g>
   <g id="patch_28">
    <path d="M 439.877322 257.09452 
L 443.72812 257.09452 
L 443.72812 133.425246 
L 439.877322 133.425246 
z
" clip-path="url(#p827c8e52c9)" style="fill: #8d2d39"/>
   </g>
   <g id="patch_29">
    <path d="M 456.380743 257.09452 
L 460.231541 257.09452 
L 460.231541 116.620285 
L 456.380743 116.620285 
z
" clip-path="url(#p827c8e52c9)" style="fill: #8d2d39"/>
   </g>
   <g id="patch_30">
    <path d="M 472.884164 257.09452 
L 476.734962 257.09452 
L 476.734962 130.094175 
L 472.884164 130.094175 
z
" clip-path="url(#p827c8e52c9)" style="fill: #8d2d39"/>
   </g>
   <g id="patch_31">
    <path d="M 489.387585 257.09452 
L 493.238384 257.09452 
L 493.238384 114.709007 
L 489.387585 114.709007 
z
" clip-path="url(#p827c8e52c9)" style="fill: #8d2d39"/>
   </g>
   <g id="patch_32">
    <path d="M 505.891006 257.09452 
L 509.741805 257.09452 
L 509.741805 149.290613 
L 505.891006 149.290613 
z
" clip-path="url(#p827c8e52c9)" style="fill: #8d2d39"/>
   </g>
   <g id="patch_33">
    <path d="M 522.394428 257.09452 
L 526.245226 257.09452 
L 526.245226 117.930031 
L 522.394428 117.930031 
z
" clip-path="url(#p827c8e52c9)" style="fill: #8d2d39"/>
   </g>
   <g id="patch_34">
    <path d="M 538.897849 257.09452 
L 542.748647 257.09452 
L 542.748647 118.142451 
L 538.897849 118.142451 
z
" clip-path="url(#p827c8e52c9)" style="fill: #8d2d39"/>
   </g>
   <g id="patch_35">
    <path d="M 555.40127 257.09452 
L 559.252068 257.09452 
L 559.252068 104.675846 
L 555.40127 104.675846 
z
" clip-path="url(#p827c8e52c9)" style="fill: #8d2d39"/>
   </g>
   <g id="patch_36">
    <path d="M 31.142591 257.09452 
L 34.993389 257.09452 
L 34.993389 81.208744 
L 31.142591 81.208744 
z
" clip-path="url(#p827c8e52c9)" style="fill: #37414a"/>
   </g>
   <g id="patch_37">
    <path d="M 47.646012 257.09452 
L 51.49681 257.09452 
L 51.49681 173.947311 
L 47.646012 173.947311 
z
" clip-path="url(#p827c8e52c9)" style="fill: #37414a"/>
   </g>
   <g id="patch_38">
    <path d="M 64.149433 257.09452 
L 68.000232 257.09452 
L 68.000232 93.828403 
L 64.149433 93.828403 
z
" clip-path="url(#p827c8e52c9)" style="fill: #37414a"/>
   </g>
   <g id="patch_39">
    <path d="M 80.652855 257.09452 
L 84.503653 257.09452 
L 84.503653 133.51712 
L 80.652855 133.51712 
z
" clip-path="url(#p827c8e52c9)" style="fill: #37414a"/>
   </g>
   <g id="patch_40">
    <path d="M 97.156276 257.09452 
L 101.007074 257.09452 
L 101.007074 79.828579 
L 97.156276 79.828579 
z
" clip-path="url(#p827c8e52c9)" style="fill: #37414a"/>
   </g>
   <g id="patch_41">
    <path d="M 113.659697 257.09452 
L 117.510495 257.09452 
L 117.510495 55.440151 
L 113.659697 55.440151 
z
" clip-path="url(#p827c8e52c9)" style="fill: #37414a"/>
   </g>
   <g id="patch_42">
    <path d="M 130.163118 257.09452 
L 134.013916 257.09452 
L 134.013916 59.814311 
L 130.163118 59.814311 
z
" clip-path="url(#p827c8e52c9)" style="fill: #37414a"/>
   </g>
   <g id="patch_43">
    <path d="M 146.666539 257.09452 
L 150.517337 257.09452 
L 150.517337 81.764048 
L 146.666539 81.764048 
z
" clip-path="url(#p827c8e52c9)" style="fill: #37414a"/>
   </g>
   <g id="patch_44">
    <path d="M 163.16996 257.09452 
L 167.020759 257.09452 
L 167.020759 80.738461 
L 163.16996 80.738461 
z
" clip-path="url(#p827c8e52c9)" style="fill: #37414a"/>
   </g>
   <g id="patch_45">
    <path d="M 179.673381 257.09452 
L 183.52418 257.09452 
L 183.52418 121.416563 
L 179.673381 121.416563 
z
" clip-path="url(#p827c8e52c9)" style="fill: #37414a"/>
   </g>
   <g id="patch_46">
    <path d="M 196.176803 257.09452 
L 200.027601 257.09452 
L 200.027601 87.841688 
L 196.176803 87.841688 
z
" clip-path="url(#p827c8e52c9)" style="fill: #37414a"/>
   </g>
   <g id="patch_47">
    <path d="M 212.680224 257.09452 
L 216.531022 257.09452 
L 216.531022 31.720529 
L 212.680224 31.720529 
z
" clip-path="url(#p827c8e52c9)" style="fill: #37414a"/>
   </g>
   <g id="patch_48">
    <path d="M 229.183645 257.09452 
L 233.034443 257.09452 
L 233.034443 59.075463 
L 229.183645 59.075463 
z
" clip-path="url(#p827c8e52c9)" style="fill: #37414a"/>
   </g>
   <g id="patch_49">
    <path d="M 245.687066 257.09452 
L 249.537864 257.09452 
L 249.537864 69.396381 
L 245.687066 69.396381 
z
" clip-path="url(#p827c8e52c9)" style="fill: #37414a"/>
   </g>
   <g id="patch_50">
    <path d="M 262.190487 257.09452 
L 266.041286 257.09452 
L 266.041286 80.582049 
L 262.190487 80.582049 
z
" clip-path="url(#p827c8e52c9)" style="fill: #37414a"/>
   </g>
   <g id="patch_51">
    <path d="M 278.693908 257.09452 
L 282.544707 257.09452 
L 282.544707 84.620753 
L 278.693908 84.620753 
z
" clip-path="url(#p827c8e52c9)" style="fill: #37414a"/>
   </g>
   <g id="patch_52">
    <path d="M 295.19733 257.09452 
L 299.048128 257.09452 
L 299.048128 32.062722 
L 295.19733 32.062722 
z
" clip-path="url(#p827c8e52c9)" style="fill: #37414a"/>
   </g>
   <g id="patch_53">
    <path d="M 311.700751 257.09452 
L 315.551549 257.09452 
L 315.551549 25.499739 
L 311.700751 25.499739 
z
" clip-path="url(#p827c8e52c9)" style="fill: #37414a"/>
   </g>
   <g id="patch_54">
    <path d="M 328.204172 257.09452 
L 332.05497 257.09452 
L 332.05497 94.116106 
L 328.204172 94.116106 
z
" clip-path="url(#p827c8e52c9)" style="fill: #37414a"/>
   </g>
   <g id="patch_55">
    <path d="M 344.707593 257.09452 
L 348.558391 257.09452 
L 348.558391 84.264738 
L 344.707593 84.264738 
z
" clip-path="url(#p827c8e52c9)" style="fill: #37414a"/>
   </g>
   <g id="patch_56">
    <path d="M 361.211014 257.09452 
L 365.061813 257.09452 
L 365.061813 83.982493 
L 361.211014 83.982493 
z
" clip-path="url(#p827c8e52c9)" style="fill: #37414a"/>
   </g>
   <g id="patch_57">
    <path d="M 377.714435 257.09452 
L 381.565234 257.09452 
L 381.565234 91.879365 
L 377.714435 91.879365 
z
" clip-path="url(#p827c8e52c9)" style="fill: #37414a"/>
   </g>
   <g id="patch_58">
    <path d="M 394.217857 257.09452 
L 398.068655 257.09452 
L 398.068655 82.543337 
L 394.217857 82.543337 
z
" clip-path="url(#p827c8e52c9)" style="fill: #37414a"/>
   </g>
   <g id="patch_59">
    <path d="M 410.721278 257.09452 
L 414.572076 257.09452 
L 414.572076 33.766859 
L 410.721278 33.766859 
z
" clip-path="url(#p827c8e52c9)" style="fill: #37414a"/>
   </g>
   <g id="patch_60">
    <path d="M 427.224699 257.09452 
L 431.075497 257.09452 
L 431.075497 81.314202 
L 427.224699 81.314202 
z
" clip-path="url(#p827c8e52c9)" style="fill: #37414a"/>
   </g>
   <g id="patch_61">
    <path d="M 443.72812 257.09452 
L 447.578918 257.09452 
L 447.578918 42.775433 
L 443.72812 42.775433 
z
" clip-path="url(#p827c8e52c9)" style="fill: #37414a"/>
   </g>
   <g id="patch_62">
    <path d="M 460.231541 257.09452 
L 464.082339 257.09452 
L 464.082339 70.731037 
L 460.231541 70.731037 
z
" clip-path="url(#p827c8e52c9)" style="fill: #37414a"/>
   </g>
   <g id="patch_63">
    <path d="M 476.734962 257.09452 
L 480.585761 257.09452 
L 480.585761 54.746307 
L 476.734962 54.746307 
z
" clip-path="url(#p827c8e52c9)" style="fill: #37414a"/>
   </g>
   <g id="patch_64">
    <path d="M 493.238384 257.09452 
L 497.089182 257.09452 
L 497.089182 80.286687 
L 493.238384 80.286687 
z
" clip-path="url(#p827c8e52c9)" style="fill: #37414a"/>
   </g>
   <g id="patch_65">
    <path d="M 509.741805 257.09452 
L 513.592603 257.09452 
L 513.592603 127.349493 
L 509.741805 127.349493 
z
" clip-path="url(#p827c8e52c9)" style="fill: #37414a"/>
   </g>
   <g id="patch_66">
    <path d="M 526.245226 257.09452 
L 530.096024 257.09452 
L 530.096024 112.980364 
L 526.245226 112.980364 
z
" clip-path="url(#p827c8e52c9)" style="fill: #37414a"/>
   </g>
   <g id="patch_67">
    <path d="M 542.748647 257.09452 
L 546.599445 257.09452 
L 546.599445 72.845461 
L 542.748647 72.845461 
z
" clip-path="url(#p827c8e52c9)" style="fill: #37414a"/>
   </g>
   <g id="patch_68">
    <path d="M 559.252068 257.09452 
L 563.102866 257.09452 
L 563.102866 106.456161 
L 559.252068 106.456161 
z
" clip-path="url(#p827c8e52c9)" style="fill: #37414a"/>
   </g>
   <g id="patch_69">
    <path d="M 34.993389 257.09452 
L 38.844188 257.09452 
L 38.844188 101.327969 
L 34.993389 101.327969 
z
" clip-path="url(#p827c8e52c9)" style="fill: #ae9f6d"/>
   </g>
   <g id="patch_70">
    <path d="M 51.49681 257.09452 
L 55.347609 257.09452 
L 55.347609 156.347541 
L 51.49681 156.347541 
z
" clip-path="url(#p827c8e52c9)" style="fill: #ae9f6d"/>
   </g>
   <g id="patch_71">
    <path d="M 68.000232 257.09452 
L 71.85103 257.09452 
L 71.85103 108.567282 
L 68.000232 108.567282 
z
" clip-path="url(#p827c8e52c9)" style="fill: #ae9f6d"/>
   </g>
   <g id="patch_72">
    <path d="M 84.503653 257.09452 
L 88.354451 257.09452 
L 88.354451 115.731272 
L 84.503653 115.731272 
z
" clip-path="url(#p827c8e52c9)" style="fill: #ae9f6d"/>
   </g>
   <g id="patch_73">
    <path d="M 101.007074 257.09452 
L 104.857872 257.09452 
L 104.857872 112.892852 
L 101.007074 112.892852 
z
" clip-path="url(#p827c8e52c9)" style="fill: #ae9f6d"/>
   </g>
   <g id="patch_74">
    <path d="M 117.510495 257.09452 
L 121.361293 257.09452 
L 121.361293 103.984368 
L 117.510495 103.984368 
z
" clip-path="url(#p827c8e52c9)" style="fill: #ae9f6d"/>
   </g>
   <g id="patch_75">
    <path d="M 134.013916 257.09452 
L 137.864715 257.09452 
L 137.864715 116.40964 
L 134.013916 116.40964 
z
" clip-path="url(#p827c8e52c9)" style="fill: #ae9f6d"/>
   </g>
   <g id="patch_76">
    <path d="M 150.517337 257.09452 
L 154.368136 257.09452 
L 154.368136 105.942638 
L 150.517337 105.942638 
z
" clip-path="url(#p827c8e52c9)" style="fill: #ae9f6d"/>
   </g>
   <g id="patch_77">
    <path d="M 167.020759 257.09452 
L 170.871557 257.09452 
L 170.871557 115.018339 
L 167.020759 115.018339 
z
" clip-path="url(#p827c8e52c9)" style="fill: #ae9f6d"/>
   </g>
   <g id="patch_78">
    <path d="M 183.52418 257.09452 
L 187.374978 257.09452 
L 187.374978 130.047045 
L 183.52418 130.047045 
z
" clip-path="url(#p827c8e52c9)" style="fill: #ae9f6d"/>
   </g>
   <g id="patch_79">
    <path d="M 200.027601 257.09452 
L 203.878399 257.09452 
L 203.878399 99.365213 
L 200.027601 99.365213 
z
" clip-path="url(#p827c8e52c9)" style="fill: #ae9f6d"/>
   </g>
   <g id="patch_80">
    <path d="M 216.531022 257.09452 
L 220.38182 257.09452 
L 220.38182 116.198304 
L 216.531022 116.198304 
z
" clip-path="url(#p827c8e52c9)" style="fill: #ae9f6d"/>
   </g>
   <g id="patch_81">
    <path d="M 233.034443 257.09452 
L 236.885242 257.09452 
L 236.885242 110.090902 
L 233.034443 110.090902 
z
" clip-path="url(#p827c8e52c9)" style="fill: #ae9f6d"/>
   </g>
   <g id="patch_82">
    <path d="M 249.537864 257.09452 
L 253.388663 257.09452 
L 253.388663 109.756279 
L 249.537864 109.756279 
z
" clip-path="url(#p827c8e52c9)" style="fill: #ae9f6d"/>
   </g>
   <g id="patch_83">
    <path d="M 266.041286 257.09452 
L 269.892084 257.09452 
L 269.892084 117.144577 
L 266.041286 117.144577 
z
" clip-path="url(#p827c8e52c9)" style="fill: #ae9f6d"/>
   </g>
   <g id="patch_84">
    <path d="M 282.544707 257.09452 
L 286.395505 257.09452 
L 286.395505 123.13095 
L 282.544707 123.13095 
z
" clip-path="url(#p827c8e52c9)" style="fill: #ae9f6d"/>
   </g>
   <g id="patch_85">
    <path d="M 299.048128 257.09452 
L 302.898926 257.09452 
L 302.898926 101.759121 
L 299.048128 101.759121 
z
" clip-path="url(#p827c8e52c9)" style="fill: #ae9f6d"/>
   </g>
   <g id="patch_86">
    <path d="M 315.551549 257.09452 
L 319.402347 257.09452 
L 319.402347 94.546279 
L 315.551549 94.546279 
z
" clip-path="url(#p827c8e52c9)" style="fill: #ae9f6d"/>
   </g>
   <g id="patch_87">
    <path d="M 332.05497 257.09452 
L 335.905768 257.09452 
L 335.905768 131.02203 
L 332.05497 131.02203 
z
" clip-path="url(#p827c8e52c9)" style="fill: #ae9f6d"/>
   </g>
   <g id="patch_88">
    <path d="M 348.558391 257.09452 
L 352.40919 257.09452 
L 352.40919 112.83907 
L 348.558391 112.83907 
z
" clip-path="url(#p827c8e52c9)" style="fill: #ae9f6d"/>
   </g>
   <g id="patch_89">
    <path d="M 365.061813 257.09452 
L 368.912611 257.09452 
L 368.912611 125.609083 
L 365.061813 125.609083 
z
" clip-path="url(#p827c8e52c9)" style="fill: #ae9f6d"/>
   </g>
   <g id="patch_90">
    <path d="M 381.565234 257.09452 
L 385.416032 257.09452 
L 385.416032 128.181282 
L 381.565234 128.181282 
z
" clip-path="url(#p827c8e52c9)" style="fill: #ae9f6d"/>
   </g>
   <g id="patch_91">
    <path d="M 398.068655 257.09452 
L 401.919453 257.09452 
L 401.919453 127.569218 
L 398.068655 127.569218 
z
" clip-path="url(#p827c8e52c9)" style="fill: #ae9f6d"/>
   </g>
   <g id="patch_92">
    <path d="M 414.572076 257.09452 
L 418.422874 257.09452 
L 418.422874 60.83248 
L 414.572076 60.83248 
z
" clip-path="url(#p827c8e52c9)" style="fill: #ae9f6d"/>
   </g>
   <g id="patch_93">
    <path d="M 431.075497 257.09452 
L 434.926295 257.09452 
L 434.926295 114.90623 
L 431.075497 114.90623 
z
" clip-path="url(#p827c8e52c9)" style="fill: #ae9f6d"/>
   </g>
   <g id="patch_94">
    <path d="M 447.578918 257.09452 
L 451.429717 257.09452 
L 451.429717 115.295283 
L 447.578918 115.295283 
z
" clip-path="url(#p827c8e52c9)" style="fill: #ae9f6d"/>
   </g>
   <g id="patch_95">
    <path d="M 464.082339 257.09452 
L 467.933138 257.09452 
L 467.933138 107.442435 
L 464.082339 107.442435 
z
" clip-path="url(#p827c8e52c9)" style="fill: #ae9f6d"/>
   </g>
   <g id="patch_96">
    <path d="M 480.585761 257.09452 
L 484.436559 257.09452 
L 484.436559 115.024601 
L 480.585761 115.024601 
z
" clip-path="url(#p827c8e52c9)" style="fill: #ae9f6d"/>
   </g>
   <g id="patch_97">
    <path d="M 497.089182 257.09452 
L 500.93998 257.09452 
L 500.93998 107.824543 
L 497.089182 107.824543 
z
" clip-path="url(#p827c8e52c9)" style="fill: #ae9f6d"/>
   </g>
   <g id="patch_98">
    <path d="M 513.592603 257.09452 
L 517.443401 257.09452 
L 517.443401 144.902389 
L 513.592603 144.902389 
z
" clip-path="url(#p827c8e52c9)" style="fill: #ae9f6d"/>
   </g>
   <g id="patch_99">
    <path d="M 530.096024 257.09452 
L 533.946822 257.09452 
L 533.946822 116.940098 
L 530.096024 116.940098 
z
" clip-path="url(#p827c8e52c9)" style="fill: #ae9f6d"/>
   </g>
   <g id="patch_100">
    <path d="M 546.599445 257.09452 
L 550.450244 257.09452 
L 550.450244 109.083053 
L 546.599445 109.083053 
z
" clip-path="url(#p827c8e52c9)" style="fill: #ae9f6d"/>
   </g>
   <g id="patch_101">
    <path d="M 563.102866 257.09452 
L 566.953665 257.09452 
L 566.953665 105.031909 
L 563.102866 105.031909 
z
" clip-path="url(#p827c8e52c9)" style="fill: #ae9f6d"/>
   </g>
   <g id="patch_102">
    <path d="M 404.394966 257.09452 
L 404.394966 13.92 
L 420.898387 13.92 
L 420.898387 257.09452 
z
" clip-path="url(#p827c8e52c9)" style="fill: #0069aa; opacity: 0.2; stroke: #0069aa; stroke-width: 0.5; stroke-linejoin: miter"/>
   </g>
   <g id="patch_103">
    <path d="M 23.165938 257.09452 
L 23.165938 13.92 
" style="fill: none; stroke: #37414a; stroke-width: 0.5; stroke-linejoin: miter; stroke-linecap: square"/>
   </g>
   <g id="patch_104">
    <path d="M 23.165937 257.09452 
L 571.07952 257.09452 
" style="fill: none; stroke: #37414a; stroke-width: 0.5; stroke-linejoin: miter; stroke-linecap: square"/>
   </g>
   <g id="text_43">
    <!-- Weighted Standard Deviation with $w_1 = 0.8$ and $w_2 = 0.2$ -->
    <g style="fill: #37414a" transform="translate(170.402729 7.92)scale(0.09 -0.09)">
     <defs>
      <path id="DejaVuSans-ExtraLight-57" d="M 444 4666 
L 766 4666 
L 1831 369 
L 2894 4666 
L 3288 4666 
L 4344 394 
L 5406 4666 
L 5728 4666 
L 4569 0 
L 4122 0 
L 3091 4156 
L 2063 0 
L 1600 0 
L 444 4666 
z
" transform="scale(0.015625)"/>
      <path id="DejaVuSans-ExtraLight-65" d="M 3453 1894 
L 3453 1713 
L 797 1713 
Q 797 869 1125 531 
Q 1488 156 2203 156 
Q 2391 156 2700 238 
Q 3013 319 3319 481 
L 3319 178 
Q 3009 47 2684 -22 
Q 2359 -91 2169 -91 
Q 1359 -91 950 347 
Q 506 813 506 1713 
Q 506 2647 913 3106 
Q 1328 3584 2069 3584 
Q 2756 3584 3106 3131 
Q 3453 2656 3453 1894 
z
M 3163 1956 
Q 3163 2694 2831 3031 
Q 2553 3331 2075 3331 
Q 1553 3331 1200 3019 
Q 875 2728 809 1956 
L 3163 1956 
z
" transform="scale(0.015625)"/>
      <path id="DejaVuSans-ExtraLight-67" d="M 3050 1791 
Q 3050 2519 2754 2920 
Q 2459 3322 1925 3322 
Q 1397 3322 1101 2920 
Q 806 2519 806 1791 
Q 806 1066 1101 664 
Q 1397 263 1925 263 
Q 2459 263 2754 664 
Q 3050 1066 3050 1791 
z
M 3338 434 
Q 3338 -656 2922 -993 
Q 2506 -1331 1869 -1331 
Q 1566 -1331 1297 -1288 
Q 1028 -1241 775 -1147 
L 775 -819 
Q 1028 -956 1275 -1022 
Q 1522 -1088 1778 -1088 
Q 2300 -1088 2675 -866 
Q 3050 -644 3050 331 
L 3050 878 
Q 2922 519 2697 313 
Q 2353 -3 1925 0 
Q 1259 0 887 470 
Q 516 941 516 1794 
Q 516 2644 887 3114 
Q 1259 3584 1925 3584 
Q 2350 3584 2656 3316 
Q 2894 3106 3050 2756 
L 3050 3500 
L 3338 3500 
L 3338 434 
z
" transform="scale(0.015625)"/>
      <path id="DejaVuSans-ExtraLight-68" d="M 3369 2113 
L 3369 0 
L 3081 0 
L 3081 2094 
Q 3081 2769 2853 3050 
Q 2625 3331 2163 3331 
Q 1631 3331 1322 3018 
Q 1013 2706 1013 1978 
L 1013 0 
L 725 0 
L 725 4863 
L 1013 4863 
L 1013 2853 
Q 1113 3122 1369 3331 
Q 1675 3584 2231 3584 
Q 2750 3584 3059 3213 
Q 3369 2838 3369 2113 
z
" transform="scale(0.015625)"/>
      <path id="DejaVuSans-ExtraLight-64" d="M 3050 2700 
L 3050 4863 
L 3331 4863 
L 3331 0 
L 3050 0 
L 3050 794 
Q 2853 338 2622 169 
Q 2269 -91 1956 -91 
Q 1334 -91 921 415 
Q 509 922 509 1747 
Q 509 2572 921 3078 
Q 1334 3584 1956 3584 
Q 2269 3584 2622 3325 
Q 2853 3156 3050 2700 
z
M 1175 2966 
Q 813 2600 813 1747 
Q 813 894 1175 528 
Q 1534 163 1934 163 
Q 2325 163 2688 528 
Q 3047 894 3047 1747 
Q 3047 2600 2688 2966 
Q 2325 3331 1934 3331 
Q 1534 3331 1175 2966 
z
" transform="scale(0.015625)"/>
      <path id="DejaVuSans-ExtraLight-53" d="M 3388 4431 
L 3388 4138 
Q 3081 4291 2709 4409 
Q 2466 4488 2094 4494 
Q 1544 4503 1200 4250 
Q 888 4019 888 3456 
Q 888 3109 1125 2906 
Q 1378 2691 1888 2559 
L 2259 2463 
Q 2759 2331 3031 2150 
Q 3541 1803 3541 1278 
Q 3541 519 3094 225 
Q 2606 -91 2094 -91 
Q 1559 -91 1138 56 
Q 872 163 581 350 
L 581 656 
Q 1019 397 1194 325 
Q 1584 166 1919 166 
Q 2491 166 2869 419 
Q 3225 656 3225 1253 
Q 3225 1603 3006 1803 
Q 2691 2094 2188 2216 
L 1813 2306 
Q 1363 2416 1047 2613 
Q 569 2913 569 3431 
Q 569 4078 959 4425 
Q 1322 4747 2059 4750 
Q 2494 4750 2725 4675 
Q 3319 4481 3388 4431 
z
" transform="scale(0.015625)"/>
      <path id="DejaVuSans-ExtraLight-76" d="M 406 3500 
L 706 3500 
L 1894 316 
L 3078 3500 
L 3381 3500 
L 2078 0 
L 1709 0 
L 406 3500 
z
" transform="scale(0.015625)"/>
      <path id="DejaVuSans-ExtraLight-6f" d="M 2806 2900 
Q 2497 3331 1962 3331 
Q 1428 3331 1119 2903 
Q 806 2478 806 1753 
Q 806 1009 1116 584 
Q 1425 156 1963 156 
Q 2497 156 2806 584 
Q 3119 1016 3119 1753 
Q 3119 2469 2806 2900 
z
M 1959 3584 
Q 2628 3584 3016 3084 
Q 3406 2581 3406 1750 
Q 3406 891 3016 394 
Q 2628 -106 1959 -106 
Q 1284 -106 894 391 
Q 506 888 506 1750 
Q 506 2591 897 3087 
Q 1288 3584 1959 3584 
z
" transform="scale(0.015625)"/>
      <path id="DejaVuSans-ExtraLight-77" d="M 406 3500 
L 703 3500 
L 1525 381 
L 2341 3500 
L 2706 3500 
L 3528 366 
L 4347 3500 
L 4644 3500 
L 3728 0 
L 3328 0 
L 2522 3069 
L 1719 0 
L 1325 0 
L 406 3500 
z
" transform="scale(0.015625)"/>
      <path id="DejaVuSans-Oblique-77" d="M 544 3500 
L 1113 3500 
L 1259 684 
L 2566 3500 
L 3231 3500 
L 3425 684 
L 4666 3500 
L 5241 3500 
L 3641 0 
L 2969 0 
L 2797 2900 
L 1459 0 
L 781 0 
L 544 3500 
z
" transform="scale(0.015625)"/>
      <path id="DejaVuSans-ExtraLight-3d" d="M 678 2638 
L 4684 2638 
L 4684 2381 
L 678 2381 
L 678 2638 
z
M 678 1631 
L 4684 1631 
L 4684 1375 
L 678 1375 
L 678 1631 
z
" transform="scale(0.015625)"/>
     </defs>
     <use xlink:href="#DejaVuSans-ExtraLight-57" transform="translate(0 0.015625)"/>
     <use xlink:href="#DejaVuSans-ExtraLight-65" transform="translate(98.876953 0.015625)"/>
     <use xlink:href="#DejaVuSans-ExtraLight-69" transform="translate(160.400391 0.015625)"/>
     <use xlink:href="#DejaVuSans-ExtraLight-67" transform="translate(188.183594 0.015625)"/>
     <use xlink:href="#DejaVuSans-ExtraLight-68" transform="translate(248.193359 0.015625)"/>
     <use xlink:href="#DejaVuSans-ExtraLight-74" transform="translate(311.572266 0.015625)"/>
     <use xlink:href="#DejaVuSans-ExtraLight-65" transform="translate(350.78125 0.015625)"/>
     <use xlink:href="#DejaVuSans-ExtraLight-64" transform="translate(412.304688 0.015625)"/>
     <use xlink:href="#DejaVuSans-ExtraLight-20" transform="translate(475.78125 0.015625)"/>
     <use xlink:href="#DejaVuSans-ExtraLight-53" transform="translate(507.568359 0.015625)"/>
     <use xlink:href="#DejaVuSans-ExtraLight-74" transform="translate(571.044922 0.015625)"/>
     <use xlink:href="#DejaVuSans-ExtraLight-61" transform="translate(610.253906 0.015625)"/>
     <use xlink:href="#DejaVuSans-ExtraLight-6e" transform="translate(671.533203 0.015625)"/>
     <use xlink:href="#DejaVuSans-ExtraLight-64" transform="translate(734.912109 0.015625)"/>
     <use xlink:href="#DejaVuSans-ExtraLight-61" transform="translate(798.388672 0.015625)"/>
     <use xlink:href="#DejaVuSans-ExtraLight-72" transform="translate(859.667969 0.015625)"/>
     <use xlink:href="#DejaVuSans-ExtraLight-64" transform="translate(900.78125 0.015625)"/>
     <use xlink:href="#DejaVuSans-ExtraLight-20" transform="translate(964.257812 0.015625)"/>
     <use xlink:href="#DejaVuSans-ExtraLight-44" transform="translate(996.044922 0.015625)"/>
     <use xlink:href="#DejaVuSans-ExtraLight-65" transform="translate(1073.046875 0.015625)"/>
     <use xlink:href="#DejaVuSans-ExtraLight-76" transform="translate(1134.570312 0.015625)"/>
     <use xlink:href="#DejaVuSans-ExtraLight-69" transform="translate(1193.75 0.015625)"/>
     <use xlink:href="#DejaVuSans-ExtraLight-61" transform="translate(1221.533203 0.015625)"/>
     <use xlink:href="#DejaVuSans-ExtraLight-74" transform="translate(1282.8125 0.015625)"/>
     <use xlink:href="#DejaVuSans-ExtraLight-69" transform="translate(1322.021484 0.015625)"/>
     <use xlink:href="#DejaVuSans-ExtraLight-6f" transform="translate(1349.804688 0.015625)"/>
     <use xlink:href="#DejaVuSans-ExtraLight-6e" transform="translate(1410.986328 0.015625)"/>
     <use xlink:href="#DejaVuSans-ExtraLight-20" transform="translate(1474.365234 0.015625)"/>
     <use xlink:href="#DejaVuSans-ExtraLight-77" transform="translate(1506.152344 0.015625)"/>
     <use xlink:href="#DejaVuSans-ExtraLight-69" transform="translate(1587.939453 0.015625)"/>
     <use xlink:href="#DejaVuSans-ExtraLight-74" transform="translate(1615.722656 0.015625)"/>
     <use xlink:href="#DejaVuSans-ExtraLight-68" transform="translate(1654.931641 0.015625)"/>
     <use xlink:href="#DejaVuSans-ExtraLight-20" transform="translate(1718.310547 0.015625)"/>
     <use xlink:href="#DejaVuSans-Oblique-77" transform="translate(1750.097656 0.015625)"/>
     <use xlink:href="#DejaVuSans-ExtraLight-31" transform="translate(1831.884766 -16.390625)scale(0.7)"/>
     <use xlink:href="#DejaVuSans-ExtraLight-3d" transform="translate(1898.637695 0.015625)"/>
     <use xlink:href="#DejaVuSans-ExtraLight-30" transform="translate(2001.90918 0.015625)"/>
     <use xlink:href="#DejaVuSans-ExtraLight-2e" transform="translate(2065.532227 0.015625)"/>
     <use xlink:href="#DejaVuSans-ExtraLight-38" transform="translate(2094.694336 0.015625)"/>
     <use xlink:href="#DejaVuSans-ExtraLight-20" transform="translate(2158.317383 0.015625)"/>
     <use xlink:href="#DejaVuSans-ExtraLight-61" transform="translate(2190.104492 0.015625)"/>
     <use xlink:href="#DejaVuSans-ExtraLight-6e" transform="translate(2251.383789 0.015625)"/>
     <use xlink:href="#DejaVuSans-ExtraLight-64" transform="translate(2314.762695 0.015625)"/>
     <use xlink:href="#DejaVuSans-ExtraLight-20" transform="translate(2378.239258 0.015625)"/>
     <use xlink:href="#DejaVuSans-Oblique-77" transform="translate(2410.026367 0.015625)"/>
     <use xlink:href="#DejaVuSans-ExtraLight-32" transform="translate(2491.813477 -16.390625)scale(0.7)"/>
     <use xlink:href="#DejaVuSans-ExtraLight-3d" transform="translate(2558.566406 0.015625)"/>
     <use xlink:href="#DejaVuSans-ExtraLight-30" transform="translate(2661.837891 0.015625)"/>
     <use xlink:href="#DejaVuSans-ExtraLight-2e" transform="translate(2725.460938 0.015625)"/>
     <use xlink:href="#DejaVuSans-ExtraLight-32" transform="translate(2751.748047 0.015625)"/>
    </g>
   </g>
   <g id="legend_1">
    <g id="patch_105">
     <path d="M 28.065938 50.344062 
L 153.139531 50.344062 
Q 154.539531 50.344062 154.539531 48.944062 
L 154.539531 18.82 
Q 154.539531 17.42 153.139531 17.42 
L 28.065938 17.42 
Q 26.665938 17.42 26.665938 18.82 
L 26.665938 48.944062 
Q 26.665938 50.344062 28.065938 50.344062 
L 28.065938 50.344062 
z
" style="fill: none; opacity: 0.8; stroke: #37414a; stroke-width: 0.5; stroke-linejoin: miter"/>
    </g>
    <g id="patch_106">
     <path d="M 29.465938 25.538906 
L 43.465938 25.538906 
L 43.465938 20.638906 
L 29.465938 20.638906 
z
" style="fill: #8d2d39"/>
    </g>
    <g id="text_44">
     <!-- Standard Deviation FEV$_1$ -->
     <g style="fill: #37414a" transform="translate(49.065938 25.538906)scale(0.07 -0.07)">
      <defs>
       <path id="DejaVuSans-ExtraLight-46" d="M 781 4666 
L 3147 4666 
L 3147 4406 
L 1097 4406 
L 1097 2616 
L 2947 2616 
L 2947 2363 
L 1097 2363 
L 1097 0 
L 781 0 
L 781 4666 
z
" transform="scale(0.015625)"/>
       <path id="DejaVuSans-ExtraLight-45" d="M 778 4666 
L 3416 4666 
L 3416 4406 
L 1097 4406 
L 1097 2616 
L 3319 2616 
L 3319 2363 
L 1097 2363 
L 1097 253 
L 3472 253 
L 3472 0 
L 778 0 
L 778 4666 
z
" transform="scale(0.015625)"/>
       <path id="DejaVuSans-ExtraLight-56" d="M 1975 0 
L 194 4666 
L 550 4666 
L 2188 313 
L 3838 4666 
L 4166 4666 
L 2388 0 
L 1975 0 
z
" transform="scale(0.015625)"/>
      </defs>
      <use xlink:href="#DejaVuSans-ExtraLight-53" transform="translate(0 0.015625)"/>
      <use xlink:href="#DejaVuSans-ExtraLight-74" transform="translate(63.476562 0.015625)"/>
      <use xlink:href="#DejaVuSans-ExtraLight-61" transform="translate(102.685547 0.015625)"/>
      <use xlink:href="#DejaVuSans-ExtraLight-6e" transform="translate(163.964844 0.015625)"/>
      <use xlink:href="#DejaVuSans-ExtraLight-64" transform="translate(227.34375 0.015625)"/>
      <use xlink:href="#DejaVuSans-ExtraLight-61" transform="translate(290.820312 0.015625)"/>
      <use xlink:href="#DejaVuSans-ExtraLight-72" transform="translate(352.099609 0.015625)"/>
      <use xlink:href="#DejaVuSans-ExtraLight-64" transform="translate(393.212891 0.015625)"/>
      <use xlink:href="#DejaVuSans-ExtraLight-20" transform="translate(456.689453 0.015625)"/>
      <use xlink:href="#DejaVuSans-ExtraLight-44" transform="translate(488.476562 0.015625)"/>
      <use xlink:href="#DejaVuSans-ExtraLight-65" transform="translate(565.478516 0.015625)"/>
      <use xlink:href="#DejaVuSans-ExtraLight-76" transform="translate(627.001953 0.015625)"/>
      <use xlink:href="#DejaVuSans-ExtraLight-69" transform="translate(686.181641 0.015625)"/>
      <use xlink:href="#DejaVuSans-ExtraLight-61" transform="translate(713.964844 0.015625)"/>
      <use xlink:href="#DejaVuSans-ExtraLight-74" transform="translate(775.244141 0.015625)"/>
      <use xlink:href="#DejaVuSans-ExtraLight-69" transform="translate(814.453125 0.015625)"/>
      <use xlink:href="#DejaVuSans-ExtraLight-6f" transform="translate(842.236328 0.015625)"/>
      <use xlink:href="#DejaVuSans-ExtraLight-6e" transform="translate(903.417969 0.015625)"/>
      <use xlink:href="#DejaVuSans-ExtraLight-20" transform="translate(966.796875 0.015625)"/>
      <use xlink:href="#DejaVuSans-ExtraLight-46" transform="translate(998.583984 0.015625)"/>
      <use xlink:href="#DejaVuSans-ExtraLight-45" transform="translate(1056.103516 0.015625)"/>
      <use xlink:href="#DejaVuSans-ExtraLight-56" transform="translate(1119.287109 0.015625)"/>
      <use xlink:href="#DejaVuSans-ExtraLight-31" transform="translate(1188.652344 -16.390625)scale(0.7)"/>
     </g>
    </g>
    <g id="patch_107">
     <path d="M 29.465938 35.813594 
L 43.465938 35.813594 
L 43.465938 30.913594 
L 29.465938 30.913594 
z
" style="fill: #37414a"/>
    </g>
    <g id="text_45">
     <!-- Standard Deviation FVC -->
     <g style="fill: #37414a" transform="translate(49.065938 35.813594)scale(0.07 -0.07)">
      <defs>
       <path id="DejaVuSans-ExtraLight-43" d="M 4122 4278 
L 4122 3919 
Q 3803 4209 3444 4350 
Q 3081 4494 2675 4494 
Q 1794 4494 1328 3938 
Q 859 3381 859 2328 
Q 859 1275 1328 716 
Q 1794 156 2675 156 
Q 3081 156 3444 300 
Q 3803 447 4122 738 
L 4122 359 
Q 3791 134 3419 22 
Q 3050 -91 2638 -91 
Q 1656 -91 1094 556 
Q 531 1206 531 2328 
Q 531 3453 1094 4100 
Q 1656 4750 2638 4750 
Q 3056 4750 3425 4631 
Q 3797 4516 4122 4278 
z
" transform="scale(0.015625)"/>
      </defs>
      <use xlink:href="#DejaVuSans-ExtraLight-53"/>
      <use xlink:href="#DejaVuSans-ExtraLight-74" x="63.476562"/>
      <use xlink:href="#DejaVuSans-ExtraLight-61" x="102.685547"/>
      <use xlink:href="#DejaVuSans-ExtraLight-6e" x="163.964844"/>
      <use xlink:href="#DejaVuSans-ExtraLight-64" x="227.34375"/>
      <use xlink:href="#DejaVuSans-ExtraLight-61" x="290.820312"/>
      <use xlink:href="#DejaVuSans-ExtraLight-72" x="352.099609"/>
      <use xlink:href="#DejaVuSans-ExtraLight-64" x="391.462891"/>
      <use xlink:href="#DejaVuSans-ExtraLight-20" x="454.939453"/>
      <use xlink:href="#DejaVuSans-ExtraLight-44" x="486.726562"/>
      <use xlink:href="#DejaVuSans-ExtraLight-65" x="563.728516"/>
      <use xlink:href="#DejaVuSans-ExtraLight-76" x="625.251953"/>
      <use xlink:href="#DejaVuSans-ExtraLight-69" x="684.431641"/>
      <use xlink:href="#DejaVuSans-ExtraLight-61" x="712.214844"/>
      <use xlink:href="#DejaVuSans-ExtraLight-74" x="773.494141"/>
      <use xlink:href="#DejaVuSans-ExtraLight-69" x="812.703125"/>
      <use xlink:href="#DejaVuSans-ExtraLight-6f" x="840.486328"/>
      <use xlink:href="#DejaVuSans-ExtraLight-6e" x="901.667969"/>
      <use xlink:href="#DejaVuSans-ExtraLight-20" x="965.046875"/>
      <use xlink:href="#DejaVuSans-ExtraLight-46" x="996.833984"/>
      <use xlink:href="#DejaVuSans-ExtraLight-56" x="1054.353516"/>
      <use xlink:href="#DejaVuSans-ExtraLight-43" x="1122.761719"/>
     </g>
    </g>
    <g id="patch_108">
     <path d="M 29.465938 46.088281 
L 43.465938 46.088281 
L 43.465938 41.188281 
L 29.465938 41.188281 
z
" style="fill: #ae9f6d"/>
    </g>
    <g id="text_46">
     <!-- Weighted Standard Deviation -->
     <g style="fill: #37414a" transform="translate(49.065938 46.088281)scale(0.07 -0.07)">
      <use xlink:href="#DejaVuSans-ExtraLight-57"/>
      <use xlink:href="#DejaVuSans-ExtraLight-65" x="93.001953"/>
      <use xlink:href="#DejaVuSans-ExtraLight-69" x="154.525391"/>
      <use xlink:href="#DejaVuSans-ExtraLight-67" x="182.308594"/>
      <use xlink:href="#DejaVuSans-ExtraLight-68" x="242.318359"/>
      <use xlink:href="#DejaVuSans-ExtraLight-74" x="305.697266"/>
      <use xlink:href="#DejaVuSans-ExtraLight-65" x="344.90625"/>
      <use xlink:href="#DejaVuSans-ExtraLight-64" x="406.429688"/>
      <use xlink:href="#DejaVuSans-ExtraLight-20" x="469.90625"/>
      <use xlink:href="#DejaVuSans-ExtraLight-53" x="501.693359"/>
      <use xlink:href="#DejaVuSans-ExtraLight-74" x="565.169922"/>
      <use xlink:href="#DejaVuSans-ExtraLight-61" x="604.378906"/>
      <use xlink:href="#DejaVuSans-ExtraLight-6e" x="665.658203"/>
      <use xlink:href="#DejaVuSans-ExtraLight-64" x="729.037109"/>
      <use xlink:href="#DejaVuSans-ExtraLight-61" x="792.513672"/>
      <use xlink:href="#DejaVuSans-ExtraLight-72" x="853.792969"/>
      <use xlink:href="#DejaVuSans-ExtraLight-64" x="893.15625"/>
      <use xlink:href="#DejaVuSans-ExtraLight-20" x="956.632812"/>
      <use xlink:href="#DejaVuSans-ExtraLight-44" x="988.419922"/>
      <use xlink:href="#DejaVuSans-ExtraLight-65" x="1065.421875"/>
      <use xlink:href="#DejaVuSans-ExtraLight-76" x="1126.945312"/>
      <use xlink:href="#DejaVuSans-ExtraLight-69" x="1186.125"/>
      <use xlink:href="#DejaVuSans-ExtraLight-61" x="1213.908203"/>
      <use xlink:href="#DejaVuSans-ExtraLight-74" x="1275.1875"/>
      <use xlink:href="#DejaVuSans-ExtraLight-69" x="1314.396484"/>
      <use xlink:href="#DejaVuSans-ExtraLight-6f" x="1342.179688"/>
      <use xlink:href="#DejaVuSans-ExtraLight-6e" x="1403.361328"/>
     </g>
    </g>
   </g>
  </g>
 </g>
 <defs>
  <clipPath id="p827c8e52c9">
   <rect x="23.165938" y="13.92" width="547.913582" height="243.17452"/>
  </clipPath>
 </defs>
</svg>
