<?xml version="1.0" encoding="utf-8" standalone="no"?>
<!DOCTYPE svg PUBLIC "-//W3C//DTD SVG 1.1//EN"
  "http://www.w3.org/Graphics/SVG/1.1/DTD/svg11.dtd">
<svg xmlns:xlink="http://www.w3.org/1999/xlink" width="572.15952pt" height="284.15952pt" viewBox="0 0 572.15952 284.15952" xmlns="http://www.w3.org/2000/svg" version="1.1">
 <metadata>
  <rdf:RDF xmlns:dc="http://purl.org/dc/elements/1.1/" xmlns:cc="http://creativecommons.org/ns#" xmlns:rdf="http://www.w3.org/1999/02/22-rdf-syntax-ns#">
   <cc:Work>
    <dc:type rdf:resource="http://purl.org/dc/dcmitype/StillImage"/>
    <dc:date>2023-06-30T09:56:55.781860</dc:date>
    <dc:format>image/svg+xml</dc:format>
    <dc:creator>
     <cc:Agent>
      <dc:title>Matplotlib v3.5.1, https://matplotlib.org/</dc:title>
     </cc:Agent>
    </dc:creator>
   </cc:Work>
  </rdf:RDF>
 </metadata>
 <defs>
  <style type="text/css">*{stroke-linejoin: round; stroke-linecap: butt}</style>
 </defs>
 <g id="figure_1">
  <g id="patch_1">
   <path d="M 0 284.15952 
L 572.15952 284.15952 
L 572.15952 0 
L 0 0 
L 0 284.15952 
z
" style="fill: none"/>
  </g>
  <g id="axes_1">
   <g id="patch_2">
    <path d="M 16.4875 269.804832 
L 571.07952 269.804832 
L 571.07952 13.918594 
L 16.4875 13.918594 
L 16.4875 269.804832 
z
" style="fill: none"/>
   </g>
   <g id="matplotlib.axis_1">
    <g id="xtick_1">
     <g id="line2d_1">
      <defs>
       <path id="m3f840dba05" d="M 0 0 
L 0 3 
" style="stroke: #37414a; stroke-width: 0.5"/>
      </defs>
      <g>
       <use xlink:href="#m3f840dba05" x="26.510247" y="269.804832" style="fill: #37414a; stroke: #37414a; stroke-width: 0.5"/>
      </g>
     </g>
     <g id="text_1">
      <!-- 0 -->
      <g style="fill: #37414a" transform="translate(24.283372 281.623739)scale(0.07 -0.07)">
       <defs>
        <path id="DejaVuSans-ExtraLight-30" d="M 2016 4494 
Q 1444 4494 1166 3938 
Q 888 3378 888 2328 
Q 888 1278 1166 719 
Q 1444 163 2016 163 
Q 2606 163 2884 719 
Q 3163 1278 3163 2328 
Q 3163 3378 2884 3938 
Q 2606 4494 2016 4494 
z
M 2016 4750 
Q 2691 4750 3084 4200 
Q 3478 3647 3478 2328 
Q 3478 1009 3084 456 
Q 2691 -94 2016 -94 
Q 1359 -94 966 456 
Q 572 1009 572 2328 
Q 572 3647 966 4200 
Q 1359 4750 2016 4750 
z
" transform="scale(0.015625)"/>
       </defs>
       <use xlink:href="#DejaVuSans-ExtraLight-30"/>
      </g>
     </g>
    </g>
    <g id="xtick_2">
     <g id="line2d_2">
      <g>
       <use xlink:href="#m3f840dba05" x="43.214826" y="269.804832" style="fill: #37414a; stroke: #37414a; stroke-width: 0.5"/>
      </g>
     </g>
     <g id="text_2">
      <!-- 1 -->
      <g style="fill: #37414a" transform="translate(40.987951 281.623739)scale(0.07 -0.07)">
       <defs>
        <path id="DejaVuSans-ExtraLight-31" d="M 950 256 
L 1981 256 
L 1981 4378 
L 703 3866 
L 703 4153 
L 1975 4666 
L 2294 4666 
L 2294 256 
L 3325 256 
L 3325 0 
L 950 0 
L 950 256 
z
" transform="scale(0.015625)"/>
       </defs>
       <use xlink:href="#DejaVuSans-ExtraLight-31"/>
      </g>
     </g>
    </g>
    <g id="xtick_3">
     <g id="line2d_3">
      <g>
       <use xlink:href="#m3f840dba05" x="59.919405" y="269.804832" style="fill: #37414a; stroke: #37414a; stroke-width: 0.5"/>
      </g>
     </g>
     <g id="text_3">
      <!-- 2 -->
      <g style="fill: #37414a" transform="translate(57.69253 281.623739)scale(0.07 -0.07)">
       <defs>
        <path id="DejaVuSans-ExtraLight-32" d="M 769 253 
L 3431 253 
L 3431 0 
L 444 0 
L 444 328 
L 1606 1538 
Q 2038 1975 2388 2347 
Q 2713 2694 2822 2884 
Q 2931 3075 2931 3388 
Q 2931 3928 2600 4256 
Q 2359 4494 1825 4494 
Q 1513 4494 1106 4313 
Q 928 4231 500 3953 
L 500 4284 
Q 681 4413 1031 4569 
Q 1428 4747 1819 4750 
Q 2422 4750 2828 4441 
Q 3225 4131 3225 3419 
Q 3225 3131 3119 2875 
Q 2994 2575 2725 2266 
Q 2647 2175 2228 1744 
L 769 253 
z
" transform="scale(0.015625)"/>
       </defs>
       <use xlink:href="#DejaVuSans-ExtraLight-32"/>
      </g>
     </g>
    </g>
    <g id="xtick_4">
     <g id="line2d_4">
      <g>
       <use xlink:href="#m3f840dba05" x="76.623984" y="269.804832" style="fill: #37414a; stroke: #37414a; stroke-width: 0.5"/>
      </g>
     </g>
     <g id="text_4">
      <!-- 3 -->
      <g style="fill: #37414a" transform="translate(74.397109 281.623739)scale(0.07 -0.07)">
       <defs>
        <path id="DejaVuSans-ExtraLight-33" d="M 2597 2516 
Q 2972 2425 3188 2113 
Q 3400 1806 3400 1356 
Q 3400 666 3003 287 
Q 2606 -91 1734 -91 
Q 1441 -91 1131 0 
Q 819 94 488 288 
L 488 628 
Q 750 400 1063 281 
Q 1375 166 1700 166 
Q 2375 166 2731 472 
Q 3084 775 3084 1356 
Q 3084 1831 2756 2097 
Q 2425 2366 1838 2366 
L 1294 2366 
L 1294 2628 
L 1863 2628 
Q 2403 2628 2688 2844 
Q 2975 3063 2975 3475 
Q 2975 3963 2681 4225 
Q 2384 4488 1834 4488 
Q 1578 4488 1281 4397 
Q 984 4306 628 4116 
L 628 4441 
Q 988 4594 1300 4666 
Q 1616 4744 1894 4750 
Q 2609 4750 2950 4425 
Q 3294 4097 3294 3541 
Q 3294 3169 3113 2888 
Q 2938 2616 2597 2516 
z
" transform="scale(0.015625)"/>
       </defs>
       <use xlink:href="#DejaVuSans-ExtraLight-33"/>
      </g>
     </g>
    </g>
    <g id="xtick_5">
     <g id="line2d_5">
      <g>
       <use xlink:href="#m3f840dba05" x="93.328563" y="269.804832" style="fill: #37414a; stroke: #37414a; stroke-width: 0.5"/>
      </g>
     </g>
     <g id="text_5">
      <!-- 4 -->
      <g style="fill: #37414a" transform="translate(91.101688 281.623739)scale(0.07 -0.07)">
       <defs>
        <path id="DejaVuSans-ExtraLight-34" d="M 2575 4494 
L 638 1488 
L 2575 1488 
L 2575 4494 
z
M 2331 4666 
L 2894 4666 
L 2894 1488 
L 3559 1488 
L 3559 1238 
L 2894 1238 
L 2894 0 
L 2575 0 
L 2575 1238 
L 313 1238 
L 313 1563 
L 2331 4666 
z
" transform="scale(0.015625)"/>
       </defs>
       <use xlink:href="#DejaVuSans-ExtraLight-34"/>
      </g>
     </g>
    </g>
    <g id="xtick_6">
     <g id="line2d_6">
      <g>
       <use xlink:href="#m3f840dba05" x="110.033142" y="269.804832" style="fill: #37414a; stroke: #37414a; stroke-width: 0.5"/>
      </g>
     </g>
     <g id="text_6">
      <!-- 5 -->
      <g style="fill: #37414a" transform="translate(107.806267 281.623739)scale(0.07 -0.07)">
       <defs>
        <path id="DejaVuSans-ExtraLight-35" d="M 816 4666 
L 3031 4666 
L 3031 4413 
L 1131 4413 
L 1131 2847 
Q 1269 2897 1406 2925 
Q 1544 2950 1809 2950 
Q 2525 2950 2944 2556 
Q 3359 2166 3359 1497 
Q 3359 744 2931 325 
Q 2503 -91 1722 -91 
Q 1463 -91 1191 -47 
Q 922 -3 631 84 
L 631 403 
Q 875 288 1138 228 
Q 1397 172 1688 172 
Q 2313 172 2681 528 
Q 3050 884 3050 1497 
Q 3050 2050 2691 2372 
Q 2328 2697 1709 2697 
Q 1581 2697 1331 2628 
Q 1078 2563 816 2422 
L 816 4666 
z
" transform="scale(0.015625)"/>
       </defs>
       <use xlink:href="#DejaVuSans-ExtraLight-35"/>
      </g>
     </g>
    </g>
    <g id="xtick_7">
     <g id="line2d_7">
      <g>
       <use xlink:href="#m3f840dba05" x="126.737721" y="269.804832" style="fill: #37414a; stroke: #37414a; stroke-width: 0.5"/>
      </g>
     </g>
     <g id="text_7">
      <!-- 6 -->
      <g style="fill: #37414a" transform="translate(124.510846 281.623739)scale(0.07 -0.07)">
       <defs>
        <path id="DejaVuSans-ExtraLight-36" d="M 2900 2365 
Q 2609 2706 2112 2706 
Q 1616 2706 1325 2365 
Q 1034 2025 1034 1434 
Q 1034 844 1325 503 
Q 1616 163 2112 163 
Q 2609 163 2900 503 
Q 3191 844 3191 1434 
Q 3191 2025 2900 2365 
z
M 3278 4563 
L 3278 4231 
Q 3059 4363 2841 4431 
Q 2619 4500 2403 4500 
Q 1472 4500 1100 3584 
Q 931 3169 944 2175 
Q 1103 2519 1347 2713 
Q 1663 2966 2150 2966 
Q 2738 2966 3128 2550 
Q 3516 2138 3516 1497 
Q 3516 778 3134 343 
Q 2753 -91 2141 -91 
Q 1400 -91 1009 531 
Q 622 1150 622 2328 
Q 622 3584 1100 4169 
Q 1575 4750 2381 4750 
Q 2597 4750 2819 4703 
Q 3038 4656 3278 4563 
z
" transform="scale(0.015625)"/>
       </defs>
       <use xlink:href="#DejaVuSans-ExtraLight-36"/>
      </g>
     </g>
    </g>
    <g id="xtick_8">
     <g id="line2d_8">
      <g>
       <use xlink:href="#m3f840dba05" x="143.4423" y="269.804832" style="fill: #37414a; stroke: #37414a; stroke-width: 0.5"/>
      </g>
     </g>
     <g id="text_8">
      <!-- 7 -->
      <g style="fill: #37414a" transform="translate(141.215425 281.623739)scale(0.07 -0.07)">
       <defs>
        <path id="DejaVuSans-ExtraLight-37" d="M 525 4666 
L 3363 4666 
L 3363 4397 
L 1669 0 
L 1338 0 
L 3034 4409 
L 525 4409 
L 525 4666 
z
" transform="scale(0.015625)"/>
       </defs>
       <use xlink:href="#DejaVuSans-ExtraLight-37"/>
      </g>
     </g>
    </g>
    <g id="xtick_9">
     <g id="line2d_9">
      <g>
       <use xlink:href="#m3f840dba05" x="160.146879" y="269.804832" style="fill: #37414a; stroke: #37414a; stroke-width: 0.5"/>
      </g>
     </g>
     <g id="text_9">
      <!-- 8 -->
      <g style="fill: #37414a" transform="translate(157.920004 281.623739)scale(0.07 -0.07)">
       <defs>
        <path id="DejaVuSans-ExtraLight-38" d="M 2034 2325 
Q 1513 2325 1213 2038 
Q 916 1747 916 1240 
Q 916 734 1213 447 
Q 1513 156 2034 156 
Q 2556 156 2856 447 
Q 3159 738 3159 1241 
Q 3159 1747 2859 2038 
Q 2559 2325 2034 2325 
z
M 1403 2484 
Q 1100 2597 906 2863 
Q 703 3141 703 3541 
Q 703 4100 1059 4425 
Q 1416 4750 2034 4750 
Q 2656 4750 3009 4425 
Q 3366 4100 3366 3541 
Q 3366 3125 3163 2863 
Q 2953 2591 2669 2484 
Q 3019 2369 3238 2069 
Q 3466 1759 3466 1313 
Q 3466 634 3097 272 
Q 2725 -91 2034 -91 
Q 1344 -91 972 272 
Q 603 634 603 1313 
Q 603 1759 831 2069 
Q 1084 2378 1403 2484 
z
M 1287 4241 
Q 1022 3988 1022 3534 
Q 1022 3081 1287 2828 
Q 1553 2575 2034 2575 
Q 2509 2575 2781 2828 
Q 3050 3081 3050 3534 
Q 3050 3988 2781 4241 
Q 2509 4494 2034 4494 
Q 1553 4494 1287 4241 
z
" transform="scale(0.015625)"/>
       </defs>
       <use xlink:href="#DejaVuSans-ExtraLight-38"/>
      </g>
     </g>
    </g>
    <g id="xtick_10">
     <g id="line2d_10">
      <g>
       <use xlink:href="#m3f840dba05" x="176.851458" y="269.804832" style="fill: #37414a; stroke: #37414a; stroke-width: 0.5"/>
      </g>
     </g>
     <g id="text_10">
      <!-- 9 -->
      <g style="fill: #37414a" transform="translate(174.624583 281.623739)scale(0.07 -0.07)">
       <defs>
        <path id="DejaVuSans-ExtraLight-39" d="M 859 97 
L 859 428 
Q 1078 297 1297 228 
Q 1519 159 1734 159 
Q 2666 159 3038 1075 
Q 3206 1491 3194 2484 
Q 3034 2141 2791 1947 
Q 2475 1694 1988 1694 
Q 1400 1694 1009 2109 
Q 622 2522 622 3163 
Q 622 3881 1003 4316 
Q 1388 4750 1997 4750 
Q 2738 4750 3128 4131 
Q 3516 3509 3516 2331 
Q 3516 1075 3041 494 
Q 2563 -91 1756 -91 
Q 1541 -91 1319 -44 
Q 1100 3 859 97 
z
M 1237 2293 
Q 1528 1953 2025 1953 
Q 2522 1953 2812 2293 
Q 3103 2634 3103 3225 
Q 3103 3816 2812 4156 
Q 2522 4497 2025 4497 
Q 1528 4497 1237 4156 
Q 947 3816 947 3225 
Q 947 2634 1237 2293 
z
" transform="scale(0.015625)"/>
       </defs>
       <use xlink:href="#DejaVuSans-ExtraLight-39"/>
      </g>
     </g>
    </g>
    <g id="xtick_11">
     <g id="line2d_11">
      <g>
       <use xlink:href="#m3f840dba05" x="193.556037" y="269.804832" style="fill: #37414a; stroke: #37414a; stroke-width: 0.5"/>
      </g>
     </g>
     <g id="text_11">
      <!-- 10 -->
      <g style="fill: #37414a" transform="translate(189.102287 281.623739)scale(0.07 -0.07)">
       <use xlink:href="#DejaVuSans-ExtraLight-31"/>
       <use xlink:href="#DejaVuSans-ExtraLight-30" x="63.623047"/>
      </g>
     </g>
    </g>
    <g id="xtick_12">
     <g id="line2d_12">
      <g>
       <use xlink:href="#m3f840dba05" x="210.260615" y="269.804832" style="fill: #37414a; stroke: #37414a; stroke-width: 0.5"/>
      </g>
     </g>
     <g id="text_12">
      <!-- 11 -->
      <g style="fill: #37414a" transform="translate(205.806865 281.623739)scale(0.07 -0.07)">
       <use xlink:href="#DejaVuSans-ExtraLight-31"/>
       <use xlink:href="#DejaVuSans-ExtraLight-31" x="63.623047"/>
      </g>
     </g>
    </g>
    <g id="xtick_13">
     <g id="line2d_13">
      <g>
       <use xlink:href="#m3f840dba05" x="226.965194" y="269.804832" style="fill: #37414a; stroke: #37414a; stroke-width: 0.5"/>
      </g>
     </g>
     <g id="text_13">
      <!-- 12 -->
      <g style="fill: #37414a" transform="translate(222.511444 281.623739)scale(0.07 -0.07)">
       <use xlink:href="#DejaVuSans-ExtraLight-31"/>
       <use xlink:href="#DejaVuSans-ExtraLight-32" x="63.623047"/>
      </g>
     </g>
    </g>
    <g id="xtick_14">
     <g id="line2d_14">
      <g>
       <use xlink:href="#m3f840dba05" x="243.669773" y="269.804832" style="fill: #37414a; stroke: #37414a; stroke-width: 0.5"/>
      </g>
     </g>
     <g id="text_14">
      <!-- 13 -->
      <g style="fill: #37414a" transform="translate(239.216023 281.623739)scale(0.07 -0.07)">
       <use xlink:href="#DejaVuSans-ExtraLight-31"/>
       <use xlink:href="#DejaVuSans-ExtraLight-33" x="63.623047"/>
      </g>
     </g>
    </g>
    <g id="xtick_15">
     <g id="line2d_15">
      <g>
       <use xlink:href="#m3f840dba05" x="260.374352" y="269.804832" style="fill: #37414a; stroke: #37414a; stroke-width: 0.5"/>
      </g>
     </g>
     <g id="text_15">
      <!-- 14 -->
      <g style="fill: #37414a" transform="translate(255.920602 281.623739)scale(0.07 -0.07)">
       <use xlink:href="#DejaVuSans-ExtraLight-31"/>
       <use xlink:href="#DejaVuSans-ExtraLight-34" x="63.623047"/>
      </g>
     </g>
    </g>
    <g id="xtick_16">
     <g id="line2d_16">
      <g>
       <use xlink:href="#m3f840dba05" x="277.078931" y="269.804832" style="fill: #37414a; stroke: #37414a; stroke-width: 0.5"/>
      </g>
     </g>
     <g id="text_16">
      <!-- 15 -->
      <g style="fill: #37414a" transform="translate(272.625181 281.623739)scale(0.07 -0.07)">
       <use xlink:href="#DejaVuSans-ExtraLight-31"/>
       <use xlink:href="#DejaVuSans-ExtraLight-35" x="63.623047"/>
      </g>
     </g>
    </g>
    <g id="xtick_17">
     <g id="line2d_17">
      <g>
       <use xlink:href="#m3f840dba05" x="293.78351" y="269.804832" style="fill: #37414a; stroke: #37414a; stroke-width: 0.5"/>
      </g>
     </g>
     <g id="text_17">
      <!-- 16 -->
      <g style="fill: #37414a" transform="translate(289.32976 281.623739)scale(0.07 -0.07)">
       <use xlink:href="#DejaVuSans-ExtraLight-31"/>
       <use xlink:href="#DejaVuSans-ExtraLight-36" x="63.623047"/>
      </g>
     </g>
    </g>
    <g id="xtick_18">
     <g id="line2d_18">
      <g>
       <use xlink:href="#m3f840dba05" x="310.488089" y="269.804832" style="fill: #37414a; stroke: #37414a; stroke-width: 0.5"/>
      </g>
     </g>
     <g id="text_18">
      <!-- 17 -->
      <g style="fill: #37414a" transform="translate(306.034339 281.623739)scale(0.07 -0.07)">
       <use xlink:href="#DejaVuSans-ExtraLight-31"/>
       <use xlink:href="#DejaVuSans-ExtraLight-37" x="63.623047"/>
      </g>
     </g>
    </g>
    <g id="xtick_19">
     <g id="line2d_19">
      <g>
       <use xlink:href="#m3f840dba05" x="327.192668" y="269.804832" style="fill: #37414a; stroke: #37414a; stroke-width: 0.5"/>
      </g>
     </g>
     <g id="text_19">
      <!-- 18 -->
      <g style="fill: #37414a" transform="translate(322.738918 281.623739)scale(0.07 -0.07)">
       <use xlink:href="#DejaVuSans-ExtraLight-31"/>
       <use xlink:href="#DejaVuSans-ExtraLight-38" x="63.623047"/>
      </g>
     </g>
    </g>
    <g id="xtick_20">
     <g id="line2d_20">
      <g>
       <use xlink:href="#m3f840dba05" x="343.897247" y="269.804832" style="fill: #37414a; stroke: #37414a; stroke-width: 0.5"/>
      </g>
     </g>
     <g id="text_20">
      <!-- 19 -->
      <g style="fill: #37414a" transform="translate(339.443497 281.623739)scale(0.07 -0.07)">
       <use xlink:href="#DejaVuSans-ExtraLight-31"/>
       <use xlink:href="#DejaVuSans-ExtraLight-39" x="63.623047"/>
      </g>
     </g>
    </g>
    <g id="xtick_21">
     <g id="line2d_21">
      <g>
       <use xlink:href="#m3f840dba05" x="360.601826" y="269.804832" style="fill: #37414a; stroke: #37414a; stroke-width: 0.5"/>
      </g>
     </g>
     <g id="text_21">
      <!-- 20 -->
      <g style="fill: #37414a" transform="translate(356.148076 281.623739)scale(0.07 -0.07)">
       <use xlink:href="#DejaVuSans-ExtraLight-32"/>
       <use xlink:href="#DejaVuSans-ExtraLight-30" x="63.623047"/>
      </g>
     </g>
    </g>
    <g id="xtick_22">
     <g id="line2d_22">
      <g>
       <use xlink:href="#m3f840dba05" x="377.306405" y="269.804832" style="fill: #37414a; stroke: #37414a; stroke-width: 0.5"/>
      </g>
     </g>
     <g id="text_22">
      <!-- 21 -->
      <g style="fill: #37414a" transform="translate(372.852655 281.623739)scale(0.07 -0.07)">
       <use xlink:href="#DejaVuSans-ExtraLight-32"/>
       <use xlink:href="#DejaVuSans-ExtraLight-31" x="63.623047"/>
      </g>
     </g>
    </g>
    <g id="xtick_23">
     <g id="line2d_23">
      <g>
       <use xlink:href="#m3f840dba05" x="394.010983" y="269.804832" style="fill: #37414a; stroke: #37414a; stroke-width: 0.5"/>
      </g>
     </g>
     <g id="text_23">
      <!-- 22 -->
      <g style="fill: #37414a" transform="translate(389.557233 281.623739)scale(0.07 -0.07)">
       <use xlink:href="#DejaVuSans-ExtraLight-32"/>
       <use xlink:href="#DejaVuSans-ExtraLight-32" x="63.623047"/>
      </g>
     </g>
    </g>
    <g id="xtick_24">
     <g id="line2d_24">
      <g>
       <use xlink:href="#m3f840dba05" x="410.715562" y="269.804832" style="fill: #37414a; stroke: #37414a; stroke-width: 0.5"/>
      </g>
     </g>
     <g id="text_24">
      <!-- 23 -->
      <g style="fill: #37414a" transform="translate(406.261812 281.623739)scale(0.07 -0.07)">
       <use xlink:href="#DejaVuSans-ExtraLight-32"/>
       <use xlink:href="#DejaVuSans-ExtraLight-33" x="63.623047"/>
      </g>
     </g>
    </g>
    <g id="xtick_25">
     <g id="line2d_25">
      <g>
       <use xlink:href="#m3f840dba05" x="427.420141" y="269.804832" style="fill: #37414a; stroke: #37414a; stroke-width: 0.5"/>
      </g>
     </g>
     <g id="text_25">
      <!-- 24 -->
      <g style="fill: #37414a" transform="translate(422.966391 281.623739)scale(0.07 -0.07)">
       <use xlink:href="#DejaVuSans-ExtraLight-32"/>
       <use xlink:href="#DejaVuSans-ExtraLight-34" x="63.623047"/>
      </g>
     </g>
    </g>
    <g id="xtick_26">
     <g id="line2d_26">
      <g>
       <use xlink:href="#m3f840dba05" x="444.12472" y="269.804832" style="fill: #37414a; stroke: #37414a; stroke-width: 0.5"/>
      </g>
     </g>
     <g id="text_26">
      <!-- 25 -->
      <g style="fill: #37414a" transform="translate(439.67097 281.623739)scale(0.07 -0.07)">
       <use xlink:href="#DejaVuSans-ExtraLight-32"/>
       <use xlink:href="#DejaVuSans-ExtraLight-35" x="63.623047"/>
      </g>
     </g>
    </g>
    <g id="xtick_27">
     <g id="line2d_27">
      <g>
       <use xlink:href="#m3f840dba05" x="460.829299" y="269.804832" style="fill: #37414a; stroke: #37414a; stroke-width: 0.5"/>
      </g>
     </g>
     <g id="text_27">
      <!-- 26 -->
      <g style="fill: #37414a" transform="translate(456.375549 281.623739)scale(0.07 -0.07)">
       <use xlink:href="#DejaVuSans-ExtraLight-32"/>
       <use xlink:href="#DejaVuSans-ExtraLight-36" x="63.623047"/>
      </g>
     </g>
    </g>
    <g id="xtick_28">
     <g id="line2d_28">
      <g>
       <use xlink:href="#m3f840dba05" x="477.533878" y="269.804832" style="fill: #37414a; stroke: #37414a; stroke-width: 0.5"/>
      </g>
     </g>
     <g id="text_28">
      <!-- 27 -->
      <g style="fill: #37414a" transform="translate(473.080128 281.623739)scale(0.07 -0.07)">
       <use xlink:href="#DejaVuSans-ExtraLight-32"/>
       <use xlink:href="#DejaVuSans-ExtraLight-37" x="63.623047"/>
      </g>
     </g>
    </g>
    <g id="xtick_29">
     <g id="line2d_29">
      <g>
       <use xlink:href="#m3f840dba05" x="494.238457" y="269.804832" style="fill: #37414a; stroke: #37414a; stroke-width: 0.5"/>
      </g>
     </g>
     <g id="text_29">
      <!-- 28 -->
      <g style="fill: #37414a" transform="translate(489.784707 281.623739)scale(0.07 -0.07)">
       <use xlink:href="#DejaVuSans-ExtraLight-32"/>
       <use xlink:href="#DejaVuSans-ExtraLight-38" x="63.623047"/>
      </g>
     </g>
    </g>
    <g id="xtick_30">
     <g id="line2d_30">
      <g>
       <use xlink:href="#m3f840dba05" x="510.943036" y="269.804832" style="fill: #37414a; stroke: #37414a; stroke-width: 0.5"/>
      </g>
     </g>
     <g id="text_30">
      <!-- 29 -->
      <g style="fill: #37414a" transform="translate(506.489286 281.623739)scale(0.07 -0.07)">
       <use xlink:href="#DejaVuSans-ExtraLight-32"/>
       <use xlink:href="#DejaVuSans-ExtraLight-39" x="63.623047"/>
      </g>
     </g>
    </g>
    <g id="xtick_31">
     <g id="line2d_31">
      <g>
       <use xlink:href="#m3f840dba05" x="527.647615" y="269.804832" style="fill: #37414a; stroke: #37414a; stroke-width: 0.5"/>
      </g>
     </g>
     <g id="text_31">
      <!-- 30 -->
      <g style="fill: #37414a" transform="translate(523.193865 281.623739)scale(0.07 -0.07)">
       <use xlink:href="#DejaVuSans-ExtraLight-33"/>
       <use xlink:href="#DejaVuSans-ExtraLight-30" x="63.623047"/>
      </g>
     </g>
    </g>
    <g id="xtick_32">
     <g id="line2d_32">
      <g>
       <use xlink:href="#m3f840dba05" x="544.352194" y="269.804832" style="fill: #37414a; stroke: #37414a; stroke-width: 0.5"/>
      </g>
     </g>
     <g id="text_32">
      <!-- 31 -->
      <g style="fill: #37414a" transform="translate(539.898444 281.623739)scale(0.07 -0.07)">
       <use xlink:href="#DejaVuSans-ExtraLight-33"/>
       <use xlink:href="#DejaVuSans-ExtraLight-31" x="63.623047"/>
      </g>
     </g>
    </g>
    <g id="xtick_33">
     <g id="line2d_33">
      <g>
       <use xlink:href="#m3f840dba05" x="561.056773" y="269.804832" style="fill: #37414a; stroke: #37414a; stroke-width: 0.5"/>
      </g>
     </g>
     <g id="text_33">
      <!-- 32 -->
      <g style="fill: #37414a" transform="translate(556.603023 281.623739)scale(0.07 -0.07)">
       <use xlink:href="#DejaVuSans-ExtraLight-33"/>
       <use xlink:href="#DejaVuSans-ExtraLight-32" x="63.623047"/>
      </g>
     </g>
    </g>
   </g>
   <g id="matplotlib.axis_2">
    <g id="ytick_1">
     <g id="line2d_34">
      <defs>
       <path id="mf8542320c9" d="M 0 0 
L -3 0 
" style="stroke: #37414a; stroke-width: 0.5"/>
      </defs>
      <g>
       <use xlink:href="#mf8542320c9" x="16.4875" y="269.804832" style="fill: #37414a; stroke: #37414a; stroke-width: 0.5"/>
      </g>
     </g>
     <g id="text_34">
      <!-- 0 -->
      <g style="fill: #37414a" transform="translate(5.53375 272.464286)scale(0.07 -0.07)">
       <use xlink:href="#DejaVuSans-ExtraLight-30"/>
      </g>
     </g>
    </g>
    <g id="ytick_2">
     <g id="line2d_35">
      <g>
       <use xlink:href="#mf8542320c9" x="16.4875" y="232.880411" style="fill: #37414a; stroke: #37414a; stroke-width: 0.5"/>
      </g>
     </g>
     <g id="text_35">
      <!-- 5 -->
      <g style="fill: #37414a" transform="translate(5.53375 235.539864)scale(0.07 -0.07)">
       <use xlink:href="#DejaVuSans-ExtraLight-35"/>
      </g>
     </g>
    </g>
    <g id="ytick_3">
     <g id="line2d_36">
      <g>
       <use xlink:href="#mf8542320c9" x="16.4875" y="195.95599" style="fill: #37414a; stroke: #37414a; stroke-width: 0.5"/>
      </g>
     </g>
     <g id="text_36">
      <!-- 10 -->
      <g style="fill: #37414a" transform="translate(1.08 198.615443)scale(0.07 -0.07)">
       <use xlink:href="#DejaVuSans-ExtraLight-31"/>
       <use xlink:href="#DejaVuSans-ExtraLight-30" x="63.623047"/>
      </g>
     </g>
    </g>
    <g id="ytick_4">
     <g id="line2d_37">
      <g>
       <use xlink:href="#mf8542320c9" x="16.4875" y="159.031569" style="fill: #37414a; stroke: #37414a; stroke-width: 0.5"/>
      </g>
     </g>
     <g id="text_37">
      <!-- 15 -->
      <g style="fill: #37414a" transform="translate(1.08 161.691022)scale(0.07 -0.07)">
       <use xlink:href="#DejaVuSans-ExtraLight-31"/>
       <use xlink:href="#DejaVuSans-ExtraLight-35" x="63.623047"/>
      </g>
     </g>
    </g>
    <g id="ytick_5">
     <g id="line2d_38">
      <g>
       <use xlink:href="#mf8542320c9" x="16.4875" y="122.107148" style="fill: #37414a; stroke: #37414a; stroke-width: 0.5"/>
      </g>
     </g>
     <g id="text_38">
      <!-- 20 -->
      <g style="fill: #37414a" transform="translate(1.08 124.766601)scale(0.07 -0.07)">
       <use xlink:href="#DejaVuSans-ExtraLight-32"/>
       <use xlink:href="#DejaVuSans-ExtraLight-30" x="63.623047"/>
      </g>
     </g>
    </g>
    <g id="ytick_6">
     <g id="line2d_39">
      <g>
       <use xlink:href="#mf8542320c9" x="16.4875" y="85.182727" style="fill: #37414a; stroke: #37414a; stroke-width: 0.5"/>
      </g>
     </g>
     <g id="text_39">
      <!-- 25 -->
      <g style="fill: #37414a" transform="translate(1.08 87.84218)scale(0.07 -0.07)">
       <use xlink:href="#DejaVuSans-ExtraLight-32"/>
       <use xlink:href="#DejaVuSans-ExtraLight-35" x="63.623047"/>
      </g>
     </g>
    </g>
    <g id="ytick_7">
     <g id="line2d_40">
      <g>
       <use xlink:href="#mf8542320c9" x="16.4875" y="48.258305" style="fill: #37414a; stroke: #37414a; stroke-width: 0.5"/>
      </g>
     </g>
     <g id="text_40">
      <!-- 30 -->
      <g style="fill: #37414a" transform="translate(1.08 50.917759)scale(0.07 -0.07)">
       <use xlink:href="#DejaVuSans-ExtraLight-33"/>
       <use xlink:href="#DejaVuSans-ExtraLight-30" x="63.623047"/>
      </g>
     </g>
    </g>
   </g>
   <g id="patch_3">
    <path d="M 20.663645 269.804832 
L 26.510247 269.804832 
L 26.510247 240.265296 
L 20.663645 240.265296 
z
" clip-path="url(#p7e527cfc6b)" style="fill: #8d2d39"/>
   </g>
   <g id="patch_4">
    <path d="M 37.368224 269.804832 
L 43.214826 269.804832 
L 43.214826 26.103653 
L 37.368224 26.103653 
z
" clip-path="url(#p7e527cfc6b)" style="fill: #8d2d39"/>
   </g>
   <g id="patch_5">
    <path d="M 54.072803 269.804832 
L 59.919405 269.804832 
L 59.919405 210.725759 
L 54.072803 210.725759 
z
" clip-path="url(#p7e527cfc6b)" style="fill: #8d2d39"/>
   </g>
   <g id="patch_6">
    <path d="M 70.777381 269.804832 
L 76.623984 269.804832 
L 76.623984 232.880411 
L 70.777381 232.880411 
z
" clip-path="url(#p7e527cfc6b)" style="fill: #8d2d39"/>
   </g>
   <g id="patch_7">
    <path d="M 87.48196 269.804832 
L 93.328563 269.804832 
L 93.328563 144.261801 
L 87.48196 144.261801 
z
" clip-path="url(#p7e527cfc6b)" style="fill: #8d2d39"/>
   </g>
   <g id="patch_8">
    <path d="M 104.186539 269.804832 
L 110.033142 269.804832 
L 110.033142 195.95599 
L 104.186539 195.95599 
z
" clip-path="url(#p7e527cfc6b)" style="fill: #8d2d39"/>
   </g>
   <g id="patch_9">
    <path d="M 120.891118 269.804832 
L 126.737721 269.804832 
L 126.737721 99.952495 
L 120.891118 99.952495 
z
" clip-path="url(#p7e527cfc6b)" style="fill: #8d2d39"/>
   </g>
   <g id="patch_10">
    <path d="M 137.595697 269.804832 
L 143.4423 269.804832 
L 143.4423 218.110643 
L 137.595697 218.110643 
z
" clip-path="url(#p7e527cfc6b)" style="fill: #8d2d39"/>
   </g>
   <g id="patch_11">
    <path d="M 154.300276 269.804832 
L 160.146879 269.804832 
L 160.146879 122.107148 
L 154.300276 122.107148 
z
" clip-path="url(#p7e527cfc6b)" style="fill: #8d2d39"/>
   </g>
   <g id="patch_12">
    <path d="M 171.004855 269.804832 
L 176.851458 269.804832 
L 176.851458 92.567611 
L 171.004855 92.567611 
z
" clip-path="url(#p7e527cfc6b)" style="fill: #8d2d39"/>
   </g>
   <g id="patch_13">
    <path d="M 187.709434 269.804832 
L 193.556037 269.804832 
L 193.556037 255.035064 
L 187.709434 255.035064 
z
" clip-path="url(#p7e527cfc6b)" style="fill: #8d2d39"/>
   </g>
   <g id="patch_14">
    <path d="M 204.414013 269.804832 
L 210.260615 269.804832 
L 210.260615 55.64319 
L 204.414013 55.64319 
z
" clip-path="url(#p7e527cfc6b)" style="fill: #8d2d39"/>
   </g>
   <g id="patch_15">
    <path d="M 221.118592 269.804832 
L 226.965194 269.804832 
L 226.965194 136.876916 
L 221.118592 136.876916 
z
" clip-path="url(#p7e527cfc6b)" style="fill: #8d2d39"/>
   </g>
   <g id="patch_16">
    <path d="M 237.823171 269.804832 
L 243.669773 269.804832 
L 243.669773 159.031569 
L 237.823171 159.031569 
z
" clip-path="url(#p7e527cfc6b)" style="fill: #8d2d39"/>
   </g>
   <g id="patch_17">
    <path d="M 254.52775 269.804832 
L 260.374352 269.804832 
L 260.374352 114.722264 
L 254.52775 114.722264 
z
" clip-path="url(#p7e527cfc6b)" style="fill: #8d2d39"/>
   </g>
   <g id="patch_18">
    <path d="M 271.232328 269.804832 
L 277.078931 269.804832 
L 277.078931 85.182727 
L 271.232328 85.182727 
z
" clip-path="url(#p7e527cfc6b)" style="fill: #8d2d39"/>
   </g>
   <g id="patch_19">
    <path d="M 287.936907 269.804832 
L 293.78351 269.804832 
L 293.78351 166.416453 
L 287.936907 166.416453 
z
" clip-path="url(#p7e527cfc6b)" style="fill: #8d2d39"/>
   </g>
   <g id="patch_20">
    <path d="M 304.641486 269.804832 
L 310.488089 269.804832 
L 310.488089 225.495527 
L 304.641486 225.495527 
z
" clip-path="url(#p7e527cfc6b)" style="fill: #8d2d39"/>
   </g>
   <g id="patch_21">
    <path d="M 321.346065 269.804832 
L 327.192668 269.804832 
L 327.192668 40.873421 
L 321.346065 40.873421 
z
" clip-path="url(#p7e527cfc6b)" style="fill: #8d2d39"/>
   </g>
   <g id="patch_22">
    <path d="M 338.050644 269.804832 
L 343.897247 269.804832 
L 343.897247 151.646685 
L 338.050644 151.646685 
z
" clip-path="url(#p7e527cfc6b)" style="fill: #8d2d39"/>
   </g>
   <g id="patch_23">
    <path d="M 354.755223 269.804832 
L 360.601826 269.804832 
L 360.601826 70.412958 
L 354.755223 70.412958 
z
" clip-path="url(#p7e527cfc6b)" style="fill: #8d2d39"/>
   </g>
   <g id="patch_24">
    <path d="M 371.459802 269.804832 
L 377.306405 269.804832 
L 377.306405 63.028074 
L 371.459802 63.028074 
z
" clip-path="url(#p7e527cfc6b)" style="fill: #8d2d39"/>
   </g>
   <g id="patch_25">
    <path d="M 388.164381 269.804832 
L 394.010983 269.804832 
L 394.010983 48.258305 
L 388.164381 48.258305 
z
" clip-path="url(#p7e527cfc6b)" style="fill: #8d2d39"/>
   </g>
   <g id="patch_26">
    <path d="M 404.86896 269.804832 
L 410.715562 269.804832 
L 410.715562 262.419948 
L 404.86896 262.419948 
z
" clip-path="url(#p7e527cfc6b)" style="fill: #8d2d39"/>
   </g>
   <g id="patch_27">
    <path d="M 421.573539 269.804832 
L 427.420141 269.804832 
L 427.420141 129.492032 
L 421.573539 129.492032 
z
" clip-path="url(#p7e527cfc6b)" style="fill: #8d2d39"/>
   </g>
   <g id="patch_28">
    <path d="M 438.278118 269.804832 
L 444.12472 269.804832 
L 444.12472 77.797842 
L 438.278118 77.797842 
z
" clip-path="url(#p7e527cfc6b)" style="fill: #8d2d39"/>
   </g>
   <g id="patch_29">
    <path d="M 454.982697 269.804832 
L 460.829299 269.804832 
L 460.829299 188.571106 
L 454.982697 188.571106 
z
" clip-path="url(#p7e527cfc6b)" style="fill: #8d2d39"/>
   </g>
   <g id="patch_30">
    <path d="M 471.687275 269.804832 
L 477.533878 269.804832 
L 477.533878 107.337379 
L 471.687275 107.337379 
z
" clip-path="url(#p7e527cfc6b)" style="fill: #8d2d39"/>
   </g>
   <g id="patch_31">
    <path d="M 488.391854 269.804832 
L 494.238457 269.804832 
L 494.238457 203.340874 
L 488.391854 203.340874 
z
" clip-path="url(#p7e527cfc6b)" style="fill: #8d2d39"/>
   </g>
   <g id="patch_32">
    <path d="M 505.096433 269.804832 
L 510.943036 269.804832 
L 510.943036 33.488537 
L 505.096433 33.488537 
z
" clip-path="url(#p7e527cfc6b)" style="fill: #8d2d39"/>
   </g>
   <g id="patch_33">
    <path d="M 521.801012 269.804832 
L 527.647615 269.804832 
L 527.647615 181.186222 
L 521.801012 181.186222 
z
" clip-path="url(#p7e527cfc6b)" style="fill: #8d2d39"/>
   </g>
   <g id="patch_34">
    <path d="M 538.505591 269.804832 
L 544.352194 269.804832 
L 544.352194 173.801337 
L 538.505591 173.801337 
z
" clip-path="url(#p7e527cfc6b)" style="fill: #8d2d39"/>
   </g>
   <g id="patch_35">
    <path d="M 555.21017 269.804832 
L 561.056773 269.804832 
L 561.056773 247.65018 
L 555.21017 247.65018 
z
" clip-path="url(#p7e527cfc6b)" style="fill: #8d2d39"/>
   </g>
   <g id="patch_36">
    <path d="M 26.510247 269.804832 
L 32.35685 269.804832 
L 32.35685 144.261801 
L 26.510247 144.261801 
z
" clip-path="url(#p7e527cfc6b)" style="fill: #37414a"/>
   </g>
   <g id="patch_37">
    <path d="M 43.214826 269.804832 
L 49.061429 269.804832 
L 49.061429 26.103653 
L 43.214826 26.103653 
z
" clip-path="url(#p7e527cfc6b)" style="fill: #37414a"/>
   </g>
   <g id="patch_38">
    <path d="M 59.919405 269.804832 
L 65.766008 269.804832 
L 65.766008 77.797842 
L 59.919405 77.797842 
z
" clip-path="url(#p7e527cfc6b)" style="fill: #37414a"/>
   </g>
   <g id="patch_39">
    <path d="M 76.623984 269.804832 
L 82.470587 269.804832 
L 82.470587 33.488537 
L 76.623984 33.488537 
z
" clip-path="url(#p7e527cfc6b)" style="fill: #37414a"/>
   </g>
   <g id="patch_40">
    <path d="M 93.328563 269.804832 
L 99.175166 269.804832 
L 99.175166 173.801337 
L 93.328563 173.801337 
z
" clip-path="url(#p7e527cfc6b)" style="fill: #37414a"/>
   </g>
   <g id="patch_41">
    <path d="M 110.033142 269.804832 
L 115.879745 269.804832 
L 115.879745 218.110643 
L 110.033142 218.110643 
z
" clip-path="url(#p7e527cfc6b)" style="fill: #37414a"/>
   </g>
   <g id="patch_42">
    <path d="M 126.737721 269.804832 
L 132.584323 269.804832 
L 132.584323 203.340874 
L 126.737721 203.340874 
z
" clip-path="url(#p7e527cfc6b)" style="fill: #37414a"/>
   </g>
   <g id="patch_43">
    <path d="M 143.4423 269.804832 
L 149.288902 269.804832 
L 149.288902 129.492032 
L 143.4423 129.492032 
z
" clip-path="url(#p7e527cfc6b)" style="fill: #37414a"/>
   </g>
   <g id="patch_44">
    <path d="M 160.146879 269.804832 
L 165.993481 269.804832 
L 165.993481 151.646685 
L 160.146879 151.646685 
z
" clip-path="url(#p7e527cfc6b)" style="fill: #37414a"/>
   </g>
   <g id="patch_45">
    <path d="M 176.851458 269.804832 
L 182.69806 269.804832 
L 182.69806 48.258305 
L 176.851458 48.258305 
z
" clip-path="url(#p7e527cfc6b)" style="fill: #37414a"/>
   </g>
   <g id="patch_46">
    <path d="M 193.556037 269.804832 
L 199.402639 269.804832 
L 199.402639 92.567611 
L 193.556037 92.567611 
z
" clip-path="url(#p7e527cfc6b)" style="fill: #37414a"/>
   </g>
   <g id="patch_47">
    <path d="M 210.260615 269.804832 
L 216.107218 269.804832 
L 216.107218 255.035064 
L 210.260615 255.035064 
z
" clip-path="url(#p7e527cfc6b)" style="fill: #37414a"/>
   </g>
   <g id="patch_48">
    <path d="M 226.965194 269.804832 
L 232.811797 269.804832 
L 232.811797 210.725759 
L 226.965194 210.725759 
z
" clip-path="url(#p7e527cfc6b)" style="fill: #37414a"/>
   </g>
   <g id="patch_49">
    <path d="M 243.669773 269.804832 
L 249.516376 269.804832 
L 249.516376 195.95599 
L 243.669773 195.95599 
z
" clip-path="url(#p7e527cfc6b)" style="fill: #37414a"/>
   </g>
   <g id="patch_50">
    <path d="M 260.374352 269.804832 
L 266.220955 269.804832 
L 266.220955 159.031569 
L 260.374352 159.031569 
z
" clip-path="url(#p7e527cfc6b)" style="fill: #37414a"/>
   </g>
   <g id="patch_51">
    <path d="M 277.078931 269.804832 
L 282.925534 269.804832 
L 282.925534 99.952495 
L 277.078931 99.952495 
z
" clip-path="url(#p7e527cfc6b)" style="fill: #37414a"/>
   </g>
   <g id="patch_52">
    <path d="M 293.78351 269.804832 
L 299.630113 269.804832 
L 299.630113 247.65018 
L 293.78351 247.65018 
z
" clip-path="url(#p7e527cfc6b)" style="fill: #37414a"/>
   </g>
   <g id="patch_53">
    <path d="M 310.488089 269.804832 
L 316.334692 269.804832 
L 316.334692 262.419948 
L 310.488089 262.419948 
z
" clip-path="url(#p7e527cfc6b)" style="fill: #37414a"/>
   </g>
   <g id="patch_54">
    <path d="M 327.192668 269.804832 
L 333.03927 269.804832 
L 333.03927 70.412958 
L 327.192668 70.412958 
z
" clip-path="url(#p7e527cfc6b)" style="fill: #37414a"/>
   </g>
   <g id="patch_55">
    <path d="M 343.897247 269.804832 
L 349.743849 269.804832 
L 349.743849 107.337379 
L 343.897247 107.337379 
z
" clip-path="url(#p7e527cfc6b)" style="fill: #37414a"/>
   </g>
   <g id="patch_56">
    <path d="M 360.601826 269.804832 
L 366.448428 269.804832 
L 366.448428 114.722264 
L 360.601826 114.722264 
z
" clip-path="url(#p7e527cfc6b)" style="fill: #37414a"/>
   </g>
   <g id="patch_57">
    <path d="M 377.306405 269.804832 
L 383.153007 269.804832 
L 383.153007 85.182727 
L 377.306405 85.182727 
z
" clip-path="url(#p7e527cfc6b)" style="fill: #37414a"/>
   </g>
   <g id="patch_58">
    <path d="M 394.010983 269.804832 
L 399.857586 269.804832 
L 399.857586 122.107148 
L 394.010983 122.107148 
z
" clip-path="url(#p7e527cfc6b)" style="fill: #37414a"/>
   </g>
   <g id="patch_59">
    <path d="M 410.715562 269.804832 
L 416.562165 269.804832 
L 416.562165 240.265296 
L 410.715562 240.265296 
z
" clip-path="url(#p7e527cfc6b)" style="fill: #37414a"/>
   </g>
   <g id="patch_60">
    <path d="M 427.420141 269.804832 
L 433.266744 269.804832 
L 433.266744 136.876916 
L 427.420141 136.876916 
z
" clip-path="url(#p7e527cfc6b)" style="fill: #37414a"/>
   </g>
   <g id="patch_61">
    <path d="M 444.12472 269.804832 
L 449.971323 269.804832 
L 449.971323 232.880411 
L 444.12472 232.880411 
z
" clip-path="url(#p7e527cfc6b)" style="fill: #37414a"/>
   </g>
   <g id="patch_62">
    <path d="M 460.829299 269.804832 
L 466.675902 269.804832 
L 466.675902 188.571106 
L 460.829299 188.571106 
z
" clip-path="url(#p7e527cfc6b)" style="fill: #37414a"/>
   </g>
   <g id="patch_63">
    <path d="M 477.533878 269.804832 
L 483.380481 269.804832 
L 483.380481 225.495527 
L 477.533878 225.495527 
z
" clip-path="url(#p7e527cfc6b)" style="fill: #37414a"/>
   </g>
   <g id="patch_64">
    <path d="M 494.238457 269.804832 
L 500.08506 269.804832 
L 500.08506 166.416453 
L 494.238457 166.416453 
z
" clip-path="url(#p7e527cfc6b)" style="fill: #37414a"/>
   </g>
   <g id="patch_65">
    <path d="M 510.943036 269.804832 
L 516.789639 269.804832 
L 516.789639 40.873421 
L 510.943036 40.873421 
z
" clip-path="url(#p7e527cfc6b)" style="fill: #37414a"/>
   </g>
   <g id="patch_66">
    <path d="M 527.647615 269.804832 
L 533.494217 269.804832 
L 533.494217 55.64319 
L 527.647615 55.64319 
z
" clip-path="url(#p7e527cfc6b)" style="fill: #37414a"/>
   </g>
   <g id="patch_67">
    <path d="M 544.352194 269.804832 
L 550.198796 269.804832 
L 550.198796 181.186222 
L 544.352194 181.186222 
z
" clip-path="url(#p7e527cfc6b)" style="fill: #37414a"/>
   </g>
   <g id="patch_68">
    <path d="M 561.056773 269.804832 
L 566.903375 269.804832 
L 566.903375 63.028074 
L 561.056773 63.028074 
z
" clip-path="url(#p7e527cfc6b)" style="fill: #37414a"/>
   </g>
   <g id="patch_69">
    <path d="M 16.4875 269.804832 
L 16.4875 13.918594 
" style="fill: none; stroke: #37414a; stroke-width: 0.5; stroke-linejoin: miter; stroke-linecap: square"/>
   </g>
   <g id="patch_70">
    <path d="M 16.4875 269.804832 
L 571.07952 269.804832 
" style="fill: none; stroke: #37414a; stroke-width: 0.5; stroke-linejoin: miter; stroke-linecap: square"/>
   </g>
   <g id="text_41">
    <!-- Rank of Standard Deviation of FEV$_1$ and FVC -->
    <g style="fill: #37414a" transform="translate(193.70351 7.918594)scale(0.09 -0.09)">
     <defs>
      <path id="DejaVuSans-ExtraLight-52" d="M 2709 2188 
Q 2903 2119 3084 1894 
Q 3213 1731 3450 1275 
L 4103 0 
L 3769 0 
L 3103 1281 
Q 2844 1784 2606 1947 
Q 2363 2109 1947 2109 
L 1100 2109 
L 1100 0 
L 788 0 
L 788 4666 
L 2053 4666 
Q 2769 4666 3122 4331 
Q 3475 3997 3475 3322 
Q 3475 2888 3291 2591 
Q 3116 2300 2709 2188 
z
M 1100 4409 
L 1100 2369 
L 2131 2369 
Q 2631 2369 2887 2628 
Q 3144 2888 3144 3394 
Q 3144 3897 2887 4153 
Q 2631 4409 2131 4409 
L 1100 4409 
z
" transform="scale(0.015625)"/>
      <path id="DejaVuSans-ExtraLight-61" d="M 2125 1975 
Q 1431 1975 1125 1728 
Q 819 1481 819 1006 
Q 819 544 1072 350 
Q 1325 156 1672 156 
Q 2328 156 2616 713 
Q 2906 1269 2906 1759 
L 2906 1975 
L 2125 1975 
z
M 3197 1997 
L 3197 0 
L 2913 0 
L 2913 950 
Q 2672 253 2275 63 
Q 1959 -91 1647 -91 
Q 1125 -91 825 188 
Q 525 469 525 1012 
Q 525 1556 916 1881 
Q 1306 2209 2194 2209 
L 2906 2209 
L 2906 2266 
Q 2906 2731 2641 3031 
Q 2378 3331 1772 3331 
Q 1472 3331 1159 3219 
Q 959 3147 641 2928 
L 641 3238 
Q 919 3409 1159 3481 
Q 1509 3584 1831 3584 
Q 2450 3584 2850 3209 
Q 3197 2888 3197 1997 
z
" transform="scale(0.015625)"/>
      <path id="DejaVuSans-ExtraLight-6e" d="M 3369 2113 
L 3369 0 
L 3081 0 
L 3081 2094 
Q 3081 2775 2862 3053 
Q 2644 3331 2219 3331 
Q 1722 3331 1369 3031 
Q 1013 2728 1013 1978 
L 1013 0 
L 725 0 
L 725 3500 
L 1013 3500 
L 1013 2844 
Q 1166 3163 1416 3331 
Q 1784 3584 2231 3584 
Q 2750 3584 3059 3231 
Q 3369 2881 3369 2113 
z
" transform="scale(0.015625)"/>
      <path id="DejaVuSans-ExtraLight-6b" d="M 1016 4863 
L 1306 4863 
L 1306 1909 
L 3047 3500 
L 3441 3500 
L 1631 1847 
L 3500 0 
L 3128 0 
L 1306 1794 
L 1306 0 
L 1016 0 
L 1016 4863 
z
" transform="scale(0.015625)"/>
      <path id="DejaVuSans-ExtraLight-20" transform="scale(0.015625)"/>
      <path id="DejaVuSans-ExtraLight-6f" d="M 2806 2900 
Q 2497 3331 1962 3331 
Q 1428 3331 1119 2903 
Q 806 2478 806 1753 
Q 806 1009 1116 584 
Q 1425 156 1963 156 
Q 2497 156 2806 584 
Q 3119 1016 3119 1753 
Q 3119 2469 2806 2900 
z
M 1959 3584 
Q 2628 3584 3016 3084 
Q 3406 2581 3406 1750 
Q 3406 891 3016 394 
Q 2628 -106 1959 -106 
Q 1284 -106 894 391 
Q 506 888 506 1750 
Q 506 2591 897 3087 
Q 1288 3584 1959 3584 
z
" transform="scale(0.015625)"/>
      <path id="DejaVuSans-ExtraLight-66" d="M 2231 4863 
L 2231 4619 
L 1825 4619 
Q 1506 4619 1338 4453 
Q 1131 4250 1131 3809 
L 1131 3500 
L 2075 3500 
L 2075 3256 
L 1131 3256 
L 1131 0 
L 841 0 
L 841 3256 
L 291 3256 
L 291 3500 
L 841 3500 
L 841 3744 
Q 841 4328 1106 4594 
Q 1369 4863 1831 4863 
L 2231 4863 
z
" transform="scale(0.015625)"/>
      <path id="DejaVuSans-ExtraLight-53" d="M 3388 4431 
L 3388 4138 
Q 3081 4291 2709 4409 
Q 2466 4488 2094 4494 
Q 1544 4503 1200 4250 
Q 888 4019 888 3456 
Q 888 3109 1125 2906 
Q 1378 2691 1888 2559 
L 2259 2463 
Q 2759 2331 3031 2150 
Q 3541 1803 3541 1278 
Q 3541 519 3094 225 
Q 2606 -91 2094 -91 
Q 1559 -91 1138 56 
Q 872 163 581 350 
L 581 656 
Q 1019 397 1194 325 
Q 1584 166 1919 166 
Q 2491 166 2869 419 
Q 3225 656 3225 1253 
Q 3225 1603 3006 1803 
Q 2691 2094 2188 2216 
L 1813 2306 
Q 1363 2416 1047 2613 
Q 569 2913 569 3431 
Q 569 4078 959 4425 
Q 1322 4747 2059 4750 
Q 2494 4750 2725 4675 
Q 3319 4481 3388 4431 
z
" transform="scale(0.015625)"/>
      <path id="DejaVuSans-ExtraLight-74" d="M 1028 4494 
L 1028 3500 
L 2213 3500 
L 2213 3256 
L 1028 3256 
L 1028 1153 
Q 1028 753 1131 594 
Q 1344 244 1750 244 
L 2213 244 
L 2213 0 
L 1766 0 
Q 1338 0 1038 250 
Q 738 500 738 1153 
L 738 3256 
L 319 3256 
L 319 3500 
L 738 3500 
L 738 4494 
L 1028 4494 
z
" transform="scale(0.015625)"/>
      <path id="DejaVuSans-ExtraLight-64" d="M 3050 2700 
L 3050 4863 
L 3331 4863 
L 3331 0 
L 3050 0 
L 3050 794 
Q 2853 338 2622 169 
Q 2269 -91 1956 -91 
Q 1334 -91 921 415 
Q 509 922 509 1747 
Q 509 2572 921 3078 
Q 1334 3584 1956 3584 
Q 2269 3584 2622 3325 
Q 2853 3156 3050 2700 
z
M 1175 2966 
Q 813 2600 813 1747 
Q 813 894 1175 528 
Q 1534 163 1934 163 
Q 2325 163 2688 528 
Q 3047 894 3047 1747 
Q 3047 2600 2688 2966 
Q 2325 3331 1934 3331 
Q 1534 3331 1175 2966 
z
" transform="scale(0.015625)"/>
      <path id="DejaVuSans-ExtraLight-72" d="M 2625 3253 
Q 2556 3288 2438 3313 
Q 2331 3331 2169 3331 
Q 1638 3331 1288 2938 
Q 1013 2619 1013 1844 
L 1013 0 
L 731 0 
L 731 3500 
L 1013 3500 
L 1013 2844 
Q 1153 3125 1406 3319 
Q 1756 3584 2231 3584 
Q 2353 3584 2444 3575 
Q 2538 3575 2625 3553 
L 2625 3253 
z
" transform="scale(0.015625)"/>
      <path id="DejaVuSans-ExtraLight-44" d="M 1097 4400 
L 1097 253 
L 2022 253 
Q 3078 253 3569 753 
Q 4063 1253 4063 2331 
Q 4063 3403 3569 3903 
Q 3078 4400 2022 4400 
L 1097 4400 
z
M 778 4666 
L 1925 4666 
Q 3200 4666 3797 4100 
Q 4394 3538 4394 2338 
Q 4394 1131 3794 565 
Q 3194 0 1925 0 
L 778 0 
L 778 4666 
z
" transform="scale(0.015625)"/>
      <path id="DejaVuSans-ExtraLight-65" d="M 3453 1894 
L 3453 1713 
L 797 1713 
Q 797 869 1125 531 
Q 1488 156 2203 156 
Q 2391 156 2700 238 
Q 3013 319 3319 481 
L 3319 178 
Q 3009 47 2684 -22 
Q 2359 -91 2169 -91 
Q 1359 -91 950 347 
Q 506 813 506 1713 
Q 506 2647 913 3106 
Q 1328 3584 2069 3584 
Q 2756 3584 3106 3131 
Q 3453 2656 3453 1894 
z
M 3163 1956 
Q 3163 2694 2831 3031 
Q 2553 3331 2075 3331 
Q 1553 3331 1200 3019 
Q 875 2728 809 1956 
L 3163 1956 
z
" transform="scale(0.015625)"/>
      <path id="DejaVuSans-ExtraLight-76" d="M 406 3500 
L 706 3500 
L 1894 316 
L 3078 3500 
L 3381 3500 
L 2078 0 
L 1709 0 
L 406 3500 
z
" transform="scale(0.015625)"/>
      <path id="DejaVuSans-ExtraLight-69" d="M 719 3500 
L 1006 3500 
L 1006 0 
L 719 0 
L 719 3500 
z
M 719 4863 
L 1006 4863 
L 1006 4469 
L 719 4469 
L 719 4863 
z
" transform="scale(0.015625)"/>
      <path id="DejaVuSans-ExtraLight-46" d="M 781 4666 
L 3147 4666 
L 3147 4406 
L 1097 4406 
L 1097 2616 
L 2947 2616 
L 2947 2363 
L 1097 2363 
L 1097 0 
L 781 0 
L 781 4666 
z
" transform="scale(0.015625)"/>
      <path id="DejaVuSans-ExtraLight-45" d="M 778 4666 
L 3416 4666 
L 3416 4406 
L 1097 4406 
L 1097 2616 
L 3319 2616 
L 3319 2363 
L 1097 2363 
L 1097 253 
L 3472 253 
L 3472 0 
L 778 0 
L 778 4666 
z
" transform="scale(0.015625)"/>
      <path id="DejaVuSans-ExtraLight-56" d="M 1975 0 
L 194 4666 
L 550 4666 
L 2188 313 
L 3838 4666 
L 4166 4666 
L 2388 0 
L 1975 0 
z
" transform="scale(0.015625)"/>
      <path id="DejaVuSans-ExtraLight-43" d="M 4122 4278 
L 4122 3919 
Q 3803 4209 3444 4350 
Q 3081 4494 2675 4494 
Q 1794 4494 1328 3938 
Q 859 3381 859 2328 
Q 859 1275 1328 716 
Q 1794 156 2675 156 
Q 3081 156 3444 300 
Q 3803 447 4122 738 
L 4122 359 
Q 3791 134 3419 22 
Q 3050 -91 2638 -91 
Q 1656 -91 1094 556 
Q 531 1206 531 2328 
Q 531 3453 1094 4100 
Q 1656 4750 2638 4750 
Q 3056 4750 3425 4631 
Q 3797 4516 4122 4278 
z
" transform="scale(0.015625)"/>
     </defs>
     <use xlink:href="#DejaVuSans-ExtraLight-52" transform="translate(0 0.015625)"/>
     <use xlink:href="#DejaVuSans-ExtraLight-61" transform="translate(69.482422 0.015625)"/>
     <use xlink:href="#DejaVuSans-ExtraLight-6e" transform="translate(130.761719 0.015625)"/>
     <use xlink:href="#DejaVuSans-ExtraLight-6b" transform="translate(194.140625 0.015625)"/>
     <use xlink:href="#DejaVuSans-ExtraLight-20" transform="translate(252.050781 0.015625)"/>
     <use xlink:href="#DejaVuSans-ExtraLight-6f" transform="translate(283.837891 0.015625)"/>
     <use xlink:href="#DejaVuSans-ExtraLight-66" transform="translate(345.019531 0.015625)"/>
     <use xlink:href="#DejaVuSans-ExtraLight-20" transform="translate(380.224609 0.015625)"/>
     <use xlink:href="#DejaVuSans-ExtraLight-53" transform="translate(412.011719 0.015625)"/>
     <use xlink:href="#DejaVuSans-ExtraLight-74" transform="translate(475.488281 0.015625)"/>
     <use xlink:href="#DejaVuSans-ExtraLight-61" transform="translate(514.697266 0.015625)"/>
     <use xlink:href="#DejaVuSans-ExtraLight-6e" transform="translate(575.976562 0.015625)"/>
     <use xlink:href="#DejaVuSans-ExtraLight-64" transform="translate(639.355469 0.015625)"/>
     <use xlink:href="#DejaVuSans-ExtraLight-61" transform="translate(702.832031 0.015625)"/>
     <use xlink:href="#DejaVuSans-ExtraLight-72" transform="translate(764.111328 0.015625)"/>
     <use xlink:href="#DejaVuSans-ExtraLight-64" transform="translate(805.224609 0.015625)"/>
     <use xlink:href="#DejaVuSans-ExtraLight-20" transform="translate(868.701172 0.015625)"/>
     <use xlink:href="#DejaVuSans-ExtraLight-44" transform="translate(900.488281 0.015625)"/>
     <use xlink:href="#DejaVuSans-ExtraLight-65" transform="translate(977.490234 0.015625)"/>
     <use xlink:href="#DejaVuSans-ExtraLight-76" transform="translate(1039.013672 0.015625)"/>
     <use xlink:href="#DejaVuSans-ExtraLight-69" transform="translate(1098.193359 0.015625)"/>
     <use xlink:href="#DejaVuSans-ExtraLight-61" transform="translate(1125.976562 0.015625)"/>
     <use xlink:href="#DejaVuSans-ExtraLight-74" transform="translate(1187.255859 0.015625)"/>
     <use xlink:href="#DejaVuSans-ExtraLight-69" transform="translate(1226.464844 0.015625)"/>
     <use xlink:href="#DejaVuSans-ExtraLight-6f" transform="translate(1254.248047 0.015625)"/>
     <use xlink:href="#DejaVuSans-ExtraLight-6e" transform="translate(1315.429688 0.015625)"/>
     <use xlink:href="#DejaVuSans-ExtraLight-20" transform="translate(1378.808594 0.015625)"/>
     <use xlink:href="#DejaVuSans-ExtraLight-6f" transform="translate(1410.595703 0.015625)"/>
     <use xlink:href="#DejaVuSans-ExtraLight-66" transform="translate(1471.777344 0.015625)"/>
     <use xlink:href="#DejaVuSans-ExtraLight-20" transform="translate(1506.982422 0.015625)"/>
     <use xlink:href="#DejaVuSans-ExtraLight-46" transform="translate(1538.769531 0.015625)"/>
     <use xlink:href="#DejaVuSans-ExtraLight-45" transform="translate(1596.289062 0.015625)"/>
     <use xlink:href="#DejaVuSans-ExtraLight-56" transform="translate(1659.472656 0.015625)"/>
     <use xlink:href="#DejaVuSans-ExtraLight-31" transform="translate(1728.837891 -16.390625)scale(0.7)"/>
     <use xlink:href="#DejaVuSans-ExtraLight-20" transform="translate(1776.108398 0.015625)"/>
     <use xlink:href="#DejaVuSans-ExtraLight-61" transform="translate(1807.895508 0.015625)"/>
     <use xlink:href="#DejaVuSans-ExtraLight-6e" transform="translate(1869.174805 0.015625)"/>
     <use xlink:href="#DejaVuSans-ExtraLight-64" transform="translate(1932.553711 0.015625)"/>
     <use xlink:href="#DejaVuSans-ExtraLight-20" transform="translate(1996.030273 0.015625)"/>
     <use xlink:href="#DejaVuSans-ExtraLight-46" transform="translate(2027.817383 0.015625)"/>
     <use xlink:href="#DejaVuSans-ExtraLight-56" transform="translate(2085.336914 0.015625)"/>
     <use xlink:href="#DejaVuSans-ExtraLight-43" transform="translate(2153.745117 0.015625)"/>
    </g>
   </g>
   <g id="legend_1">
    <g id="patch_71">
     <path d="M 239.32351 40.067969 
L 348.24351 40.067969 
Q 349.64351 40.067969 349.64351 38.667969 
L 349.64351 18.818594 
Q 349.64351 17.418594 348.24351 17.418594 
L 239.32351 17.418594 
Q 237.92351 17.418594 237.92351 18.818594 
L 237.92351 38.667969 
Q 237.92351 40.067969 239.32351 40.067969 
L 239.32351 40.067969 
z
" style="fill: none; opacity: 0.8; stroke: #37414a; stroke-width: 0.5; stroke-linejoin: miter"/>
    </g>
    <g id="patch_72">
     <path d="M 240.72351 25.5375 
L 254.72351 25.5375 
L 254.72351 20.6375 
L 240.72351 20.6375 
z
" style="fill: #8d2d39"/>
    </g>
    <g id="text_42">
     <!-- Standard Deviation FEV$_1$ -->
     <g style="fill: #37414a" transform="translate(260.32351 25.5375)scale(0.07 -0.07)">
      <use xlink:href="#DejaVuSans-ExtraLight-53" transform="translate(0 0.015625)"/>
      <use xlink:href="#DejaVuSans-ExtraLight-74" transform="translate(63.476562 0.015625)"/>
      <use xlink:href="#DejaVuSans-ExtraLight-61" transform="translate(102.685547 0.015625)"/>
      <use xlink:href="#DejaVuSans-ExtraLight-6e" transform="translate(163.964844 0.015625)"/>
      <use xlink:href="#DejaVuSans-ExtraLight-64" transform="translate(227.34375 0.015625)"/>
      <use xlink:href="#DejaVuSans-ExtraLight-61" transform="translate(290.820312 0.015625)"/>
      <use xlink:href="#DejaVuSans-ExtraLight-72" transform="translate(352.099609 0.015625)"/>
      <use xlink:href="#DejaVuSans-ExtraLight-64" transform="translate(393.212891 0.015625)"/>
      <use xlink:href="#DejaVuSans-ExtraLight-20" transform="translate(456.689453 0.015625)"/>
      <use xlink:href="#DejaVuSans-ExtraLight-44" transform="translate(488.476562 0.015625)"/>
      <use xlink:href="#DejaVuSans-ExtraLight-65" transform="translate(565.478516 0.015625)"/>
      <use xlink:href="#DejaVuSans-ExtraLight-76" transform="translate(627.001953 0.015625)"/>
      <use xlink:href="#DejaVuSans-ExtraLight-69" transform="translate(686.181641 0.015625)"/>
      <use xlink:href="#DejaVuSans-ExtraLight-61" transform="translate(713.964844 0.015625)"/>
      <use xlink:href="#DejaVuSans-ExtraLight-74" transform="translate(775.244141 0.015625)"/>
      <use xlink:href="#DejaVuSans-ExtraLight-69" transform="translate(814.453125 0.015625)"/>
      <use xlink:href="#DejaVuSans-ExtraLight-6f" transform="translate(842.236328 0.015625)"/>
      <use xlink:href="#DejaVuSans-ExtraLight-6e" transform="translate(903.417969 0.015625)"/>
      <use xlink:href="#DejaVuSans-ExtraLight-20" transform="translate(966.796875 0.015625)"/>
      <use xlink:href="#DejaVuSans-ExtraLight-46" transform="translate(998.583984 0.015625)"/>
      <use xlink:href="#DejaVuSans-ExtraLight-45" transform="translate(1056.103516 0.015625)"/>
      <use xlink:href="#DejaVuSans-ExtraLight-56" transform="translate(1119.287109 0.015625)"/>
      <use xlink:href="#DejaVuSans-ExtraLight-31" transform="translate(1188.652344 -16.390625)scale(0.7)"/>
     </g>
    </g>
    <g id="patch_73">
     <path d="M 240.72351 35.812187 
L 254.72351 35.812187 
L 254.72351 30.912187 
L 240.72351 30.912187 
z
" style="fill: #37414a"/>
    </g>
    <g id="text_43">
     <!-- Standard Deviation FVC -->
     <g style="fill: #37414a" transform="translate(260.32351 35.812187)scale(0.07 -0.07)">
      <use xlink:href="#DejaVuSans-ExtraLight-53"/>
      <use xlink:href="#DejaVuSans-ExtraLight-74" x="63.476562"/>
      <use xlink:href="#DejaVuSans-ExtraLight-61" x="102.685547"/>
      <use xlink:href="#DejaVuSans-ExtraLight-6e" x="163.964844"/>
      <use xlink:href="#DejaVuSans-ExtraLight-64" x="227.34375"/>
      <use xlink:href="#DejaVuSans-ExtraLight-61" x="290.820312"/>
      <use xlink:href="#DejaVuSans-ExtraLight-72" x="352.099609"/>
      <use xlink:href="#DejaVuSans-ExtraLight-64" x="391.462891"/>
      <use xlink:href="#DejaVuSans-ExtraLight-20" x="454.939453"/>
      <use xlink:href="#DejaVuSans-ExtraLight-44" x="486.726562"/>
      <use xlink:href="#DejaVuSans-ExtraLight-65" x="563.728516"/>
      <use xlink:href="#DejaVuSans-ExtraLight-76" x="625.251953"/>
      <use xlink:href="#DejaVuSans-ExtraLight-69" x="684.431641"/>
      <use xlink:href="#DejaVuSans-ExtraLight-61" x="712.214844"/>
      <use xlink:href="#DejaVuSans-ExtraLight-74" x="773.494141"/>
      <use xlink:href="#DejaVuSans-ExtraLight-69" x="812.703125"/>
      <use xlink:href="#DejaVuSans-ExtraLight-6f" x="840.486328"/>
      <use xlink:href="#DejaVuSans-ExtraLight-6e" x="901.667969"/>
      <use xlink:href="#DejaVuSans-ExtraLight-20" x="965.046875"/>
      <use xlink:href="#DejaVuSans-ExtraLight-46" x="996.833984"/>
      <use xlink:href="#DejaVuSans-ExtraLight-56" x="1054.353516"/>
      <use xlink:href="#DejaVuSans-ExtraLight-43" x="1122.761719"/>
     </g>
    </g>
   </g>
  </g>
 </g>
 <defs>
  <clipPath id="p7e527cfc6b">
   <rect x="16.4875" y="13.918594" width="554.59202" height="255.886239"/>
  </clipPath>
 </defs>
</svg>
