<?xml version="1.0" encoding="utf-8" standalone="no"?>
<!DOCTYPE svg PUBLIC "-//W3C//DTD SVG 1.1//EN"
  "http://www.w3.org/Graphics/SVG/1.1/DTD/svg11.dtd">
<svg xmlns:xlink="http://www.w3.org/1999/xlink" width="572.15952pt" height="284.15952pt" viewBox="0 0 572.15952 284.15952" xmlns="http://www.w3.org/2000/svg" version="1.1">
 <metadata>
  <rdf:RDF xmlns:dc="http://purl.org/dc/elements/1.1/" xmlns:cc="http://creativecommons.org/ns#" xmlns:rdf="http://www.w3.org/1999/02/22-rdf-syntax-ns#">
   <cc:Work>
    <dc:type rdf:resource="http://purl.org/dc/dcmitype/StillImage"/>
    <dc:date>2023-06-30T09:51:21.331466</dc:date>
    <dc:format>image/svg+xml</dc:format>
    <dc:creator>
     <cc:Agent>
      <dc:title>Matplotlib v3.5.1, https://matplotlib.org/</dc:title>
     </cc:Agent>
    </dc:creator>
   </cc:Work>
  </rdf:RDF>
 </metadata>
 <defs>
  <style type="text/css">*{stroke-linejoin: round; stroke-linecap: butt}</style>
 </defs>
 <g id="figure_1">
  <g id="patch_1">
   <path d="M 0 284.15952 
L 572.15952 284.15952 
L 572.15952 0 
L 0 0 
L 0 284.15952 
z
" style="fill: none"/>
  </g>
  <g id="axes_1">
   <g id="patch_2">
    <path d="M 23.165938 257.09452 
L 571.07952 257.09452 
L 571.07952 23.998312 
L 23.165938 23.998312 
L 23.165938 257.09452 
z
" style="fill: none"/>
   </g>
   <g id="matplotlib.axis_1">
    <g id="xtick_1">
     <g id="line2d_1">
      <defs>
       <path id="m02dbaa8892" d="M 0 0 
L 0 3 
" style="stroke: #37414a; stroke-width: 0.5"/>
      </defs>
      <g>
       <use xlink:href="#m02dbaa8892" x="33.06799" y="257.09452" style="fill: #37414a; stroke: #37414a; stroke-width: 0.5"/>
      </g>
     </g>
     <g id="text_1">
      <!-- 0 -->
      <g style="fill: #37414a" transform="translate(30.841115 268.913426)scale(0.07 -0.07)">
       <defs>
        <path id="DejaVuSans-ExtraLight-30" d="M 2016 4494 
Q 1444 4494 1166 3938 
Q 888 3378 888 2328 
Q 888 1278 1166 719 
Q 1444 163 2016 163 
Q 2606 163 2884 719 
Q 3163 1278 3163 2328 
Q 3163 3378 2884 3938 
Q 2606 4494 2016 4494 
z
M 2016 4750 
Q 2691 4750 3084 4200 
Q 3478 3647 3478 2328 
Q 3478 1009 3084 456 
Q 2691 -94 2016 -94 
Q 1359 -94 966 456 
Q 572 1009 572 2328 
Q 572 3647 966 4200 
Q 1359 4750 2016 4750 
z
" transform="scale(0.015625)"/>
       </defs>
       <use xlink:href="#DejaVuSans-ExtraLight-30"/>
      </g>
     </g>
    </g>
    <g id="xtick_2">
     <g id="line2d_2">
      <g>
       <use xlink:href="#m02dbaa8892" x="49.571411" y="257.09452" style="fill: #37414a; stroke: #37414a; stroke-width: 0.5"/>
      </g>
     </g>
     <g id="text_2">
      <!-- 1 -->
      <g style="fill: #37414a" transform="translate(47.344536 268.913426)scale(0.07 -0.07)">
       <defs>
        <path id="DejaVuSans-ExtraLight-31" d="M 950 256 
L 1981 256 
L 1981 4378 
L 703 3866 
L 703 4153 
L 1975 4666 
L 2294 4666 
L 2294 256 
L 3325 256 
L 3325 0 
L 950 0 
L 950 256 
z
" transform="scale(0.015625)"/>
       </defs>
       <use xlink:href="#DejaVuSans-ExtraLight-31"/>
      </g>
     </g>
    </g>
    <g id="xtick_3">
     <g id="line2d_3">
      <g>
       <use xlink:href="#m02dbaa8892" x="66.074833" y="257.09452" style="fill: #37414a; stroke: #37414a; stroke-width: 0.5"/>
      </g>
     </g>
     <g id="text_3">
      <!-- 2 -->
      <g style="fill: #37414a" transform="translate(63.847958 268.913426)scale(0.07 -0.07)">
       <defs>
        <path id="DejaVuSans-ExtraLight-32" d="M 769 253 
L 3431 253 
L 3431 0 
L 444 0 
L 444 328 
L 1606 1538 
Q 2038 1975 2388 2347 
Q 2713 2694 2822 2884 
Q 2931 3075 2931 3388 
Q 2931 3928 2600 4256 
Q 2359 4494 1825 4494 
Q 1513 4494 1106 4313 
Q 928 4231 500 3953 
L 500 4284 
Q 681 4413 1031 4569 
Q 1428 4747 1819 4750 
Q 2422 4750 2828 4441 
Q 3225 4131 3225 3419 
Q 3225 3131 3119 2875 
Q 2994 2575 2725 2266 
Q 2647 2175 2228 1744 
L 769 253 
z
" transform="scale(0.015625)"/>
       </defs>
       <use xlink:href="#DejaVuSans-ExtraLight-32"/>
      </g>
     </g>
    </g>
    <g id="xtick_4">
     <g id="line2d_4">
      <g>
       <use xlink:href="#m02dbaa8892" x="82.578254" y="257.09452" style="fill: #37414a; stroke: #37414a; stroke-width: 0.5"/>
      </g>
     </g>
     <g id="text_4">
      <!-- 3 -->
      <g style="fill: #37414a" transform="translate(80.351379 268.913426)scale(0.07 -0.07)">
       <defs>
        <path id="DejaVuSans-ExtraLight-33" d="M 2597 2516 
Q 2972 2425 3188 2113 
Q 3400 1806 3400 1356 
Q 3400 666 3003 287 
Q 2606 -91 1734 -91 
Q 1441 -91 1131 0 
Q 819 94 488 288 
L 488 628 
Q 750 400 1063 281 
Q 1375 166 1700 166 
Q 2375 166 2731 472 
Q 3084 775 3084 1356 
Q 3084 1831 2756 2097 
Q 2425 2366 1838 2366 
L 1294 2366 
L 1294 2628 
L 1863 2628 
Q 2403 2628 2688 2844 
Q 2975 3063 2975 3475 
Q 2975 3963 2681 4225 
Q 2384 4488 1834 4488 
Q 1578 4488 1281 4397 
Q 984 4306 628 4116 
L 628 4441 
Q 988 4594 1300 4666 
Q 1616 4744 1894 4750 
Q 2609 4750 2950 4425 
Q 3294 4097 3294 3541 
Q 3294 3169 3113 2888 
Q 2938 2616 2597 2516 
z
" transform="scale(0.015625)"/>
       </defs>
       <use xlink:href="#DejaVuSans-ExtraLight-33"/>
      </g>
     </g>
    </g>
    <g id="xtick_5">
     <g id="line2d_5">
      <g>
       <use xlink:href="#m02dbaa8892" x="99.081675" y="257.09452" style="fill: #37414a; stroke: #37414a; stroke-width: 0.5"/>
      </g>
     </g>
     <g id="text_5">
      <!-- 4 -->
      <g style="fill: #37414a" transform="translate(96.8548 268.913426)scale(0.07 -0.07)">
       <defs>
        <path id="DejaVuSans-ExtraLight-34" d="M 2575 4494 
L 638 1488 
L 2575 1488 
L 2575 4494 
z
M 2331 4666 
L 2894 4666 
L 2894 1488 
L 3559 1488 
L 3559 1238 
L 2894 1238 
L 2894 0 
L 2575 0 
L 2575 1238 
L 313 1238 
L 313 1563 
L 2331 4666 
z
" transform="scale(0.015625)"/>
       </defs>
       <use xlink:href="#DejaVuSans-ExtraLight-34"/>
      </g>
     </g>
    </g>
    <g id="xtick_6">
     <g id="line2d_6">
      <g>
       <use xlink:href="#m02dbaa8892" x="115.585096" y="257.09452" style="fill: #37414a; stroke: #37414a; stroke-width: 0.5"/>
      </g>
     </g>
     <g id="text_6">
      <!-- 5 -->
      <g style="fill: #37414a" transform="translate(113.358221 268.913426)scale(0.07 -0.07)">
       <defs>
        <path id="DejaVuSans-ExtraLight-35" d="M 816 4666 
L 3031 4666 
L 3031 4413 
L 1131 4413 
L 1131 2847 
Q 1269 2897 1406 2925 
Q 1544 2950 1809 2950 
Q 2525 2950 2944 2556 
Q 3359 2166 3359 1497 
Q 3359 744 2931 325 
Q 2503 -91 1722 -91 
Q 1463 -91 1191 -47 
Q 922 -3 631 84 
L 631 403 
Q 875 288 1138 228 
Q 1397 172 1688 172 
Q 2313 172 2681 528 
Q 3050 884 3050 1497 
Q 3050 2050 2691 2372 
Q 2328 2697 1709 2697 
Q 1581 2697 1331 2628 
Q 1078 2563 816 2422 
L 816 4666 
z
" transform="scale(0.015625)"/>
       </defs>
       <use xlink:href="#DejaVuSans-ExtraLight-35"/>
      </g>
     </g>
    </g>
    <g id="xtick_7">
     <g id="line2d_7">
      <g>
       <use xlink:href="#m02dbaa8892" x="132.088517" y="257.09452" style="fill: #37414a; stroke: #37414a; stroke-width: 0.5"/>
      </g>
     </g>
     <g id="text_7">
      <!-- 6 -->
      <g style="fill: #37414a" transform="translate(129.861642 268.913426)scale(0.07 -0.07)">
       <defs>
        <path id="DejaVuSans-ExtraLight-36" d="M 2900 2365 
Q 2609 2706 2112 2706 
Q 1616 2706 1325 2365 
Q 1034 2025 1034 1434 
Q 1034 844 1325 503 
Q 1616 163 2112 163 
Q 2609 163 2900 503 
Q 3191 844 3191 1434 
Q 3191 2025 2900 2365 
z
M 3278 4563 
L 3278 4231 
Q 3059 4363 2841 4431 
Q 2619 4500 2403 4500 
Q 1472 4500 1100 3584 
Q 931 3169 944 2175 
Q 1103 2519 1347 2713 
Q 1663 2966 2150 2966 
Q 2738 2966 3128 2550 
Q 3516 2138 3516 1497 
Q 3516 778 3134 343 
Q 2753 -91 2141 -91 
Q 1400 -91 1009 531 
Q 622 1150 622 2328 
Q 622 3584 1100 4169 
Q 1575 4750 2381 4750 
Q 2597 4750 2819 4703 
Q 3038 4656 3278 4563 
z
" transform="scale(0.015625)"/>
       </defs>
       <use xlink:href="#DejaVuSans-ExtraLight-36"/>
      </g>
     </g>
    </g>
    <g id="xtick_8">
     <g id="line2d_8">
      <g>
       <use xlink:href="#m02dbaa8892" x="148.591938" y="257.09452" style="fill: #37414a; stroke: #37414a; stroke-width: 0.5"/>
      </g>
     </g>
     <g id="text_8">
      <!-- 7 -->
      <g style="fill: #37414a" transform="translate(146.365063 268.913426)scale(0.07 -0.07)">
       <defs>
        <path id="DejaVuSans-ExtraLight-37" d="M 525 4666 
L 3363 4666 
L 3363 4397 
L 1669 0 
L 1338 0 
L 3034 4409 
L 525 4409 
L 525 4666 
z
" transform="scale(0.015625)"/>
       </defs>
       <use xlink:href="#DejaVuSans-ExtraLight-37"/>
      </g>
     </g>
    </g>
    <g id="xtick_9">
     <g id="line2d_9">
      <g>
       <use xlink:href="#m02dbaa8892" x="165.095359" y="257.09452" style="fill: #37414a; stroke: #37414a; stroke-width: 0.5"/>
      </g>
     </g>
     <g id="text_9">
      <!-- 8 -->
      <g style="fill: #37414a" transform="translate(162.868484 268.913426)scale(0.07 -0.07)">
       <defs>
        <path id="DejaVuSans-ExtraLight-38" d="M 2034 2325 
Q 1513 2325 1213 2038 
Q 916 1747 916 1240 
Q 916 734 1213 447 
Q 1513 156 2034 156 
Q 2556 156 2856 447 
Q 3159 738 3159 1241 
Q 3159 1747 2859 2038 
Q 2559 2325 2034 2325 
z
M 1403 2484 
Q 1100 2597 906 2863 
Q 703 3141 703 3541 
Q 703 4100 1059 4425 
Q 1416 4750 2034 4750 
Q 2656 4750 3009 4425 
Q 3366 4100 3366 3541 
Q 3366 3125 3163 2863 
Q 2953 2591 2669 2484 
Q 3019 2369 3238 2069 
Q 3466 1759 3466 1313 
Q 3466 634 3097 272 
Q 2725 -91 2034 -91 
Q 1344 -91 972 272 
Q 603 634 603 1313 
Q 603 1759 831 2069 
Q 1084 2378 1403 2484 
z
M 1287 4241 
Q 1022 3988 1022 3534 
Q 1022 3081 1287 2828 
Q 1553 2575 2034 2575 
Q 2509 2575 2781 2828 
Q 3050 3081 3050 3534 
Q 3050 3988 2781 4241 
Q 2509 4494 2034 4494 
Q 1553 4494 1287 4241 
z
" transform="scale(0.015625)"/>
       </defs>
       <use xlink:href="#DejaVuSans-ExtraLight-38"/>
      </g>
     </g>
    </g>
    <g id="xtick_10">
     <g id="line2d_10">
      <g>
       <use xlink:href="#m02dbaa8892" x="181.598781" y="257.09452" style="fill: #37414a; stroke: #37414a; stroke-width: 0.5"/>
      </g>
     </g>
     <g id="text_10">
      <!-- 9 -->
      <g style="fill: #37414a" transform="translate(179.371906 268.913426)scale(0.07 -0.07)">
       <defs>
        <path id="DejaVuSans-ExtraLight-39" d="M 859 97 
L 859 428 
Q 1078 297 1297 228 
Q 1519 159 1734 159 
Q 2666 159 3038 1075 
Q 3206 1491 3194 2484 
Q 3034 2141 2791 1947 
Q 2475 1694 1988 1694 
Q 1400 1694 1009 2109 
Q 622 2522 622 3163 
Q 622 3881 1003 4316 
Q 1388 4750 1997 4750 
Q 2738 4750 3128 4131 
Q 3516 3509 3516 2331 
Q 3516 1075 3041 494 
Q 2563 -91 1756 -91 
Q 1541 -91 1319 -44 
Q 1100 3 859 97 
z
M 1237 2293 
Q 1528 1953 2025 1953 
Q 2522 1953 2812 2293 
Q 3103 2634 3103 3225 
Q 3103 3816 2812 4156 
Q 2522 4497 2025 4497 
Q 1528 4497 1237 4156 
Q 947 3816 947 3225 
Q 947 2634 1237 2293 
z
" transform="scale(0.015625)"/>
       </defs>
       <use xlink:href="#DejaVuSans-ExtraLight-39"/>
      </g>
     </g>
    </g>
    <g id="xtick_11">
     <g id="line2d_11">
      <g>
       <use xlink:href="#m02dbaa8892" x="198.102202" y="257.09452" style="fill: #37414a; stroke: #37414a; stroke-width: 0.5"/>
      </g>
     </g>
     <g id="text_11">
      <!-- 10 -->
      <g style="fill: #37414a" transform="translate(193.648452 268.913426)scale(0.07 -0.07)">
       <use xlink:href="#DejaVuSans-ExtraLight-31"/>
       <use xlink:href="#DejaVuSans-ExtraLight-30" x="63.623047"/>
      </g>
     </g>
    </g>
    <g id="xtick_12">
     <g id="line2d_12">
      <g>
       <use xlink:href="#m02dbaa8892" x="214.605623" y="257.09452" style="fill: #37414a; stroke: #37414a; stroke-width: 0.5"/>
      </g>
     </g>
     <g id="text_12">
      <!-- 11 -->
      <g style="fill: #37414a" transform="translate(210.151873 268.913426)scale(0.07 -0.07)">
       <use xlink:href="#DejaVuSans-ExtraLight-31"/>
       <use xlink:href="#DejaVuSans-ExtraLight-31" x="63.623047"/>
      </g>
     </g>
    </g>
    <g id="xtick_13">
     <g id="line2d_13">
      <g>
       <use xlink:href="#m02dbaa8892" x="231.109044" y="257.09452" style="fill: #37414a; stroke: #37414a; stroke-width: 0.5"/>
      </g>
     </g>
     <g id="text_13">
      <!-- 12 -->
      <g style="fill: #37414a" transform="translate(226.655294 268.913426)scale(0.07 -0.07)">
       <use xlink:href="#DejaVuSans-ExtraLight-31"/>
       <use xlink:href="#DejaVuSans-ExtraLight-32" x="63.623047"/>
      </g>
     </g>
    </g>
    <g id="xtick_14">
     <g id="line2d_14">
      <g>
       <use xlink:href="#m02dbaa8892" x="247.612465" y="257.09452" style="fill: #37414a; stroke: #37414a; stroke-width: 0.5"/>
      </g>
     </g>
     <g id="text_14">
      <!-- 13 -->
      <g style="fill: #37414a" transform="translate(243.158715 268.913426)scale(0.07 -0.07)">
       <use xlink:href="#DejaVuSans-ExtraLight-31"/>
       <use xlink:href="#DejaVuSans-ExtraLight-33" x="63.623047"/>
      </g>
     </g>
    </g>
    <g id="xtick_15">
     <g id="line2d_15">
      <g>
       <use xlink:href="#m02dbaa8892" x="264.115886" y="257.09452" style="fill: #37414a; stroke: #37414a; stroke-width: 0.5"/>
      </g>
     </g>
     <g id="text_15">
      <!-- 14 -->
      <g style="fill: #37414a" transform="translate(259.662136 268.913426)scale(0.07 -0.07)">
       <use xlink:href="#DejaVuSans-ExtraLight-31"/>
       <use xlink:href="#DejaVuSans-ExtraLight-34" x="63.623047"/>
      </g>
     </g>
    </g>
    <g id="xtick_16">
     <g id="line2d_16">
      <g>
       <use xlink:href="#m02dbaa8892" x="280.619308" y="257.09452" style="fill: #37414a; stroke: #37414a; stroke-width: 0.5"/>
      </g>
     </g>
     <g id="text_16">
      <!-- 15 -->
      <g style="fill: #37414a" transform="translate(276.165558 268.913426)scale(0.07 -0.07)">
       <use xlink:href="#DejaVuSans-ExtraLight-31"/>
       <use xlink:href="#DejaVuSans-ExtraLight-35" x="63.623047"/>
      </g>
     </g>
    </g>
    <g id="xtick_17">
     <g id="line2d_17">
      <g>
       <use xlink:href="#m02dbaa8892" x="297.122729" y="257.09452" style="fill: #37414a; stroke: #37414a; stroke-width: 0.5"/>
      </g>
     </g>
     <g id="text_17">
      <!-- 16 -->
      <g style="fill: #37414a" transform="translate(292.668979 268.913426)scale(0.07 -0.07)">
       <use xlink:href="#DejaVuSans-ExtraLight-31"/>
       <use xlink:href="#DejaVuSans-ExtraLight-36" x="63.623047"/>
      </g>
     </g>
    </g>
    <g id="xtick_18">
     <g id="line2d_18">
      <g>
       <use xlink:href="#m02dbaa8892" x="313.62615" y="257.09452" style="fill: #37414a; stroke: #37414a; stroke-width: 0.5"/>
      </g>
     </g>
     <g id="text_18">
      <!-- 17 -->
      <g style="fill: #37414a" transform="translate(309.1724 268.913426)scale(0.07 -0.07)">
       <use xlink:href="#DejaVuSans-ExtraLight-31"/>
       <use xlink:href="#DejaVuSans-ExtraLight-37" x="63.623047"/>
      </g>
     </g>
    </g>
    <g id="xtick_19">
     <g id="line2d_19">
      <g>
       <use xlink:href="#m02dbaa8892" x="330.129571" y="257.09452" style="fill: #37414a; stroke: #37414a; stroke-width: 0.5"/>
      </g>
     </g>
     <g id="text_19">
      <!-- 18 -->
      <g style="fill: #37414a" transform="translate(325.675821 268.913426)scale(0.07 -0.07)">
       <use xlink:href="#DejaVuSans-ExtraLight-31"/>
       <use xlink:href="#DejaVuSans-ExtraLight-38" x="63.623047"/>
      </g>
     </g>
    </g>
    <g id="xtick_20">
     <g id="line2d_20">
      <g>
       <use xlink:href="#m02dbaa8892" x="346.632992" y="257.09452" style="fill: #37414a; stroke: #37414a; stroke-width: 0.5"/>
      </g>
     </g>
     <g id="text_20">
      <!-- 19 -->
      <g style="fill: #37414a" transform="translate(342.179242 268.913426)scale(0.07 -0.07)">
       <use xlink:href="#DejaVuSans-ExtraLight-31"/>
       <use xlink:href="#DejaVuSans-ExtraLight-39" x="63.623047"/>
      </g>
     </g>
    </g>
    <g id="xtick_21">
     <g id="line2d_21">
      <g>
       <use xlink:href="#m02dbaa8892" x="363.136413" y="257.09452" style="fill: #37414a; stroke: #37414a; stroke-width: 0.5"/>
      </g>
     </g>
     <g id="text_21">
      <!-- 20 -->
      <g style="fill: #37414a" transform="translate(358.682663 268.913426)scale(0.07 -0.07)">
       <use xlink:href="#DejaVuSans-ExtraLight-32"/>
       <use xlink:href="#DejaVuSans-ExtraLight-30" x="63.623047"/>
      </g>
     </g>
    </g>
    <g id="xtick_22">
     <g id="line2d_22">
      <g>
       <use xlink:href="#m02dbaa8892" x="379.639835" y="257.09452" style="fill: #37414a; stroke: #37414a; stroke-width: 0.5"/>
      </g>
     </g>
     <g id="text_22">
      <!-- 21 -->
      <g style="fill: #37414a" transform="translate(375.186085 268.913426)scale(0.07 -0.07)">
       <use xlink:href="#DejaVuSans-ExtraLight-32"/>
       <use xlink:href="#DejaVuSans-ExtraLight-31" x="63.623047"/>
      </g>
     </g>
    </g>
    <g id="xtick_23">
     <g id="line2d_23">
      <g>
       <use xlink:href="#m02dbaa8892" x="396.143256" y="257.09452" style="fill: #37414a; stroke: #37414a; stroke-width: 0.5"/>
      </g>
     </g>
     <g id="text_23">
      <!-- 22 -->
      <g style="fill: #37414a" transform="translate(391.689506 268.913426)scale(0.07 -0.07)">
       <use xlink:href="#DejaVuSans-ExtraLight-32"/>
       <use xlink:href="#DejaVuSans-ExtraLight-32" x="63.623047"/>
      </g>
     </g>
    </g>
    <g id="xtick_24">
     <g id="line2d_24">
      <g>
       <use xlink:href="#m02dbaa8892" x="412.646677" y="257.09452" style="fill: #37414a; stroke: #37414a; stroke-width: 0.5"/>
      </g>
     </g>
     <g id="text_24">
      <!-- 23 -->
      <g style="fill: #37414a" transform="translate(408.192927 268.913426)scale(0.07 -0.07)">
       <use xlink:href="#DejaVuSans-ExtraLight-32"/>
       <use xlink:href="#DejaVuSans-ExtraLight-33" x="63.623047"/>
      </g>
     </g>
    </g>
    <g id="xtick_25">
     <g id="line2d_25">
      <g>
       <use xlink:href="#m02dbaa8892" x="429.150098" y="257.09452" style="fill: #37414a; stroke: #37414a; stroke-width: 0.5"/>
      </g>
     </g>
     <g id="text_25">
      <!-- 24 -->
      <g style="fill: #37414a" transform="translate(424.696348 268.913426)scale(0.07 -0.07)">
       <use xlink:href="#DejaVuSans-ExtraLight-32"/>
       <use xlink:href="#DejaVuSans-ExtraLight-34" x="63.623047"/>
      </g>
     </g>
    </g>
    <g id="xtick_26">
     <g id="line2d_26">
      <g>
       <use xlink:href="#m02dbaa8892" x="445.653519" y="257.09452" style="fill: #37414a; stroke: #37414a; stroke-width: 0.5"/>
      </g>
     </g>
     <g id="text_26">
      <!-- 25 -->
      <g style="fill: #37414a" transform="translate(441.199769 268.913426)scale(0.07 -0.07)">
       <use xlink:href="#DejaVuSans-ExtraLight-32"/>
       <use xlink:href="#DejaVuSans-ExtraLight-35" x="63.623047"/>
      </g>
     </g>
    </g>
    <g id="xtick_27">
     <g id="line2d_27">
      <g>
       <use xlink:href="#m02dbaa8892" x="462.15694" y="257.09452" style="fill: #37414a; stroke: #37414a; stroke-width: 0.5"/>
      </g>
     </g>
     <g id="text_27">
      <!-- 26 -->
      <g style="fill: #37414a" transform="translate(457.70319 268.913426)scale(0.07 -0.07)">
       <use xlink:href="#DejaVuSans-ExtraLight-32"/>
       <use xlink:href="#DejaVuSans-ExtraLight-36" x="63.623047"/>
      </g>
     </g>
    </g>
    <g id="xtick_28">
     <g id="line2d_28">
      <g>
       <use xlink:href="#m02dbaa8892" x="478.660362" y="257.09452" style="fill: #37414a; stroke: #37414a; stroke-width: 0.5"/>
      </g>
     </g>
     <g id="text_28">
      <!-- 27 -->
      <g style="fill: #37414a" transform="translate(474.206612 268.913426)scale(0.07 -0.07)">
       <use xlink:href="#DejaVuSans-ExtraLight-32"/>
       <use xlink:href="#DejaVuSans-ExtraLight-37" x="63.623047"/>
      </g>
     </g>
    </g>
    <g id="xtick_29">
     <g id="line2d_29">
      <g>
       <use xlink:href="#m02dbaa8892" x="495.163783" y="257.09452" style="fill: #37414a; stroke: #37414a; stroke-width: 0.5"/>
      </g>
     </g>
     <g id="text_29">
      <!-- 28 -->
      <g style="fill: #37414a" transform="translate(490.710033 268.913426)scale(0.07 -0.07)">
       <use xlink:href="#DejaVuSans-ExtraLight-32"/>
       <use xlink:href="#DejaVuSans-ExtraLight-38" x="63.623047"/>
      </g>
     </g>
    </g>
    <g id="xtick_30">
     <g id="line2d_30">
      <g>
       <use xlink:href="#m02dbaa8892" x="511.667204" y="257.09452" style="fill: #37414a; stroke: #37414a; stroke-width: 0.5"/>
      </g>
     </g>
     <g id="text_30">
      <!-- 29 -->
      <g style="fill: #37414a" transform="translate(507.213454 268.913426)scale(0.07 -0.07)">
       <use xlink:href="#DejaVuSans-ExtraLight-32"/>
       <use xlink:href="#DejaVuSans-ExtraLight-39" x="63.623047"/>
      </g>
     </g>
    </g>
    <g id="xtick_31">
     <g id="line2d_31">
      <g>
       <use xlink:href="#m02dbaa8892" x="528.170625" y="257.09452" style="fill: #37414a; stroke: #37414a; stroke-width: 0.5"/>
      </g>
     </g>
     <g id="text_31">
      <!-- 30 -->
      <g style="fill: #37414a" transform="translate(523.716875 268.913426)scale(0.07 -0.07)">
       <use xlink:href="#DejaVuSans-ExtraLight-33"/>
       <use xlink:href="#DejaVuSans-ExtraLight-30" x="63.623047"/>
      </g>
     </g>
    </g>
    <g id="xtick_32">
     <g id="line2d_32">
      <g>
       <use xlink:href="#m02dbaa8892" x="544.674046" y="257.09452" style="fill: #37414a; stroke: #37414a; stroke-width: 0.5"/>
      </g>
     </g>
     <g id="text_32">
      <!-- 31 -->
      <g style="fill: #37414a" transform="translate(540.220296 268.913426)scale(0.07 -0.07)">
       <use xlink:href="#DejaVuSans-ExtraLight-33"/>
       <use xlink:href="#DejaVuSans-ExtraLight-31" x="63.623047"/>
      </g>
     </g>
    </g>
    <g id="xtick_33">
     <g id="line2d_33">
      <g>
       <use xlink:href="#m02dbaa8892" x="561.177467" y="257.09452" style="fill: #37414a; stroke: #37414a; stroke-width: 0.5"/>
      </g>
     </g>
     <g id="text_33">
      <!-- 32 -->
      <g style="fill: #37414a" transform="translate(556.723717 268.913426)scale(0.07 -0.07)">
       <use xlink:href="#DejaVuSans-ExtraLight-33"/>
       <use xlink:href="#DejaVuSans-ExtraLight-32" x="63.623047"/>
      </g>
     </g>
    </g>
    <g id="text_34">
     <!-- Participant ID -->
     <g style="fill: #37414a" transform="translate(266.812416 281.207801)scale(0.09 -0.09)">
      <defs>
       <path id="DejaVuSans-ExtraLight-50" d="M 1094 4406 
L 1094 2263 
L 2053 2263 
Q 2575 2263 2859 2541 
Q 3147 2819 3147 3338 
Q 3147 3847 2859 4128 
Q 2575 4406 2053 4406 
L 1094 4406 
z
M 781 4666 
L 2053 4666 
Q 2750 4666 3109 4328 
Q 3466 3991 3466 3338 
Q 3466 2681 3109 2344 
Q 2750 2006 2053 2006 
L 1094 2006 
L 1094 0 
L 781 0 
L 781 4666 
z
" transform="scale(0.015625)"/>
       <path id="DejaVuSans-ExtraLight-61" d="M 2125 1975 
Q 1431 1975 1125 1728 
Q 819 1481 819 1006 
Q 819 544 1072 350 
Q 1325 156 1672 156 
Q 2328 156 2616 713 
Q 2906 1269 2906 1759 
L 2906 1975 
L 2125 1975 
z
M 3197 1997 
L 3197 0 
L 2913 0 
L 2913 950 
Q 2672 253 2275 63 
Q 1959 -91 1647 -91 
Q 1125 -91 825 188 
Q 525 469 525 1012 
Q 525 1556 916 1881 
Q 1306 2209 2194 2209 
L 2906 2209 
L 2906 2266 
Q 2906 2731 2641 3031 
Q 2378 3331 1772 3331 
Q 1472 3331 1159 3219 
Q 959 3147 641 2928 
L 641 3238 
Q 919 3409 1159 3481 
Q 1509 3584 1831 3584 
Q 2450 3584 2850 3209 
Q 3197 2888 3197 1997 
z
" transform="scale(0.015625)"/>
       <path id="DejaVuSans-ExtraLight-72" d="M 2625 3253 
Q 2556 3288 2438 3313 
Q 2331 3331 2169 3331 
Q 1638 3331 1288 2938 
Q 1013 2619 1013 1844 
L 1013 0 
L 731 0 
L 731 3500 
L 1013 3500 
L 1013 2844 
Q 1153 3125 1406 3319 
Q 1756 3584 2231 3584 
Q 2353 3584 2444 3575 
Q 2538 3575 2625 3553 
L 2625 3253 
z
" transform="scale(0.015625)"/>
       <path id="DejaVuSans-ExtraLight-74" d="M 1028 4494 
L 1028 3500 
L 2213 3500 
L 2213 3256 
L 1028 3256 
L 1028 1153 
Q 1028 753 1131 594 
Q 1344 244 1750 244 
L 2213 244 
L 2213 0 
L 1766 0 
Q 1338 0 1038 250 
Q 738 500 738 1153 
L 738 3256 
L 319 3256 
L 319 3500 
L 738 3500 
L 738 4494 
L 1028 4494 
z
" transform="scale(0.015625)"/>
       <path id="DejaVuSans-ExtraLight-69" d="M 719 3500 
L 1006 3500 
L 1006 0 
L 719 0 
L 719 3500 
z
M 719 4863 
L 1006 4863 
L 1006 4469 
L 719 4469 
L 719 4863 
z
" transform="scale(0.015625)"/>
       <path id="DejaVuSans-ExtraLight-63" d="M 3122 3331 
L 3122 3025 
Q 2863 3184 2694 3241 
Q 2403 3331 2138 3331 
Q 1381 3331 1053 2943 
Q 725 2556 725 1747 
Q 725 931 1053 543 
Q 1381 156 2138 156 
Q 2388 156 2631 225 
Q 2878 291 3122 425 
L 3122 134 
Q 2881 22 2625 -34 
Q 2366 -91 2113 -91 
Q 1344 -91 891 325 
Q 438 744 438 1747 
Q 438 2750 891 3169 
Q 1344 3584 2113 3584 
Q 2363 3584 2644 3513 
Q 2925 3444 3122 3331 
z
" transform="scale(0.015625)"/>
       <path id="DejaVuSans-ExtraLight-70" d="M 1013 794 
L 1013 -1331 
L 731 -1331 
L 731 3500 
L 1013 3500 
L 1013 2700 
Q 1209 3156 1441 3325 
Q 1794 3584 2106 3584 
Q 2728 3584 3140 3078 
Q 3553 2572 3553 1747 
Q 3553 922 3140 415 
Q 2728 -91 2106 -91 
Q 1794 -91 1441 169 
Q 1209 338 1013 794 
z
M 2888 528 
Q 3250 894 3250 1747 
Q 3250 2600 2888 2966 
Q 2528 3331 2128 3331 
Q 1738 3331 1375 2966 
Q 1016 2600 1016 1747 
Q 1016 894 1375 528 
Q 1738 163 2128 163 
Q 2528 163 2888 528 
z
" transform="scale(0.015625)"/>
       <path id="DejaVuSans-ExtraLight-6e" d="M 3369 2113 
L 3369 0 
L 3081 0 
L 3081 2094 
Q 3081 2775 2862 3053 
Q 2644 3331 2219 3331 
Q 1722 3331 1369 3031 
Q 1013 2728 1013 1978 
L 1013 0 
L 725 0 
L 725 3500 
L 1013 3500 
L 1013 2844 
Q 1166 3163 1416 3331 
Q 1784 3584 2231 3584 
Q 2750 3584 3059 3231 
Q 3369 2881 3369 2113 
z
" transform="scale(0.015625)"/>
       <path id="DejaVuSans-ExtraLight-20" transform="scale(0.015625)"/>
       <path id="DejaVuSans-ExtraLight-49" d="M 775 4666 
L 1100 4666 
L 1100 0 
L 775 0 
L 775 4666 
z
" transform="scale(0.015625)"/>
       <path id="DejaVuSans-ExtraLight-44" d="M 1097 4400 
L 1097 253 
L 2022 253 
Q 3078 253 3569 753 
Q 4063 1253 4063 2331 
Q 4063 3403 3569 3903 
Q 3078 4400 2022 4400 
L 1097 4400 
z
M 778 4666 
L 1925 4666 
Q 3200 4666 3797 4100 
Q 4394 3538 4394 2338 
Q 4394 1131 3794 565 
Q 3194 0 1925 0 
L 778 0 
L 778 4666 
z
" transform="scale(0.015625)"/>
      </defs>
      <use xlink:href="#DejaVuSans-ExtraLight-50"/>
      <use xlink:href="#DejaVuSans-ExtraLight-61" x="55.802734"/>
      <use xlink:href="#DejaVuSans-ExtraLight-72" x="117.082031"/>
      <use xlink:href="#DejaVuSans-ExtraLight-74" x="158.195312"/>
      <use xlink:href="#DejaVuSans-ExtraLight-69" x="197.404297"/>
      <use xlink:href="#DejaVuSans-ExtraLight-63" x="225.1875"/>
      <use xlink:href="#DejaVuSans-ExtraLight-69" x="280.167969"/>
      <use xlink:href="#DejaVuSans-ExtraLight-70" x="307.951172"/>
      <use xlink:href="#DejaVuSans-ExtraLight-61" x="371.427734"/>
      <use xlink:href="#DejaVuSans-ExtraLight-6e" x="432.707031"/>
      <use xlink:href="#DejaVuSans-ExtraLight-74" x="496.085938"/>
      <use xlink:href="#DejaVuSans-ExtraLight-20" x="535.294922"/>
      <use xlink:href="#DejaVuSans-ExtraLight-49" x="567.082031"/>
      <use xlink:href="#DejaVuSans-ExtraLight-44" x="596.574219"/>
     </g>
    </g>
   </g>
   <g id="matplotlib.axis_2">
    <g id="ytick_1">
     <g id="line2d_34">
      <defs>
       <path id="m64d08beb76" d="M 0 0 
L -3 0 
" style="stroke: #37414a; stroke-width: 0.5"/>
      </defs>
      <g>
       <use xlink:href="#m64d08beb76" x="23.165938" y="257.09452" style="fill: #37414a; stroke: #37414a; stroke-width: 0.5"/>
      </g>
     </g>
     <g id="text_35">
      <!-- 0.00 -->
      <g style="fill: #37414a" transform="translate(1.08 259.753973)scale(0.07 -0.07)">
       <defs>
        <path id="DejaVuSans-ExtraLight-2e" d="M 856 394 
L 1175 394 
L 1175 0 
L 856 0 
L 856 394 
z
" transform="scale(0.015625)"/>
       </defs>
       <use xlink:href="#DejaVuSans-ExtraLight-30"/>
       <use xlink:href="#DejaVuSans-ExtraLight-2e" x="63.623047"/>
       <use xlink:href="#DejaVuSans-ExtraLight-30" x="95.410156"/>
       <use xlink:href="#DejaVuSans-ExtraLight-30" x="159.033203"/>
      </g>
     </g>
    </g>
    <g id="ytick_2">
     <g id="line2d_35">
      <g>
       <use xlink:href="#m64d08beb76" x="23.165938" y="224.314445" style="fill: #37414a; stroke: #37414a; stroke-width: 0.5"/>
      </g>
     </g>
     <g id="text_36">
      <!-- 0.05 -->
      <g style="fill: #37414a" transform="translate(1.08 226.973898)scale(0.07 -0.07)">
       <use xlink:href="#DejaVuSans-ExtraLight-30"/>
       <use xlink:href="#DejaVuSans-ExtraLight-2e" x="63.623047"/>
       <use xlink:href="#DejaVuSans-ExtraLight-30" x="95.410156"/>
       <use xlink:href="#DejaVuSans-ExtraLight-35" x="159.033203"/>
      </g>
     </g>
    </g>
    <g id="ytick_3">
     <g id="line2d_36">
      <g>
       <use xlink:href="#m64d08beb76" x="23.165938" y="191.534371" style="fill: #37414a; stroke: #37414a; stroke-width: 0.5"/>
      </g>
     </g>
     <g id="text_37">
      <!-- 0.10 -->
      <g style="fill: #37414a" transform="translate(1.08 194.193824)scale(0.07 -0.07)">
       <use xlink:href="#DejaVuSans-ExtraLight-30"/>
       <use xlink:href="#DejaVuSans-ExtraLight-2e" x="63.623047"/>
       <use xlink:href="#DejaVuSans-ExtraLight-31" x="95.410156"/>
       <use xlink:href="#DejaVuSans-ExtraLight-30" x="159.033203"/>
      </g>
     </g>
    </g>
    <g id="ytick_4">
     <g id="line2d_37">
      <g>
       <use xlink:href="#m64d08beb76" x="23.165938" y="158.754296" style="fill: #37414a; stroke: #37414a; stroke-width: 0.5"/>
      </g>
     </g>
     <g id="text_38">
      <!-- 0.15 -->
      <g style="fill: #37414a" transform="translate(1.08 161.413749)scale(0.07 -0.07)">
       <use xlink:href="#DejaVuSans-ExtraLight-30"/>
       <use xlink:href="#DejaVuSans-ExtraLight-2e" x="63.623047"/>
       <use xlink:href="#DejaVuSans-ExtraLight-31" x="95.410156"/>
       <use xlink:href="#DejaVuSans-ExtraLight-35" x="159.033203"/>
      </g>
     </g>
    </g>
    <g id="ytick_5">
     <g id="line2d_38">
      <g>
       <use xlink:href="#m64d08beb76" x="23.165938" y="125.974221" style="fill: #37414a; stroke: #37414a; stroke-width: 0.5"/>
      </g>
     </g>
     <g id="text_39">
      <!-- 0.20 -->
      <g style="fill: #37414a" transform="translate(1.08 128.633675)scale(0.07 -0.07)">
       <use xlink:href="#DejaVuSans-ExtraLight-30"/>
       <use xlink:href="#DejaVuSans-ExtraLight-2e" x="63.623047"/>
       <use xlink:href="#DejaVuSans-ExtraLight-32" x="95.410156"/>
       <use xlink:href="#DejaVuSans-ExtraLight-30" x="159.033203"/>
      </g>
     </g>
    </g>
    <g id="ytick_6">
     <g id="line2d_39">
      <g>
       <use xlink:href="#m64d08beb76" x="23.165938" y="93.194147" style="fill: #37414a; stroke: #37414a; stroke-width: 0.5"/>
      </g>
     </g>
     <g id="text_40">
      <!-- 0.25 -->
      <g style="fill: #37414a" transform="translate(1.08 95.8536)scale(0.07 -0.07)">
       <use xlink:href="#DejaVuSans-ExtraLight-30"/>
       <use xlink:href="#DejaVuSans-ExtraLight-2e" x="63.623047"/>
       <use xlink:href="#DejaVuSans-ExtraLight-32" x="95.410156"/>
       <use xlink:href="#DejaVuSans-ExtraLight-35" x="159.033203"/>
      </g>
     </g>
    </g>
    <g id="ytick_7">
     <g id="line2d_40">
      <g>
       <use xlink:href="#m64d08beb76" x="23.165938" y="60.414072" style="fill: #37414a; stroke: #37414a; stroke-width: 0.5"/>
      </g>
     </g>
     <g id="text_41">
      <!-- 0.30 -->
      <g style="fill: #37414a" transform="translate(1.08 63.073525)scale(0.07 -0.07)">
       <use xlink:href="#DejaVuSans-ExtraLight-30"/>
       <use xlink:href="#DejaVuSans-ExtraLight-2e" x="63.623047"/>
       <use xlink:href="#DejaVuSans-ExtraLight-33" x="95.410156"/>
       <use xlink:href="#DejaVuSans-ExtraLight-30" x="159.033203"/>
      </g>
     </g>
    </g>
    <g id="ytick_8">
     <g id="line2d_41">
      <g>
       <use xlink:href="#m64d08beb76" x="23.165938" y="27.633997" style="fill: #37414a; stroke: #37414a; stroke-width: 0.5"/>
      </g>
     </g>
     <g id="text_42">
      <!-- 0.35 -->
      <g style="fill: #37414a" transform="translate(1.08 30.293451)scale(0.07 -0.07)">
       <use xlink:href="#DejaVuSans-ExtraLight-30"/>
       <use xlink:href="#DejaVuSans-ExtraLight-2e" x="63.623047"/>
       <use xlink:href="#DejaVuSans-ExtraLight-33" x="95.410156"/>
       <use xlink:href="#DejaVuSans-ExtraLight-35" x="159.033203"/>
      </g>
     </g>
    </g>
   </g>
   <g id="patch_3">
    <path d="M 27.291793 257.09452 
L 33.06799 257.09452 
L 33.06799 112.605025 
L 27.291793 112.605025 
z
" clip-path="url(#p2560d1f30f)" style="fill: #8d2d39"/>
   </g>
   <g id="patch_4">
    <path d="M 43.795214 257.09452 
L 49.571411 257.09452 
L 49.571411 156.305388 
L 43.795214 156.305388 
z
" clip-path="url(#p2560d1f30f)" style="fill: #8d2d39"/>
   </g>
   <g id="patch_5">
    <path d="M 60.298635 257.09452 
L 66.074833 257.09452 
L 66.074833 118.254966 
L 60.298635 118.254966 
z
" clip-path="url(#p2560d1f30f)" style="fill: #8d2d39"/>
   </g>
   <g id="patch_6">
    <path d="M 76.802056 257.09452 
L 82.578254 257.09452 
L 82.578254 117.32786 
L 76.802056 117.32786 
z
" clip-path="url(#p2560d1f30f)" style="fill: #8d2d39"/>
   </g>
   <g id="patch_7">
    <path d="M 93.305477 257.09452 
L 99.081675 257.09452 
L 99.081675 126.79274 
L 93.305477 126.79274 
z
" clip-path="url(#p2560d1f30f)" style="fill: #8d2d39"/>
   </g>
   <g id="patch_8">
    <path d="M 109.808899 257.09452 
L 115.585096 257.09452 
L 115.585096 121.963061 
L 109.808899 121.963061 
z
" clip-path="url(#p2560d1f30f)" style="fill: #8d2d39"/>
   </g>
   <g id="patch_9">
    <path d="M 126.31232 257.09452 
L 132.088517 257.09452 
L 132.088517 135.80273 
L 126.31232 135.80273 
z
" clip-path="url(#p2560d1f30f)" style="fill: #8d2d39"/>
   </g>
   <g id="patch_10">
    <path d="M 142.815741 257.09452 
L 148.591938 257.09452 
L 148.591938 118.001222 
L 142.815741 118.001222 
z
" clip-path="url(#p2560d1f30f)" style="fill: #8d2d39"/>
   </g>
   <g id="patch_11">
    <path d="M 159.319162 257.09452 
L 165.095359 257.09452 
L 165.095359 129.121443 
L 159.319162 129.121443 
z
" clip-path="url(#p2560d1f30f)" style="fill: #8d2d39"/>
   </g>
   <g id="patch_12">
    <path d="M 175.822583 257.09452 
L 181.598781 257.09452 
L 181.598781 137.380697 
L 175.822583 137.380697 
z
" clip-path="url(#p2560d1f30f)" style="fill: #8d2d39"/>
   </g>
   <g id="patch_13">
    <path d="M 192.326004 257.09452 
L 198.102202 257.09452 
L 198.102202 108.663752 
L 192.326004 108.663752 
z
" clip-path="url(#p2560d1f30f)" style="fill: #8d2d39"/>
   </g>
   <g id="patch_14">
    <path d="M 208.829426 257.09452 
L 214.605623 257.09452 
L 214.605623 142.281869 
L 208.829426 142.281869 
z
" clip-path="url(#p2560d1f30f)" style="fill: #8d2d39"/>
   </g>
   <g id="patch_15">
    <path d="M 225.332847 257.09452 
L 231.109044 257.09452 
L 231.109044 128.408712 
L 225.332847 128.408712 
z
" clip-path="url(#p2560d1f30f)" style="fill: #8d2d39"/>
   </g>
   <g id="patch_16">
    <path d="M 241.836268 257.09452 
L 247.612465 257.09452 
L 247.612465 125.534477 
L 241.836268 125.534477 
z
" clip-path="url(#p2560d1f30f)" style="fill: #8d2d39"/>
   </g>
   <g id="patch_17">
    <path d="M 258.339689 257.09452 
L 264.115886 257.09452 
L 264.115886 131.706571 
L 258.339689 131.706571 
z
" clip-path="url(#p2560d1f30f)" style="fill: #8d2d39"/>
   </g>
   <g id="patch_18">
    <path d="M 274.84311 257.09452 
L 280.619308 257.09452 
L 280.619308 137.911577 
L 274.84311 137.911577 
z
" clip-path="url(#p2560d1f30f)" style="fill: #8d2d39"/>
   </g>
   <g id="patch_19">
    <path d="M 291.346531 257.09452 
L 297.122729 257.09452 
L 297.122729 124.898924 
L 291.346531 124.898924 
z
" clip-path="url(#p2560d1f30f)" style="fill: #8d2d39"/>
   </g>
   <g id="patch_20">
    <path d="M 307.849953 257.09452 
L 313.62615 257.09452 
L 313.62615 117.829284 
L 307.849953 117.829284 
z
" clip-path="url(#p2560d1f30f)" style="fill: #8d2d39"/>
   </g>
   <g id="patch_21">
    <path d="M 324.353374 257.09452 
L 330.129571 257.09452 
L 330.129571 145.091168 
L 324.353374 145.091168 
z
" clip-path="url(#p2560d1f30f)" style="fill: #8d2d39"/>
   </g>
   <g id="patch_22">
    <path d="M 340.856795 257.09452 
L 346.632992 257.09452 
L 346.632992 125.665223 
L 340.856795 125.665223 
z
" clip-path="url(#p2560d1f30f)" style="fill: #8d2d39"/>
   </g>
   <g id="patch_23">
    <path d="M 357.360216 257.09452 
L 363.136413 257.09452 
L 363.136413 141.033814 
L 357.360216 141.033814 
z
" clip-path="url(#p2560d1f30f)" style="fill: #8d2d39"/>
   </g>
   <g id="patch_24">
    <path d="M 373.863637 257.09452 
L 379.639835 257.09452 
L 379.639835 142.223409 
L 373.863637 142.223409 
z
" clip-path="url(#p2560d1f30f)" style="fill: #8d2d39"/>
   </g>
   <g id="patch_25">
    <path d="M 390.367058 257.09452 
L 396.143256 257.09452 
L 396.143256 143.727313 
L 390.367058 143.727313 
z
" clip-path="url(#p2560d1f30f)" style="fill: #8d2d39"/>
   </g>
   <g id="patch_26">
    <path d="M 406.870479 257.09452 
L 412.646677 257.09452 
L 412.646677 75.452489 
L 406.870479 75.452489 
z
" clip-path="url(#p2560d1f30f)" style="fill: #8d2d39"/>
   </g>
   <g id="patch_27">
    <path d="M 423.373901 257.09452 
L 429.150098 257.09452 
L 429.150098 128.849145 
L 423.373901 128.849145 
z
" clip-path="url(#p2560d1f30f)" style="fill: #8d2d39"/>
   </g>
   <g id="patch_28">
    <path d="M 439.877322 257.09452 
L 445.653519 257.09452 
L 445.653519 138.55069 
L 439.877322 138.55069 
z
" clip-path="url(#p2560d1f30f)" style="fill: #8d2d39"/>
   </g>
   <g id="patch_29">
    <path d="M 456.380743 257.09452 
L 462.15694 257.09452 
L 462.15694 122.442208 
L 456.380743 122.442208 
z
" clip-path="url(#p2560d1f30f)" style="fill: #8d2d39"/>
   </g>
   <g id="patch_30">
    <path d="M 472.884164 257.09452 
L 478.660362 257.09452 
L 478.660362 135.357675 
L 472.884164 135.357675 
z
" clip-path="url(#p2560d1f30f)" style="fill: #8d2d39"/>
   </g>
   <g id="patch_31">
    <path d="M 489.387585 257.09452 
L 495.163783 257.09452 
L 495.163783 120.610142 
L 489.387585 120.610142 
z
" clip-path="url(#p2560d1f30f)" style="fill: #8d2d39"/>
   </g>
   <g id="patch_32">
    <path d="M 505.891006 257.09452 
L 511.667204 257.09452 
L 511.667204 153.758521 
L 505.891006 153.758521 
z
" clip-path="url(#p2560d1f30f)" style="fill: #8d2d39"/>
   </g>
   <g id="patch_33">
    <path d="M 522.394428 257.09452 
L 528.170625 257.09452 
L 528.170625 123.697671 
L 522.394428 123.697671 
z
" clip-path="url(#p2560d1f30f)" style="fill: #8d2d39"/>
   </g>
   <g id="patch_34">
    <path d="M 538.897849 257.09452 
L 544.674046 257.09452 
L 544.674046 123.901288 
L 538.897849 123.901288 
z
" clip-path="url(#p2560d1f30f)" style="fill: #8d2d39"/>
   </g>
   <g id="patch_35">
    <path d="M 555.40127 257.09452 
L 561.177467 257.09452 
L 561.177467 110.992803 
L 555.40127 110.992803 
z
" clip-path="url(#p2560d1f30f)" style="fill: #8d2d39"/>
   </g>
   <g id="patch_36">
    <path d="M 33.06799 257.09452 
L 38.844188 257.09452 
L 38.844188 88.49829 
L 33.06799 88.49829 
z
" clip-path="url(#p2560d1f30f)" style="fill: #37414a"/>
   </g>
   <g id="patch_37">
    <path d="M 49.571411 257.09452 
L 55.347609 257.09452 
L 55.347609 177.393328 
L 49.571411 177.393328 
z
" clip-path="url(#p2560d1f30f)" style="fill: #37414a"/>
   </g>
   <g id="patch_38">
    <path d="M 66.074833 257.09452 
L 71.85103 257.09452 
L 71.85103 100.59493 
L 66.074833 100.59493 
z
" clip-path="url(#p2560d1f30f)" style="fill: #37414a"/>
   </g>
   <g id="patch_39">
    <path d="M 82.578254 257.09452 
L 88.354451 257.09452 
L 88.354451 138.638757 
L 82.578254 138.638757 
z
" clip-path="url(#p2560d1f30f)" style="fill: #37414a"/>
   </g>
   <g id="patch_40">
    <path d="M 99.081675 257.09452 
L 104.857872 257.09452 
L 104.857872 87.175325 
L 99.081675 87.175325 
z
" clip-path="url(#p2560d1f30f)" style="fill: #37414a"/>
   </g>
   <g id="patch_41">
    <path d="M 115.585096 257.09452 
L 121.361293 257.09452 
L 121.361293 63.797671 
L 115.585096 63.797671 
z
" clip-path="url(#p2560d1f30f)" style="fill: #37414a"/>
   </g>
   <g id="patch_42">
    <path d="M 132.088517 257.09452 
L 137.864715 257.09452 
L 137.864715 67.990544 
L 132.088517 67.990544 
z
" clip-path="url(#p2560d1f30f)" style="fill: #37414a"/>
   </g>
   <g id="patch_43">
    <path d="M 148.591938 257.09452 
L 154.368136 257.09452 
L 154.368136 89.030579 
L 148.591938 89.030579 
z
" clip-path="url(#p2560d1f30f)" style="fill: #37414a"/>
   </g>
   <g id="patch_44">
    <path d="M 165.095359 257.09452 
L 170.871557 257.09452 
L 170.871557 88.047498 
L 165.095359 88.047498 
z
" clip-path="url(#p2560d1f30f)" style="fill: #37414a"/>
   </g>
   <g id="patch_45">
    <path d="M 181.598781 257.09452 
L 187.374978 257.09452 
L 187.374978 127.039705 
L 181.598781 127.039705 
z
" clip-path="url(#p2560d1f30f)" style="fill: #37414a"/>
   </g>
   <g id="patch_46">
    <path d="M 198.102202 257.09452 
L 203.878399 257.09452 
L 203.878399 94.856333 
L 198.102202 94.856333 
z
" clip-path="url(#p2560d1f30f)" style="fill: #37414a"/>
   </g>
   <g id="patch_47">
    <path d="M 214.605623 257.09452 
L 220.38182 257.09452 
L 220.38182 41.061103 
L 214.605623 41.061103 
z
" clip-path="url(#p2560d1f30f)" style="fill: #37414a"/>
   </g>
   <g id="patch_48">
    <path d="M 231.109044 257.09452 
L 236.885242 257.09452 
L 236.885242 67.282317 
L 231.109044 67.282317 
z
" clip-path="url(#p2560d1f30f)" style="fill: #37414a"/>
   </g>
   <g id="patch_49">
    <path d="M 247.612465 257.09452 
L 253.388663 257.09452 
L 253.388663 77.175488 
L 247.612465 77.175488 
z
" clip-path="url(#p2560d1f30f)" style="fill: #37414a"/>
   </g>
   <g id="patch_50">
    <path d="M 264.115886 257.09452 
L 269.892084 257.09452 
L 269.892084 87.897569 
L 264.115886 87.897569 
z
" clip-path="url(#p2560d1f30f)" style="fill: #37414a"/>
   </g>
   <g id="patch_51">
    <path d="M 280.619308 257.09452 
L 286.395505 257.09452 
L 286.395505 91.768889 
L 280.619308 91.768889 
z
" clip-path="url(#p2560d1f30f)" style="fill: #37414a"/>
   </g>
   <g id="patch_52">
    <path d="M 297.122729 257.09452 
L 302.898926 257.09452 
L 302.898926 41.389113 
L 297.122729 41.389113 
z
" clip-path="url(#p2560d1f30f)" style="fill: #37414a"/>
   </g>
   <g id="patch_53">
    <path d="M 313.62615 257.09452 
L 319.402347 257.09452 
L 319.402347 35.098132 
L 313.62615 35.098132 
z
" clip-path="url(#p2560d1f30f)" style="fill: #37414a"/>
   </g>
   <g id="patch_54">
    <path d="M 330.129571 257.09452 
L 335.905768 257.09452 
L 335.905768 100.870709 
L 330.129571 100.870709 
z
" clip-path="url(#p2560d1f30f)" style="fill: #37414a"/>
   </g>
   <g id="patch_55">
    <path d="M 346.632992 257.09452 
L 352.40919 257.09452 
L 352.40919 91.427629 
L 346.632992 91.427629 
z
" clip-path="url(#p2560d1f30f)" style="fill: #37414a"/>
   </g>
   <g id="patch_56">
    <path d="M 363.136413 257.09452 
L 368.912611 257.09452 
L 368.912611 91.157081 
L 363.136413 91.157081 
z
" clip-path="url(#p2560d1f30f)" style="fill: #37414a"/>
   </g>
   <g id="patch_57">
    <path d="M 379.639835 257.09452 
L 385.416032 257.09452 
L 385.416032 98.726669 
L 379.639835 98.726669 
z
" clip-path="url(#p2560d1f30f)" style="fill: #37414a"/>
   </g>
   <g id="patch_58">
    <path d="M 396.143256 257.09452 
L 401.919453 257.09452 
L 401.919453 89.777571 
L 396.143256 89.777571 
z
" clip-path="url(#p2560d1f30f)" style="fill: #37414a"/>
   </g>
   <g id="patch_59">
    <path d="M 412.646677 257.09452 
L 418.422874 257.09452 
L 418.422874 43.022623 
L 412.646677 43.022623 
z
" clip-path="url(#p2560d1f30f)" style="fill: #37414a"/>
   </g>
   <g id="patch_60">
    <path d="M 429.150098 257.09452 
L 434.926295 257.09452 
L 434.926295 88.599377 
L 429.150098 88.599377 
z
" clip-path="url(#p2560d1f30f)" style="fill: #37414a"/>
   </g>
   <g id="patch_61">
    <path d="M 445.653519 257.09452 
L 451.429717 257.09452 
L 451.429717 51.657839 
L 445.653519 51.657839 
z
" clip-path="url(#p2560d1f30f)" style="fill: #37414a"/>
   </g>
   <g id="patch_62">
    <path d="M 462.15694 257.09452 
L 467.933138 257.09452 
L 467.933138 78.454829 
L 462.15694 78.454829 
z
" clip-path="url(#p2560d1f30f)" style="fill: #37414a"/>
   </g>
   <g id="patch_63">
    <path d="M 478.660362 257.09452 
L 484.436559 257.09452 
L 484.436559 63.132583 
L 478.660362 63.132583 
z
" clip-path="url(#p2560d1f30f)" style="fill: #37414a"/>
   </g>
   <g id="patch_64">
    <path d="M 495.163783 257.09452 
L 500.93998 257.09452 
L 500.93998 87.614447 
L 495.163783 87.614447 
z
" clip-path="url(#p2560d1f30f)" style="fill: #37414a"/>
   </g>
   <g id="patch_65">
    <path d="M 511.667204 257.09452 
L 517.443401 257.09452 
L 517.443401 132.726746 
L 511.667204 132.726746 
z
" clip-path="url(#p2560d1f30f)" style="fill: #37414a"/>
   </g>
   <g id="patch_66">
    <path d="M 528.170625 257.09452 
L 533.946822 257.09452 
L 533.946822 118.953142 
L 528.170625 118.953142 
z
" clip-path="url(#p2560d1f30f)" style="fill: #37414a"/>
   </g>
   <g id="patch_67">
    <path d="M 544.674046 257.09452 
L 550.450244 257.09452 
L 550.450244 80.481621 
L 544.674046 80.481621 
z
" clip-path="url(#p2560d1f30f)" style="fill: #37414a"/>
   </g>
   <g id="patch_68">
    <path d="M 561.177467 257.09452 
L 566.953665 257.09452 
L 566.953665 112.699334 
L 561.177467 112.699334 
z
" clip-path="url(#p2560d1f30f)" style="fill: #37414a"/>
   </g>
   <g id="patch_69">
    <path d="M 404.394966 257.09452 
L 404.394966 23.998312 
L 420.898387 23.998312 
L 420.898387 257.09452 
z
" clip-path="url(#p2560d1f30f)" style="fill: #8d2d39; opacity: 0.2; stroke: #8d2d39; stroke-width: 0.5; stroke-linejoin: miter"/>
   </g>
   <g id="patch_70">
    <path d="M 23.165938 257.09452 
L 23.165938 23.998313 
" style="fill: none; stroke: #37414a; stroke-width: 0.5; stroke-linejoin: miter; stroke-linecap: square"/>
   </g>
   <g id="patch_71">
    <path d="M 23.165937 257.09452 
L 571.07952 257.09452 
" style="fill: none; stroke: #37414a; stroke-width: 0.5; stroke-linejoin: miter; stroke-linecap: square"/>
   </g>
   <g id="text_43">
    <!-- Standard Deviation of FEV$_1$ and FVC -->
    <g style="fill: #37414a" transform="translate(215.582729 7.918594)scale(0.09 -0.09)">
     <defs>
      <path id="DejaVuSans-ExtraLight-53" d="M 3388 4431 
L 3388 4138 
Q 3081 4291 2709 4409 
Q 2466 4488 2094 4494 
Q 1544 4503 1200 4250 
Q 888 4019 888 3456 
Q 888 3109 1125 2906 
Q 1378 2691 1888 2559 
L 2259 2463 
Q 2759 2331 3031 2150 
Q 3541 1803 3541 1278 
Q 3541 519 3094 225 
Q 2606 -91 2094 -91 
Q 1559 -91 1138 56 
Q 872 163 581 350 
L 581 656 
Q 1019 397 1194 325 
Q 1584 166 1919 166 
Q 2491 166 2869 419 
Q 3225 656 3225 1253 
Q 3225 1603 3006 1803 
Q 2691 2094 2188 2216 
L 1813 2306 
Q 1363 2416 1047 2613 
Q 569 2913 569 3431 
Q 569 4078 959 4425 
Q 1322 4747 2059 4750 
Q 2494 4750 2725 4675 
Q 3319 4481 3388 4431 
z
" transform="scale(0.015625)"/>
      <path id="DejaVuSans-ExtraLight-64" d="M 3050 2700 
L 3050 4863 
L 3331 4863 
L 3331 0 
L 3050 0 
L 3050 794 
Q 2853 338 2622 169 
Q 2269 -91 1956 -91 
Q 1334 -91 921 415 
Q 509 922 509 1747 
Q 509 2572 921 3078 
Q 1334 3584 1956 3584 
Q 2269 3584 2622 3325 
Q 2853 3156 3050 2700 
z
M 1175 2966 
Q 813 2600 813 1747 
Q 813 894 1175 528 
Q 1534 163 1934 163 
Q 2325 163 2688 528 
Q 3047 894 3047 1747 
Q 3047 2600 2688 2966 
Q 2325 3331 1934 3331 
Q 1534 3331 1175 2966 
z
" transform="scale(0.015625)"/>
      <path id="DejaVuSans-ExtraLight-65" d="M 3453 1894 
L 3453 1713 
L 797 1713 
Q 797 869 1125 531 
Q 1488 156 2203 156 
Q 2391 156 2700 238 
Q 3013 319 3319 481 
L 3319 178 
Q 3009 47 2684 -22 
Q 2359 -91 2169 -91 
Q 1359 -91 950 347 
Q 506 813 506 1713 
Q 506 2647 913 3106 
Q 1328 3584 2069 3584 
Q 2756 3584 3106 3131 
Q 3453 2656 3453 1894 
z
M 3163 1956 
Q 3163 2694 2831 3031 
Q 2553 3331 2075 3331 
Q 1553 3331 1200 3019 
Q 875 2728 809 1956 
L 3163 1956 
z
" transform="scale(0.015625)"/>
      <path id="DejaVuSans-ExtraLight-76" d="M 406 3500 
L 706 3500 
L 1894 316 
L 3078 3500 
L 3381 3500 
L 2078 0 
L 1709 0 
L 406 3500 
z
" transform="scale(0.015625)"/>
      <path id="DejaVuSans-ExtraLight-6f" d="M 2806 2900 
Q 2497 3331 1962 3331 
Q 1428 3331 1119 2903 
Q 806 2478 806 1753 
Q 806 1009 1116 584 
Q 1425 156 1963 156 
Q 2497 156 2806 584 
Q 3119 1016 3119 1753 
Q 3119 2469 2806 2900 
z
M 1959 3584 
Q 2628 3584 3016 3084 
Q 3406 2581 3406 1750 
Q 3406 891 3016 394 
Q 2628 -106 1959 -106 
Q 1284 -106 894 391 
Q 506 888 506 1750 
Q 506 2591 897 3087 
Q 1288 3584 1959 3584 
z
" transform="scale(0.015625)"/>
      <path id="DejaVuSans-ExtraLight-66" d="M 2231 4863 
L 2231 4619 
L 1825 4619 
Q 1506 4619 1338 4453 
Q 1131 4250 1131 3809 
L 1131 3500 
L 2075 3500 
L 2075 3256 
L 1131 3256 
L 1131 0 
L 841 0 
L 841 3256 
L 291 3256 
L 291 3500 
L 841 3500 
L 841 3744 
Q 841 4328 1106 4594 
Q 1369 4863 1831 4863 
L 2231 4863 
z
" transform="scale(0.015625)"/>
      <path id="DejaVuSans-ExtraLight-46" d="M 781 4666 
L 3147 4666 
L 3147 4406 
L 1097 4406 
L 1097 2616 
L 2947 2616 
L 2947 2363 
L 1097 2363 
L 1097 0 
L 781 0 
L 781 4666 
z
" transform="scale(0.015625)"/>
      <path id="DejaVuSans-ExtraLight-45" d="M 778 4666 
L 3416 4666 
L 3416 4406 
L 1097 4406 
L 1097 2616 
L 3319 2616 
L 3319 2363 
L 1097 2363 
L 1097 253 
L 3472 253 
L 3472 0 
L 778 0 
L 778 4666 
z
" transform="scale(0.015625)"/>
      <path id="DejaVuSans-ExtraLight-56" d="M 1975 0 
L 194 4666 
L 550 4666 
L 2188 313 
L 3838 4666 
L 4166 4666 
L 2388 0 
L 1975 0 
z
" transform="scale(0.015625)"/>
      <path id="DejaVuSans-ExtraLight-43" d="M 4122 4278 
L 4122 3919 
Q 3803 4209 3444 4350 
Q 3081 4494 2675 4494 
Q 1794 4494 1328 3938 
Q 859 3381 859 2328 
Q 859 1275 1328 716 
Q 1794 156 2675 156 
Q 3081 156 3444 300 
Q 3803 447 4122 738 
L 4122 359 
Q 3791 134 3419 22 
Q 3050 -91 2638 -91 
Q 1656 -91 1094 556 
Q 531 1206 531 2328 
Q 531 3453 1094 4100 
Q 1656 4750 2638 4750 
Q 3056 4750 3425 4631 
Q 3797 4516 4122 4278 
z
" transform="scale(0.015625)"/>
     </defs>
     <use xlink:href="#DejaVuSans-ExtraLight-53" transform="translate(0 0.015625)"/>
     <use xlink:href="#DejaVuSans-ExtraLight-74" transform="translate(63.476562 0.015625)"/>
     <use xlink:href="#DejaVuSans-ExtraLight-61" transform="translate(102.685547 0.015625)"/>
     <use xlink:href="#DejaVuSans-ExtraLight-6e" transform="translate(163.964844 0.015625)"/>
     <use xlink:href="#DejaVuSans-ExtraLight-64" transform="translate(227.34375 0.015625)"/>
     <use xlink:href="#DejaVuSans-ExtraLight-61" transform="translate(290.820312 0.015625)"/>
     <use xlink:href="#DejaVuSans-ExtraLight-72" transform="translate(352.099609 0.015625)"/>
     <use xlink:href="#DejaVuSans-ExtraLight-64" transform="translate(393.212891 0.015625)"/>
     <use xlink:href="#DejaVuSans-ExtraLight-20" transform="translate(456.689453 0.015625)"/>
     <use xlink:href="#DejaVuSans-ExtraLight-44" transform="translate(488.476562 0.015625)"/>
     <use xlink:href="#DejaVuSans-ExtraLight-65" transform="translate(565.478516 0.015625)"/>
     <use xlink:href="#DejaVuSans-ExtraLight-76" transform="translate(627.001953 0.015625)"/>
     <use xlink:href="#DejaVuSans-ExtraLight-69" transform="translate(686.181641 0.015625)"/>
     <use xlink:href="#DejaVuSans-ExtraLight-61" transform="translate(713.964844 0.015625)"/>
     <use xlink:href="#DejaVuSans-ExtraLight-74" transform="translate(775.244141 0.015625)"/>
     <use xlink:href="#DejaVuSans-ExtraLight-69" transform="translate(814.453125 0.015625)"/>
     <use xlink:href="#DejaVuSans-ExtraLight-6f" transform="translate(842.236328 0.015625)"/>
     <use xlink:href="#DejaVuSans-ExtraLight-6e" transform="translate(903.417969 0.015625)"/>
     <use xlink:href="#DejaVuSans-ExtraLight-20" transform="translate(966.796875 0.015625)"/>
     <use xlink:href="#DejaVuSans-ExtraLight-6f" transform="translate(998.583984 0.015625)"/>
     <use xlink:href="#DejaVuSans-ExtraLight-66" transform="translate(1059.765625 0.015625)"/>
     <use xlink:href="#DejaVuSans-ExtraLight-20" transform="translate(1094.970703 0.015625)"/>
     <use xlink:href="#DejaVuSans-ExtraLight-46" transform="translate(1126.757812 0.015625)"/>
     <use xlink:href="#DejaVuSans-ExtraLight-45" transform="translate(1184.277344 0.015625)"/>
     <use xlink:href="#DejaVuSans-ExtraLight-56" transform="translate(1247.460938 0.015625)"/>
     <use xlink:href="#DejaVuSans-ExtraLight-31" transform="translate(1316.826172 -16.390625)scale(0.7)"/>
     <use xlink:href="#DejaVuSans-ExtraLight-20" transform="translate(1364.09668 0.015625)"/>
     <use xlink:href="#DejaVuSans-ExtraLight-61" transform="translate(1395.883789 0.015625)"/>
     <use xlink:href="#DejaVuSans-ExtraLight-6e" transform="translate(1457.163086 0.015625)"/>
     <use xlink:href="#DejaVuSans-ExtraLight-64" transform="translate(1520.541992 0.015625)"/>
     <use xlink:href="#DejaVuSans-ExtraLight-20" transform="translate(1584.018555 0.015625)"/>
     <use xlink:href="#DejaVuSans-ExtraLight-46" transform="translate(1615.805664 0.015625)"/>
     <use xlink:href="#DejaVuSans-ExtraLight-56" transform="translate(1673.325195 0.015625)"/>
     <use xlink:href="#DejaVuSans-ExtraLight-43" transform="translate(1741.733398 0.015625)"/>
    </g>
    <!-- Best FEV$_1$ acquisition -->
    <g style="fill: #37414a" transform="translate(249.332729 17.998312)scale(0.09 -0.09)">
     <defs>
      <path id="DejaVuSans-ExtraLight-42" d="M 1100 2325 
L 1100 253 
L 2272 253 
Q 2866 253 3153 509 
Q 3441 763 3441 1291 
Q 3441 1822 3153 2072 
Q 2866 2325 2272 2325 
L 1100 2325 
z
M 1100 4409 
L 1100 2581 
L 2194 2581 
Q 2731 2581 2993 2806 
Q 3256 3031 3256 3500 
Q 3256 3959 2994 4181 
Q 2731 4409 2194 4409 
L 1100 4409 
z
M 788 4666 
L 2241 4666 
Q 2881 4666 3228 4366 
Q 3575 4066 3575 3513 
Q 3575 3056 3397 2831 
Q 3200 2581 2922 2491 
Q 3325 2384 3528 2100 
Q 3756 1781 3756 1306 
Q 3756 681 3378 340 
Q 3000 0 2303 0 
L 788 0 
L 788 4666 
z
" transform="scale(0.015625)"/>
      <path id="DejaVuSans-ExtraLight-73" d="M 2706 3397 
L 2706 3081 
Q 2403 3250 2328 3269 
Q 2109 3322 1784 3331 
Q 1291 3331 1009 3134 
Q 794 2972 794 2578 
Q 794 2313 997 2163 
Q 1213 2000 1613 1913 
L 1809 1869 
Q 2306 1759 2563 1559 
Q 2859 1331 2875 966 
Q 2875 469 2581 188 
Q 2269 -91 1575 -91 
Q 1188 -91 988 -38 
Q 747 31 481 128 
L 481 488 
Q 863 269 975 238 
Q 1284 156 1588 156 
Q 2094 156 2334 366 
Q 2578 578 2578 922 
Q 2578 1209 2416 1341 
Q 2181 1528 1669 1647 
L 1469 1694 
Q 1028 1797 797 1984 
Q 506 2219 506 2553 
Q 506 3103 856 3343 
Q 1206 3584 1716 3584 
Q 2150 3584 2316 3538 
Q 2516 3481 2706 3397 
z
" transform="scale(0.015625)"/>
      <path id="DejaVuSans-ExtraLight-71" d="M 1175 2966 
Q 813 2600 813 1747 
Q 813 894 1175 528 
Q 1534 163 1934 163 
Q 2325 163 2688 528 
Q 3047 894 3047 1747 
Q 3047 2600 2688 2966 
Q 2325 3331 1934 3331 
Q 1534 3331 1175 2966 
z
M 3050 794 
Q 2853 338 2622 169 
Q 2269 -91 1956 -91 
Q 1334 -91 921 415 
Q 509 922 509 1747 
Q 509 2572 921 3078 
Q 1334 3584 1956 3584 
Q 2269 3584 2622 3325 
Q 2853 3156 3050 2700 
L 3050 3500 
L 3331 3500 
L 3331 -1331 
L 3050 -1331 
L 3050 794 
z
" transform="scale(0.015625)"/>
      <path id="DejaVuSans-ExtraLight-75" d="M 688 1388 
L 688 3500 
L 975 3500 
L 975 1406 
Q 975 725 1194 447 
Q 1413 169 1838 169 
Q 2334 169 2688 469 
Q 3044 772 3044 1522 
L 3044 3500 
L 3331 3500 
L 3331 0 
L 3044 0 
L 3044 656 
Q 2891 338 2641 169 
Q 2272 -84 1825 -84 
Q 1306 -84 997 269 
Q 688 619 688 1388 
z
" transform="scale(0.015625)"/>
     </defs>
     <use xlink:href="#DejaVuSans-ExtraLight-42" transform="translate(0 0.015625)"/>
     <use xlink:href="#DejaVuSans-ExtraLight-65" transform="translate(65.478516 0.015625)"/>
     <use xlink:href="#DejaVuSans-ExtraLight-73" transform="translate(127.001953 0.015625)"/>
     <use xlink:href="#DejaVuSans-ExtraLight-74" transform="translate(179.101562 0.015625)"/>
     <use xlink:href="#DejaVuSans-ExtraLight-20" transform="translate(218.310547 0.015625)"/>
     <use xlink:href="#DejaVuSans-ExtraLight-46" transform="translate(250.097656 0.015625)"/>
     <use xlink:href="#DejaVuSans-ExtraLight-45" transform="translate(307.617188 0.015625)"/>
     <use xlink:href="#DejaVuSans-ExtraLight-56" transform="translate(370.800781 0.015625)"/>
     <use xlink:href="#DejaVuSans-ExtraLight-31" transform="translate(440.166016 -16.390625)scale(0.7)"/>
     <use xlink:href="#DejaVuSans-ExtraLight-20" transform="translate(487.436523 0.015625)"/>
     <use xlink:href="#DejaVuSans-ExtraLight-61" transform="translate(519.223633 0.015625)"/>
     <use xlink:href="#DejaVuSans-ExtraLight-63" transform="translate(580.50293 0.015625)"/>
     <use xlink:href="#DejaVuSans-ExtraLight-71" transform="translate(635.483398 0.015625)"/>
     <use xlink:href="#DejaVuSans-ExtraLight-75" transform="translate(698.959961 0.015625)"/>
     <use xlink:href="#DejaVuSans-ExtraLight-69" transform="translate(762.338867 0.015625)"/>
     <use xlink:href="#DejaVuSans-ExtraLight-73" transform="translate(790.12207 0.015625)"/>
     <use xlink:href="#DejaVuSans-ExtraLight-69" transform="translate(842.22168 0.015625)"/>
     <use xlink:href="#DejaVuSans-ExtraLight-74" transform="translate(870.004883 0.015625)"/>
     <use xlink:href="#DejaVuSans-ExtraLight-69" transform="translate(909.213867 0.015625)"/>
     <use xlink:href="#DejaVuSans-ExtraLight-6f" transform="translate(936.99707 0.015625)"/>
     <use xlink:href="#DejaVuSans-ExtraLight-6e" transform="translate(998.178711 0.015625)"/>
    </g>
   </g>
   <g id="legend_1">
    <g id="patch_72">
     <path d="M 457.25952 50.147687 
L 566.17952 50.147687 
Q 567.57952 50.147687 567.57952 48.747687 
L 567.57952 28.898313 
Q 567.57952 27.498312 566.17952 27.498312 
L 457.25952 27.498312 
Q 455.85952 27.498312 455.85952 28.898313 
L 455.85952 48.747687 
Q 455.85952 50.147687 457.25952 50.147687 
L 457.25952 50.147687 
z
" style="fill: none; opacity: 0.8; stroke: #37414a; stroke-width: 0.5; stroke-linejoin: miter"/>
    </g>
    <g id="patch_73">
     <path d="M 458.65952 35.617219 
L 472.65952 35.617219 
L 472.65952 30.717219 
L 458.65952 30.717219 
z
" style="fill: #8d2d39"/>
    </g>
    <g id="text_44">
     <!-- Standard Deviation FEV$_1$ -->
     <g style="fill: #37414a" transform="translate(478.25952 35.617219)scale(0.07 -0.07)">
      <use xlink:href="#DejaVuSans-ExtraLight-53" transform="translate(0 0.015625)"/>
      <use xlink:href="#DejaVuSans-ExtraLight-74" transform="translate(63.476562 0.015625)"/>
      <use xlink:href="#DejaVuSans-ExtraLight-61" transform="translate(102.685547 0.015625)"/>
      <use xlink:href="#DejaVuSans-ExtraLight-6e" transform="translate(163.964844 0.015625)"/>
      <use xlink:href="#DejaVuSans-ExtraLight-64" transform="translate(227.34375 0.015625)"/>
      <use xlink:href="#DejaVuSans-ExtraLight-61" transform="translate(290.820312 0.015625)"/>
      <use xlink:href="#DejaVuSans-ExtraLight-72" transform="translate(352.099609 0.015625)"/>
      <use xlink:href="#DejaVuSans-ExtraLight-64" transform="translate(393.212891 0.015625)"/>
      <use xlink:href="#DejaVuSans-ExtraLight-20" transform="translate(456.689453 0.015625)"/>
      <use xlink:href="#DejaVuSans-ExtraLight-44" transform="translate(488.476562 0.015625)"/>
      <use xlink:href="#DejaVuSans-ExtraLight-65" transform="translate(565.478516 0.015625)"/>
      <use xlink:href="#DejaVuSans-ExtraLight-76" transform="translate(627.001953 0.015625)"/>
      <use xlink:href="#DejaVuSans-ExtraLight-69" transform="translate(686.181641 0.015625)"/>
      <use xlink:href="#DejaVuSans-ExtraLight-61" transform="translate(713.964844 0.015625)"/>
      <use xlink:href="#DejaVuSans-ExtraLight-74" transform="translate(775.244141 0.015625)"/>
      <use xlink:href="#DejaVuSans-ExtraLight-69" transform="translate(814.453125 0.015625)"/>
      <use xlink:href="#DejaVuSans-ExtraLight-6f" transform="translate(842.236328 0.015625)"/>
      <use xlink:href="#DejaVuSans-ExtraLight-6e" transform="translate(903.417969 0.015625)"/>
      <use xlink:href="#DejaVuSans-ExtraLight-20" transform="translate(966.796875 0.015625)"/>
      <use xlink:href="#DejaVuSans-ExtraLight-46" transform="translate(998.583984 0.015625)"/>
      <use xlink:href="#DejaVuSans-ExtraLight-45" transform="translate(1056.103516 0.015625)"/>
      <use xlink:href="#DejaVuSans-ExtraLight-56" transform="translate(1119.287109 0.015625)"/>
      <use xlink:href="#DejaVuSans-ExtraLight-31" transform="translate(1188.652344 -16.390625)scale(0.7)"/>
     </g>
    </g>
    <g id="patch_74">
     <path d="M 458.65952 45.891906 
L 472.65952 45.891906 
L 472.65952 40.991906 
L 458.65952 40.991906 
z
" style="fill: #37414a"/>
    </g>
    <g id="text_45">
     <!-- Standard Deviation FVC -->
     <g style="fill: #37414a" transform="translate(478.25952 45.891906)scale(0.07 -0.07)">
      <use xlink:href="#DejaVuSans-ExtraLight-53"/>
      <use xlink:href="#DejaVuSans-ExtraLight-74" x="63.476562"/>
      <use xlink:href="#DejaVuSans-ExtraLight-61" x="102.685547"/>
      <use xlink:href="#DejaVuSans-ExtraLight-6e" x="163.964844"/>
      <use xlink:href="#DejaVuSans-ExtraLight-64" x="227.34375"/>
      <use xlink:href="#DejaVuSans-ExtraLight-61" x="290.820312"/>
      <use xlink:href="#DejaVuSans-ExtraLight-72" x="352.099609"/>
      <use xlink:href="#DejaVuSans-ExtraLight-64" x="391.462891"/>
      <use xlink:href="#DejaVuSans-ExtraLight-20" x="454.939453"/>
      <use xlink:href="#DejaVuSans-ExtraLight-44" x="486.726562"/>
      <use xlink:href="#DejaVuSans-ExtraLight-65" x="563.728516"/>
      <use xlink:href="#DejaVuSans-ExtraLight-76" x="625.251953"/>
      <use xlink:href="#DejaVuSans-ExtraLight-69" x="684.431641"/>
      <use xlink:href="#DejaVuSans-ExtraLight-61" x="712.214844"/>
      <use xlink:href="#DejaVuSans-ExtraLight-74" x="773.494141"/>
      <use xlink:href="#DejaVuSans-ExtraLight-69" x="812.703125"/>
      <use xlink:href="#DejaVuSans-ExtraLight-6f" x="840.486328"/>
      <use xlink:href="#DejaVuSans-ExtraLight-6e" x="901.667969"/>
      <use xlink:href="#DejaVuSans-ExtraLight-20" x="965.046875"/>
      <use xlink:href="#DejaVuSans-ExtraLight-46" x="996.833984"/>
      <use xlink:href="#DejaVuSans-ExtraLight-56" x="1054.353516"/>
      <use xlink:href="#DejaVuSans-ExtraLight-43" x="1122.761719"/>
     </g>
    </g>
   </g>
  </g>
 </g>
 <defs>
  <clipPath id="p2560d1f30f">
   <rect x="23.165938" y="23.998312" width="547.913582" height="233.096208"/>
  </clipPath>
 </defs>
</svg>
