<?xml version="1.0" encoding="UTF-8" standalone="no"?>
<!DOCTYPE svg PUBLIC "-//W3C//DTD SVG 1.1//EN"
 "http://www.w3.org/Graphics/SVG/1.1/DTD/svg11.dtd">
<!-- Generated by graphviz version 2.43.0 (0)
 -->
<!-- Title: %3 Pages: 1 -->
<svg width="222pt" height="281pt"
 viewBox="0.00 0.00 222.00 281.00" xmlns="http://www.w3.org/2000/svg" xmlns:xlink="http://www.w3.org/1999/xlink">
<g id="graph0" class="graph" transform="scale(1 1) rotate(0) translate(4 277)">
<title>%3</title>
<polygon fill="white" stroke="transparent" points="-4,4 -4,-277 218,-277 218,4 -4,4"/>
<!-- 140325708804080 -->
<g id="node1" class="node">
<title>140325708804080</title>
<polygon fill="#caff70" stroke="black" points="133.5,-31 79.5,-31 79.5,0 133.5,0 133.5,-31"/>
<text text-anchor="middle" x="106.5" y="-7" font-family="monospace" font-size="10.00"> ()</text>
</g>
<!-- 140325727715136 -->
<g id="node2" class="node">
<title>140325727715136</title>
<polygon fill="lightgrey" stroke="black" points="151,-86 62,-86 62,-67 151,-67 151,-86"/>
<text text-anchor="middle" x="106.5" y="-74" font-family="monospace" font-size="10.00">AddBackward0</text>
</g>
<!-- 140325727715136&#45;&gt;140325708804080 -->
<g id="edge6" class="edge">
<title>140325727715136&#45;&gt;140325708804080</title>
<path fill="none" stroke="black" d="M106.5,-66.79C106.5,-60.07 106.5,-50.4 106.5,-41.34"/>
<polygon fill="black" stroke="black" points="110,-41.19 106.5,-31.19 103,-41.19 110,-41.19"/>
</g>
<!-- 140325727705776 -->
<g id="node3" class="node">
<title>140325727705776</title>
<polygon fill="lightgrey" stroke="black" points="101,-141 0,-141 0,-122 101,-122 101,-141"/>
<text text-anchor="middle" x="50.5" y="-129" font-family="monospace" font-size="10.00">AccumulateGrad</text>
</g>
<!-- 140325727705776&#45;&gt;140325727715136 -->
<g id="edge1" class="edge">
<title>140325727705776&#45;&gt;140325727715136</title>
<path fill="none" stroke="black" d="M59.5,-121.98C67.69,-114.23 80.01,-102.58 89.97,-93.14"/>
<polygon fill="black" stroke="black" points="92.48,-95.59 97.34,-86.17 87.67,-90.5 92.48,-95.59"/>
</g>
<!-- 140325708804752 -->
<g id="node4" class="node">
<title>140325708804752</title>
<polygon fill="lightblue" stroke="black" points="77.5,-207 23.5,-207 23.5,-177 77.5,-177 77.5,-207"/>
<text text-anchor="middle" x="50.5" y="-195" font-family="monospace" font-size="10.00">loc</text>
<text text-anchor="middle" x="50.5" y="-184" font-family="monospace" font-size="10.00"> ()</text>
</g>
<!-- 140325708804752&#45;&gt;140325727705776 -->
<g id="edge2" class="edge">
<title>140325708804752&#45;&gt;140325727705776</title>
<path fill="none" stroke="black" d="M50.5,-176.84C50.5,-169.21 50.5,-159.7 50.5,-151.45"/>
<polygon fill="black" stroke="black" points="54,-151.27 50.5,-141.27 47,-151.27 54,-151.27"/>
</g>
<!-- 140325727714992 -->
<g id="node5" class="node">
<title>140325727714992</title>
<polygon fill="lightgrey" stroke="black" points="208,-141 119,-141 119,-122 208,-122 208,-141"/>
<text text-anchor="middle" x="163.5" y="-129" font-family="monospace" font-size="10.00">MulBackward0</text>
</g>
<!-- 140325727714992&#45;&gt;140325727715136 -->
<g id="edge3" class="edge">
<title>140325727714992&#45;&gt;140325727715136</title>
<path fill="none" stroke="black" d="M154.34,-121.98C146,-114.23 133.47,-102.58 123.32,-93.14"/>
<polygon fill="black" stroke="black" points="125.53,-90.42 115.82,-86.17 120.76,-95.54 125.53,-90.42"/>
</g>
<!-- 140325727704864 -->
<g id="node6" class="node">
<title>140325727704864</title>
<polygon fill="lightgrey" stroke="black" points="214,-201.5 113,-201.5 113,-182.5 214,-182.5 214,-201.5"/>
<text text-anchor="middle" x="163.5" y="-189.5" font-family="monospace" font-size="10.00">AccumulateGrad</text>
</g>
<!-- 140325727704864&#45;&gt;140325727714992 -->
<g id="edge4" class="edge">
<title>140325727704864&#45;&gt;140325727714992</title>
<path fill="none" stroke="black" d="M163.5,-182.37C163.5,-174.25 163.5,-161.81 163.5,-151.39"/>
<polygon fill="black" stroke="black" points="167,-151.17 163.5,-141.17 160,-151.17 167,-151.17"/>
</g>
<!-- 140325708804656 -->
<g id="node7" class="node">
<title>140325708804656</title>
<polygon fill="lightblue" stroke="black" points="190.5,-273 136.5,-273 136.5,-243 190.5,-243 190.5,-273"/>
<text text-anchor="middle" x="163.5" y="-261" font-family="monospace" font-size="10.00">scale</text>
<text text-anchor="middle" x="163.5" y="-250" font-family="monospace" font-size="10.00"> ()</text>
</g>
<!-- 140325708804656&#45;&gt;140325727704864 -->
<g id="edge5" class="edge">
<title>140325708804656&#45;&gt;140325727704864</title>
<path fill="none" stroke="black" d="M163.5,-242.8C163.5,-233.7 163.5,-221.79 163.5,-211.9"/>
<polygon fill="black" stroke="black" points="167,-211.84 163.5,-201.84 160,-211.84 167,-211.84"/>
</g>
</g>
</svg>
