<?xml version="1.0" encoding="UTF-8" standalone="no"?>
<!DOCTYPE svg PUBLIC "-//W3C//DTD SVG 1.1//EN"
 "http://www.w3.org/Graphics/SVG/1.1/DTD/svg11.dtd">
<!-- Generated by graphviz version 2.43.0 (0)
 -->
<!-- Title: %3 Pages: 1 -->
<svg width="283pt" height="501pt"
 viewBox="0.00 0.00 283.00 501.00" xmlns="http://www.w3.org/2000/svg" xmlns:xlink="http://www.w3.org/1999/xlink">
<g id="graph0" class="graph" transform="scale(1 1) rotate(0) translate(4 497)">
<title>%3</title>
<polygon fill="white" stroke="transparent" points="-4,4 -4,-497 279,-497 279,4 -4,4"/>
<!-- 140325708792944 -->
<g id="node1" class="node">
<title>140325708792944</title>
<polygon fill="#caff70" stroke="black" points="203.5,-31 149.5,-31 149.5,0 203.5,0 203.5,-31"/>
<text text-anchor="middle" x="176.5" y="-7" font-family="monospace" font-size="10.00"> ()</text>
</g>
<!-- 140325725858704 -->
<g id="node2" class="node">
<title>140325725858704</title>
<polygon fill="lightgrey" stroke="black" points="221,-86 132,-86 132,-67 221,-67 221,-86"/>
<text text-anchor="middle" x="176.5" y="-74" font-family="monospace" font-size="10.00">SubBackward0</text>
</g>
<!-- 140325725858704&#45;&gt;140325708792944 -->
<g id="edge14" class="edge">
<title>140325725858704&#45;&gt;140325708792944</title>
<path fill="none" stroke="black" d="M176.5,-66.79C176.5,-60.07 176.5,-50.4 176.5,-41.34"/>
<polygon fill="black" stroke="black" points="180,-41.19 176.5,-31.19 173,-41.19 180,-41.19"/>
</g>
<!-- 140325725848096 -->
<g id="node3" class="node">
<title>140325725848096</title>
<polygon fill="lightgrey" stroke="black" points="221,-141 132,-141 132,-122 221,-122 221,-141"/>
<text text-anchor="middle" x="176.5" y="-129" font-family="monospace" font-size="10.00">SubBackward0</text>
</g>
<!-- 140325725848096&#45;&gt;140325725858704 -->
<g id="edge1" class="edge">
<title>140325725848096&#45;&gt;140325725858704</title>
<path fill="none" stroke="black" d="M176.5,-121.75C176.5,-114.8 176.5,-104.85 176.5,-96.13"/>
<polygon fill="black" stroke="black" points="180,-96.09 176.5,-86.09 173,-96.09 180,-96.09"/>
</g>
<!-- 140325725850400 -->
<g id="node4" class="node">
<title>140325725850400</title>
<polygon fill="lightgrey" stroke="black" points="168,-196 79,-196 79,-177 168,-177 168,-196"/>
<text text-anchor="middle" x="123.5" y="-184" font-family="monospace" font-size="10.00">DivBackward0</text>
</g>
<!-- 140325725850400&#45;&gt;140325725848096 -->
<g id="edge2" class="edge">
<title>140325725850400&#45;&gt;140325725848096</title>
<path fill="none" stroke="black" d="M132.25,-176.75C139.97,-169.03 151.4,-157.6 160.72,-148.28"/>
<polygon fill="black" stroke="black" points="163.31,-150.64 167.91,-141.09 158.36,-145.69 163.31,-150.64"/>
</g>
<!-- 140325725849152 -->
<g id="node5" class="node">
<title>140325725849152</title>
<polygon fill="lightgrey" stroke="black" points="95,-251 6,-251 6,-232 95,-232 95,-251"/>
<text text-anchor="middle" x="50.5" y="-239" font-family="monospace" font-size="10.00">NegBackward0</text>
</g>
<!-- 140325725849152&#45;&gt;140325725850400 -->
<g id="edge3" class="edge">
<title>140325725849152&#45;&gt;140325725850400</title>
<path fill="none" stroke="black" d="M62.23,-231.98C73.23,-224 89.92,-211.88 103.1,-202.31"/>
<polygon fill="black" stroke="black" points="105.52,-204.88 111.56,-196.17 101.41,-199.21 105.52,-204.88"/>
</g>
<!-- 140325725853376 -->
<g id="node6" class="node">
<title>140325725853376</title>
<polygon fill="lightgrey" stroke="black" points="95,-306 6,-306 6,-287 95,-287 95,-306"/>
<text text-anchor="middle" x="50.5" y="-294" font-family="monospace" font-size="10.00">PowBackward0</text>
</g>
<!-- 140325725853376&#45;&gt;140325725849152 -->
<g id="edge4" class="edge">
<title>140325725853376&#45;&gt;140325725849152</title>
<path fill="none" stroke="black" d="M50.5,-286.75C50.5,-279.8 50.5,-269.85 50.5,-261.13"/>
<polygon fill="black" stroke="black" points="54,-261.09 50.5,-251.09 47,-261.09 54,-261.09"/>
</g>
<!-- 140325725862688 -->
<g id="node7" class="node">
<title>140325725862688</title>
<polygon fill="lightgrey" stroke="black" points="95,-361 6,-361 6,-342 95,-342 95,-361"/>
<text text-anchor="middle" x="50.5" y="-349" font-family="monospace" font-size="10.00">SubBackward0</text>
</g>
<!-- 140325725862688&#45;&gt;140325725853376 -->
<g id="edge5" class="edge">
<title>140325725862688&#45;&gt;140325725853376</title>
<path fill="none" stroke="black" d="M50.5,-341.75C50.5,-334.8 50.5,-324.85 50.5,-316.13"/>
<polygon fill="black" stroke="black" points="54,-316.09 50.5,-306.09 47,-316.09 54,-316.09"/>
</g>
<!-- 140325725863648 -->
<g id="node8" class="node">
<title>140325725863648</title>
<polygon fill="lightgrey" stroke="black" points="101,-421.5 0,-421.5 0,-402.5 101,-402.5 101,-421.5"/>
<text text-anchor="middle" x="50.5" y="-409.5" font-family="monospace" font-size="10.00">AccumulateGrad</text>
</g>
<!-- 140325725863648&#45;&gt;140325725862688 -->
<g id="edge6" class="edge">
<title>140325725863648&#45;&gt;140325725862688</title>
<path fill="none" stroke="black" d="M50.5,-402.37C50.5,-394.25 50.5,-381.81 50.5,-371.39"/>
<polygon fill="black" stroke="black" points="54,-371.17 50.5,-361.17 47,-371.17 54,-371.17"/>
</g>
<!-- 140325708794000 -->
<g id="node9" class="node">
<title>140325708794000</title>
<polygon fill="lightblue" stroke="black" points="77.5,-493 23.5,-493 23.5,-463 77.5,-463 77.5,-493"/>
<text text-anchor="middle" x="50.5" y="-481" font-family="monospace" font-size="10.00">loc</text>
<text text-anchor="middle" x="50.5" y="-470" font-family="monospace" font-size="10.00"> ()</text>
</g>
<!-- 140325708794000&#45;&gt;140325725863648 -->
<g id="edge7" class="edge">
<title>140325708794000&#45;&gt;140325725863648</title>
<path fill="none" stroke="black" d="M50.5,-462.8C50.5,-453.7 50.5,-441.79 50.5,-431.9"/>
<polygon fill="black" stroke="black" points="54,-431.84 50.5,-421.84 47,-431.84 54,-431.84"/>
</g>
<!-- 140325725860816 -->
<g id="node10" class="node">
<title>140325725860816</title>
<polygon fill="lightgrey" stroke="black" points="202,-251 113,-251 113,-232 202,-232 202,-251"/>
<text text-anchor="middle" x="157.5" y="-239" font-family="monospace" font-size="10.00">MulBackward0</text>
</g>
<!-- 140325725860816&#45;&gt;140325725850400 -->
<g id="edge8" class="edge">
<title>140325725860816&#45;&gt;140325725850400</title>
<path fill="none" stroke="black" d="M151.89,-231.75C147.18,-224.42 140.33,-213.73 134.53,-204.7"/>
<polygon fill="black" stroke="black" points="137.36,-202.62 129.01,-196.09 131.46,-206.4 137.36,-202.62"/>
</g>
<!-- 140325725850736 -->
<g id="node11" class="node">
<title>140325725850736</title>
<polygon fill="lightgrey" stroke="black" points="202,-306 113,-306 113,-287 202,-287 202,-306"/>
<text text-anchor="middle" x="157.5" y="-294" font-family="monospace" font-size="10.00">PowBackward0</text>
</g>
<!-- 140325725850736&#45;&gt;140325725860816 -->
<g id="edge9" class="edge">
<title>140325725850736&#45;&gt;140325725860816</title>
<path fill="none" stroke="black" d="M157.5,-286.75C157.5,-279.8 157.5,-269.85 157.5,-261.13"/>
<polygon fill="black" stroke="black" points="161,-261.09 157.5,-251.09 154,-261.09 161,-261.09"/>
</g>
<!-- 140325725854288 -->
<g id="node12" class="node">
<title>140325725854288</title>
<polygon fill="lightgrey" stroke="black" points="247,-361 146,-361 146,-342 247,-342 247,-361"/>
<text text-anchor="middle" x="196.5" y="-349" font-family="monospace" font-size="10.00">AccumulateGrad</text>
</g>
<!-- 140325725854288&#45;&gt;140325725850736 -->
<g id="edge10" class="edge">
<title>140325725854288&#45;&gt;140325725850736</title>
<path fill="none" stroke="black" d="M190.06,-341.75C184.61,-334.34 176.64,-323.5 169.94,-314.41"/>
<polygon fill="black" stroke="black" points="172.57,-312.07 163.82,-306.09 166.93,-316.22 172.57,-312.07"/>
</g>
<!-- 140325725854480 -->
<g id="node14" class="node">
<title>140325725854480</title>
<polygon fill="lightgrey" stroke="black" points="275,-196 186,-196 186,-177 275,-177 275,-196"/>
<text text-anchor="middle" x="230.5" y="-184" font-family="monospace" font-size="10.00">LogBackward0</text>
</g>
<!-- 140325725854288&#45;&gt;140325725854480 -->
<g id="edge13" class="edge">
<title>140325725854288&#45;&gt;140325725854480</title>
<path fill="none" stroke="black" d="M199.93,-341.76C203.3,-332.88 208.37,-318.66 211.5,-306 220.08,-271.23 225.71,-229.73 228.47,-206.22"/>
<polygon fill="black" stroke="black" points="231.96,-206.55 229.6,-196.22 225,-205.77 231.96,-206.55"/>
</g>
<!-- 140325708794096 -->
<g id="node13" class="node">
<title>140325708794096</title>
<polygon fill="lightblue" stroke="black" points="223.5,-427 169.5,-427 169.5,-397 223.5,-397 223.5,-427"/>
<text text-anchor="middle" x="196.5" y="-415" font-family="monospace" font-size="10.00">scale</text>
<text text-anchor="middle" x="196.5" y="-404" font-family="monospace" font-size="10.00"> ()</text>
</g>
<!-- 140325708794096&#45;&gt;140325725854288 -->
<g id="edge11" class="edge">
<title>140325708794096&#45;&gt;140325725854288</title>
<path fill="none" stroke="black" d="M196.5,-396.84C196.5,-389.21 196.5,-379.7 196.5,-371.45"/>
<polygon fill="black" stroke="black" points="200,-371.27 196.5,-361.27 193,-371.27 200,-371.27"/>
</g>
<!-- 140325725854480&#45;&gt;140325725848096 -->
<g id="edge12" class="edge">
<title>140325725854480&#45;&gt;140325725848096</title>
<path fill="none" stroke="black" d="M221.58,-176.75C213.72,-169.03 202.07,-157.6 192.58,-148.28"/>
<polygon fill="black" stroke="black" points="194.84,-145.6 185.25,-141.09 189.94,-150.59 194.84,-145.6"/>
</g>
</g>
</svg>
